<svg xmlns="http://www.w3.org/2000/svg" xmlns:xlink="http://www.w3.org/1999/xlink" viewBox="0 0 742.1 618.08"><defs><style>.cls-1{isolation:isolate;}.cls-10,.cls-11,.cls-12,.cls-13,.cls-14,.cls-15,.cls-16,.cls-17,.cls-18,.cls-19,.cls-2,.cls-20,.cls-21,.cls-22,.cls-23,.cls-24,.cls-25,.cls-26,.cls-27,.cls-28,.cls-29,.cls-3,.cls-30,.cls-31,.cls-32,.cls-33,.cls-34,.cls-35,.cls-36,.cls-37,.cls-38,.cls-39,.cls-4,.cls-40,.cls-41,.cls-42,.cls-43,.cls-45,.cls-46,.cls-47,.cls-48,.cls-49,.cls-5,.cls-50,.cls-51,.cls-52,.cls-6,.cls-7,.cls-8,.cls-9{fill-rule:evenodd;}.cls-2,.cls-3,.cls-39,.cls-4,.cls-40,.cls-41,.cls-42,.cls-43,.cls-45,.cls-47,.cls-48,.cls-49,.cls-50,.cls-51,.cls-52{mix-blend-mode:screen;}.cls-2{fill:url(#radial-gradient);}.cls-3{opacity:0.75;fill:url(#radial-gradient-2);}.cls-4{fill:url(#radial-gradient-3);}.cls-5{fill:url(#radial-gradient-4);}.cls-13,.cls-14,.cls-16,.cls-23,.cls-33,.cls-38,.cls-50,.cls-6{opacity:0.5;}.cls-10,.cls-11,.cls-12,.cls-13,.cls-14,.cls-15,.cls-16,.cls-17,.cls-18,.cls-19,.cls-20,.cls-21,.cls-22,.cls-23,.cls-24,.cls-25,.cls-26,.cls-27,.cls-28,.cls-29,.cls-30,.cls-31,.cls-32,.cls-33,.cls-34,.cls-35,.cls-36,.cls-37,.cls-38,.cls-6,.cls-7,.cls-8,.cls-9{mix-blend-mode:multiply;}.cls-6{fill:url(#radial-gradient-5);}.cls-7{fill:url(#radial-gradient-6);}.cls-8{fill:url(#radial-gradient-7);}.cls-9{fill:url(#radial-gradient-8);}.cls-10{fill:url(#New_Gradient_Swatch_86);}.cls-11{fill:url(#New_Gradient_Swatch_86-2);}.cls-12{fill:url(#New_Gradient_Swatch_86-3);}.cls-13{fill:url(#radial-gradient-9);}.cls-14{fill:url(#radial-gradient-10);}.cls-15{fill:url(#New_Gradient_Swatch_86-4);}.cls-16{fill:url(#New_Gradient_Swatch_87);}.cls-17{fill:url(#New_Gradient_Swatch_87-2);}.cls-18{fill:url(#New_Gradient_Swatch_86-5);}.cls-19{fill:url(#New_Gradient_Swatch_87-3);}.cls-20{fill:url(#New_Gradient_Swatch_86-6);}.cls-21{fill:url(#New_Gradient_Swatch_87-4);}.cls-22{fill:url(#New_Gradient_Swatch_86-7);}.cls-23{fill:url(#New_Gradient_Swatch_87-5);}.cls-24{fill:url(#New_Gradient_Swatch_87-6);}.cls-25{fill:url(#New_Gradient_Swatch_87-7);}.cls-26{fill:url(#New_Gradient_Swatch_86-8);}.cls-27{fill:url(#New_Gradient_Swatch_87-8);}.cls-28{fill:url(#New_Gradient_Swatch_87-9);}.cls-29{fill:url(#New_Gradient_Swatch_86-9);}.cls-30{fill:url(#New_Gradient_Swatch_87-10);}.cls-31{fill:url(#New_Gradient_Swatch_86-10);}.cls-32{fill:url(#New_Gradient_Swatch_87-11);}.cls-33{fill:url(#New_Gradient_Swatch_87-12);}.cls-34{fill:url(#radial-gradient-11);}.cls-35{fill:url(#New_Gradient_Swatch_87-13);}.cls-36{opacity:0.6;fill:url(#radial-gradient-12);}.cls-37{fill:url(#New_Gradient_Swatch_87-14);}.cls-38{fill:url(#radial-gradient-13);}.cls-39,.cls-40,.cls-41,.cls-42,.cls-43,.cls-44,.cls-51{opacity:0.3;}.cls-39{fill:url(#radial-gradient-14);}.cls-40{fill:url(#radial-gradient-15);}.cls-41{fill:url(#radial-gradient-16);}.cls-42{fill:url(#radial-gradient-17);}.cls-43{fill:url(#radial-gradient-18);}.cls-45{fill:url(#radial-gradient-19);}.cls-46{fill:#999;}.cls-47{opacity:0.25;fill:url(#radial-gradient-20);}.cls-48{fill:url(#radial-gradient-21);}.cls-49{fill:url(#radial-gradient-22);}.cls-50{fill:url(#radial-gradient-23);}.cls-51{fill:url(#radial-gradient-24);}.cls-52{fill:url(#radial-gradient-25);}</style><radialGradient id="radial-gradient" cx="400.09" cy="659.62" r="874.42" gradientTransform="translate(68.61 -60.07) rotate(7.32)" gradientUnits="userSpaceOnUse"><stop offset="0" stop-color="#ff008b"/><stop offset="1"/></radialGradient><radialGradient id="radial-gradient-2" cx="731.72" cy="632.37" r="529.79" gradientTransform="translate(68.61 -60.07) rotate(7.32)" gradientUnits="userSpaceOnUse"><stop offset="0" stop-color="#ff8080"/><stop offset="1"/></radialGradient><radialGradient id="radial-gradient-3" cx="777.79" cy="631.14" r="411.51" gradientTransform="translate(68.61 -60.07) rotate(7.32)" gradientUnits="userSpaceOnUse"><stop offset="0" stop-color="#ffed00"/><stop offset="1"/></radialGradient><radialGradient id="radial-gradient-4" cx="467.64" cy="642.08" r="291.77" gradientTransform="translate(68.61 -60.07) rotate(7.32)" gradientUnits="userSpaceOnUse"><stop offset="0" stop-color="#473c96"/><stop offset="0.27" stop-color="#493c95"/><stop offset="0.42" stop-color="#523d91"/><stop offset="0.54" stop-color="#603f8b"/><stop offset="0.65" stop-color="#734283"/><stop offset="0.74" stop-color="#8d4678"/><stop offset="0.83" stop-color="#ad4a6a"/><stop offset="0.92" stop-color="#d24f5b"/><stop offset="0.99" stop-color="#fc5548"/><stop offset="1" stop-color="#ff5547"/></radialGradient><radialGradient id="radial-gradient-5" cx="372.86" cy="629.65" r="314.24" gradientTransform="translate(68.61 -60.07) rotate(7.32)" gradientUnits="userSpaceOnUse"><stop offset="0" stop-color="#fff"/><stop offset="0.08" stop-color="#ececf7"/><stop offset="0.3" stop-color="#b9bce1"/><stop offset="0.52" stop-color="#9196d0"/><stop offset="0.71" stop-color="#747bc3"/><stop offset="0.88" stop-color="#626abc"/><stop offset="1" stop-color="#5c64b9"/></radialGradient><radialGradient id="radial-gradient-6" cx="345.85" cy="667.42" r="216.78" gradientTransform="translate(68.61 -60.07) rotate(7.32)" gradientUnits="userSpaceOnUse"><stop offset="0.57" stop-color="#dbffff"/><stop offset="0.75" stop-color="#aac3e4"/><stop offset="1" stop-color="#5c64b9"/></radialGradient><radialGradient id="radial-gradient-7" cx="332.87" cy="559.84" r="255.37" gradientTransform="translate(68.61 -60.07) rotate(7.32)" gradientUnits="userSpaceOnUse"><stop offset="0" stop-color="#fff"/><stop offset="0.18" stop-color="#fcfcfe"/><stop offset="0.34" stop-color="#f1f2f9"/><stop offset="0.49" stop-color="#dfe1f1"/><stop offset="0.63" stop-color="#c6c9e6"/><stop offset="0.77" stop-color="#a5aad9"/><stop offset="0.9" stop-color="#7e84c8"/><stop offset="1" stop-color="#5c64b9"/></radialGradient><radialGradient id="radial-gradient-8" cx="329.31" cy="695.31" r="118.97" gradientTransform="translate(68.61 -60.07) rotate(7.32)" gradientUnits="userSpaceOnUse"><stop offset="0" stop-color="#fff"/><stop offset="0.27" stop-color="#fdfdfe"/><stop offset="0.43" stop-color="#f4f5fa"/><stop offset="0.56" stop-color="#e6e7f4"/><stop offset="0.67" stop-color="#d2d4ec"/><stop offset="0.77" stop-color="#b8bce1"/><stop offset="0.87" stop-color="#999ed3"/><stop offset="0.95" stop-color="#747ac3"/><stop offset="1" stop-color="#5c64b9"/></radialGradient><radialGradient id="New_Gradient_Swatch_86" cx="292.02" cy="573.66" r="67.91" gradientTransform="translate(68.61 -60.07) rotate(7.32)" gradientUnits="userSpaceOnUse"><stop offset="0" stop-color="#fff"/><stop offset="1" stop-color="#b1c6f2"/></radialGradient><radialGradient id="New_Gradient_Swatch_86-2" cx="365.34" cy="516.2" r="51.79" xlink:href="#New_Gradient_Swatch_86"/><radialGradient id="New_Gradient_Swatch_86-3" cx="409.32" cy="545.25" r="60.42" xlink:href="#New_Gradient_Swatch_86"/><radialGradient id="radial-gradient-9" cx="488.32" cy="634.62" r="63.11" gradientTransform="translate(68.61 -60.07) rotate(7.32)" gradientUnits="userSpaceOnUse"><stop offset="0" stop-color="#fff"/><stop offset="1" stop-color="#7682ba"/></radialGradient><radialGradient id="radial-gradient-10" cx="468.12" cy="703.2" r="39.61" xlink:href="#radial-gradient-9"/><radialGradient id="New_Gradient_Swatch_86-4" cx="294.55" cy="782.9" r="50.87" xlink:href="#New_Gradient_Swatch_86"/><radialGradient id="New_Gradient_Swatch_87" cx="298.78" cy="550.24" r="44.29" gradientTransform="translate(68.61 -60.07) rotate(7.32)" gradientUnits="userSpaceOnUse"><stop offset="0.38" stop-color="#fff"/><stop offset="0.62" stop-color="#c3c6e5"/><stop offset="1" stop-color="#5c64b9"/></radialGradient><radialGradient id="New_Gradient_Swatch_87-2" cx="366.29" cy="511.79" r="32.95" xlink:href="#New_Gradient_Swatch_87"/><radialGradient id="New_Gradient_Swatch_86-5" cx="275.52" cy="607.11" r="67.91" gradientTransform="translate(-24.34 8.76) rotate(-1.92)" xlink:href="#New_Gradient_Swatch_86"/><radialGradient id="New_Gradient_Swatch_87-3" cx="286.99" cy="589.56" r="61.78" gradientTransform="translate(-24.34 8.76) rotate(-1.92)" xlink:href="#New_Gradient_Swatch_87"/><radialGradient id="New_Gradient_Swatch_86-6" cx="228.72" cy="624.04" r="66" xlink:href="#New_Gradient_Swatch_86"/><radialGradient id="New_Gradient_Swatch_87-4" cx="225.16" cy="601.63" r="41.79" xlink:href="#New_Gradient_Swatch_87"/><radialGradient id="New_Gradient_Swatch_86-7" cx="361.26" cy="636.59" r="109.57" xlink:href="#New_Gradient_Swatch_86"/><radialGradient id="New_Gradient_Swatch_87-5" cx="388.81" cy="597.76" r="52.96" xlink:href="#New_Gradient_Swatch_87"/><radialGradient id="New_Gradient_Swatch_87-6" cx="421.55" cy="533.64" r="44.36" xlink:href="#New_Gradient_Swatch_87"/><radialGradient id="New_Gradient_Swatch_87-7" cx="482.61" cy="608.54" r="62.43" xlink:href="#New_Gradient_Swatch_87"/><radialGradient id="New_Gradient_Swatch_86-8" cx="360.46" cy="691.79" r="79.53" gradientTransform="translate(-116 109.65) rotate(-12.42)" xlink:href="#New_Gradient_Swatch_86"/><radialGradient id="New_Gradient_Swatch_87-8" cx="379.39" cy="643.5" r="52.44" gradientTransform="translate(-116 109.65) rotate(-12.42)" xlink:href="#New_Gradient_Swatch_87"/><radialGradient id="New_Gradient_Swatch_87-9" cx="465.67" cy="689.07" r="50.4" xlink:href="#New_Gradient_Swatch_87"/><radialGradient id="New_Gradient_Swatch_86-9" cx="215.94" cy="657.78" r="47.83" gradientTransform="translate(-92.27 73.86) rotate(-9.45)" xlink:href="#New_Gradient_Swatch_86"/><radialGradient id="New_Gradient_Swatch_87-10" cx="221.08" cy="642.58" r="48.5" gradientTransform="translate(-92.27 73.86) rotate(-9.45)" xlink:href="#New_Gradient_Swatch_87"/><radialGradient id="New_Gradient_Swatch_86-10" cx="289.54" cy="730.86" r="124.03" gradientTransform="matrix(1, -0.03, 0.03, 1, -25.32, 7.67)" xlink:href="#New_Gradient_Swatch_86"/><radialGradient id="New_Gradient_Swatch_87-11" cx="296.47" cy="687.48" r="68.45" gradientTransform="matrix(1, -0.03, 0.03, 1, -25.32, 7.67)" xlink:href="#New_Gradient_Swatch_87"/><radialGradient id="New_Gradient_Swatch_87-12" cx="300.46" cy="767.93" r="40.24" xlink:href="#New_Gradient_Swatch_87"/><radialGradient id="radial-gradient-11" cx="399.02" cy="759.72" r="79.84" xlink:href="#radial-gradient-9"/><radialGradient id="New_Gradient_Swatch_87-13" cx="399.23" cy="771.33" r="71.64" xlink:href="#New_Gradient_Swatch_87"/><radialGradient id="radial-gradient-12" cx="426.25" cy="737.58" r="36.03" xlink:href="#radial-gradient-9"/><radialGradient id="New_Gradient_Swatch_87-14" cx="430.83" cy="722.4" r="27.49" xlink:href="#New_Gradient_Swatch_87"/><radialGradient id="radial-gradient-13" cx="318.58" cy="598.89" r="216.88" xlink:href="#radial-gradient-6"/><radialGradient id="radial-gradient-14" cx="300.7" cy="603.04" r="30.69" gradientTransform="translate(68.61 -60.07) rotate(7.32)" gradientUnits="userSpaceOnUse"><stop offset="0" stop-color="#8cb1ff"/><stop offset="1"/></radialGradient><radialGradient id="radial-gradient-15" cx="238.1" cy="584.13" r="13.87" xlink:href="#radial-gradient-14"/><radialGradient id="radial-gradient-16" cx="308.11" cy="539.12" r="30.03" xlink:href="#radial-gradient-14"/><radialGradient id="radial-gradient-17" cx="383.62" cy="591.34" r="39.17" xlink:href="#radial-gradient-14"/><radialGradient id="radial-gradient-18" cx="317.54" cy="685.88" r="33.45" xlink:href="#radial-gradient-14"/><radialGradient id="radial-gradient-19" cx="249.37" cy="686.15" r="19.05" xlink:href="#radial-gradient-14"/><radialGradient id="radial-gradient-20" cx="258.11" cy="511.12" r="249.18" gradientTransform="translate(68.61 -60.07) rotate(7.32)" gradientUnits="userSpaceOnUse"><stop offset="0" stop-color="#7888b6"/><stop offset="1"/></radialGradient><radialGradient id="radial-gradient-21" cx="540.61" cy="650.69" r="357.84" gradientTransform="translate(68.61 -60.07) rotate(7.32)" gradientUnits="userSpaceOnUse"><stop offset="0.8"/><stop offset="0.89" stop-color="#793f00"/><stop offset="0.97" stop-color="#d56e00"/><stop offset="1" stop-color="#f98100"/></radialGradient><radialGradient id="radial-gradient-22" cx="218.07" cy="540.73" r="357.84" gradientTransform="translate(68.61 -60.07) rotate(7.32)" gradientUnits="userSpaceOnUse"><stop offset="0.73"/><stop offset="0.76" stop-color="#060002"/><stop offset="0.79" stop-color="#160007"/><stop offset="0.83" stop-color="#300010"/><stop offset="0.87" stop-color="#55001c"/><stop offset="0.91" stop-color="#84002c"/><stop offset="0.96" stop-color="#bd003f"/><stop offset="1" stop-color="#f90053"/></radialGradient><radialGradient id="radial-gradient-23" cx="370.73" cy="667.4" r="223.16" gradientTransform="translate(68.61 -60.07) rotate(7.32)" gradientUnits="userSpaceOnUse"><stop offset="0.59"/><stop offset="1" stop-color="#9c88b6"/></radialGradient><radialGradient id="radial-gradient-24" cx="315.53" cy="494.02" r="249.18" gradientTransform="translate(68.61 -60.07) rotate(7.32)" gradientUnits="userSpaceOnUse"><stop offset="0.64"/><stop offset="0.68" stop-color="#060002"/><stop offset="0.72" stop-color="#160007"/><stop offset="0.77" stop-color="#300010"/><stop offset="0.83" stop-color="#55001c"/><stop offset="0.89" stop-color="#84002c"/><stop offset="0.94" stop-color="#bd003f"/><stop offset="1" stop-color="#f90053"/></radialGradient><radialGradient id="radial-gradient-25" cx="324.87" cy="727.31" r="252.89" gradientTransform="translate(68.61 -60.07) rotate(7.32)" gradientUnits="userSpaceOnUse"><stop offset="0.56"/><stop offset="0.6" stop-color="#060300"/><stop offset="0.66" stop-color="#160b00"/><stop offset="0.72" stop-color="#301800"/><stop offset="0.79" stop-color="#552b00"/><stop offset="0.86" stop-color="#844200"/><stop offset="0.93" stop-color="#bd5f00"/><stop offset="1" stop-color="#f97d00"/></radialGradient></defs><title>Untitled-2</title><g class="cls-1"><g id="Layer_1" data-name="Layer 1"><path class="cls-2" d="M175.4,589.71c-4.56,22,14.13,32.19,12.65,57-1.49,25.06-1.24,36,13.39,52.81,13.87,16,27.76,27.44,41.54,42.09,12.91,13.72,33.25,40.91,54,41.81,6.62.29,13.74-.69,20.34-1.35,7.8-.78,21.36,1.9,31.38,3.2,30.65,4,45.15-24.76,63.24-33.84,23.93-12,53.88-22.7,81.29-35.14,75.2-34.13,76.46-72.46,110.53-93.4-25.88-1-39.3,15.55-49.81,19.86-21.74,8.92-29.28-13-19.08-28.09,11.1-16.41,25-18.86,39.24-19.31,115.89-3.66,107-109,177.07-172-78.42,28-84.85,86-116.75,92.94-32.82,7.15-48.15-37.78-1.13-74.43,17.52-13.65,38.21-22.92,58.46-32.13,29.12-13.25,73.51-21.27,98.76-39.91,41.39-30.57,34.59-86.22,81.83-127.69-53.37,21.92-50.84,43.67-83.46,72.59-22.56,20-50-4.28-30.3-30.36,38.59-51.06,110.84-35,158.17-116.81-36.68,33.38-93.4,36.82-138.06,41.32-52.1,5.26-80.81,13.85-118.65,80.66-7.63,13.45-15,27.35-24.71,39.44-50.61,62.79-85.56,14-66.51-11.57s62.38-21.61,90.74-69.41c-56.85,32.58-134.75,2.84-165.69,70.37-18.44,40.23-20.83,89.17-67.47,110.46-16.32,7.45-29.33-11.28-12.46-22,15.73-10,29.14-16.81,35.36-40.69-35.42,33.45-98.07,39.69-137.75,54.87-64.82,24.8-122.51,102.5-136.18,168.62Z" transform="translate(-174.68 -167.61)"/><path class="cls-3" d="M369.8,770.11c55.19-46.85,123.39-59,163.84-90.8,10.9-8.57,17.56-15.78,30.71-31.18-21.93,17.81-54,22.92-55.43-11.56-1.15-28.28,20.37-54.61,68.49-55,38.24-.3,62.26-7.79,86.64-51.84,14.05-25.4,20.78-47.21,43.18-72-39.64,28.27-49.2,73.47-86.68,86.48-54.63,19-67.51-36-34.28-79,26-33.58,85.87-65.07,133.77-78.8,21.19-6.08,38.36-10.64,53.21-20.68,32-21.62,41.7-65.32,63.54-96.84-24,21.82-27.63,39.57-52.55,61.31-40.82,35.61-77.34-8.41-52.33-43.6,36.12-50.83,109.32-47.47,154-89.07-51.63,29.23-89.79,19.09-138.11,35.43-40.84,13.8-59.88,41.14-91.63,89.62-12.51,19.09-32.27,47.84-48.65,60-22.83,16.94-59.42,21-72.94-9.29-6.38-14.29,2-42.22,13.77-55.29,17.76-19.64,58.6-28.05,76.87-41.4-33.62,10.64-76.91,5.57-102.68,32.24-21,21.74-20.29,66.42-42.88,100-10,14.85-28.6,34-40.85,40.5-42.36,22.51-76.24-19.48-32.26-47.89-30.72,17.23-73.89,23.66-110.27,44.12-47.7,26.82-91.14,69.7-112.52,151.73a26.9,26.9,0,0,0,1.93,13.14c6.43,15.91,9.07,34.59,8.79,55.41A61.21,61.21,0,0,0,204.65,692c31,37.24,62.3,63.32,98.15,78.07a265.3,265.3,0,0,1,42.7,6c9,.3,17.07-1.46,24.3-6Z" transform="translate(-174.68 -167.61)"/><path class="cls-4" d="M390.73,459,505,636.81c5.11-33.29,3.32-49.79,41.35-58.42,50.16-11.4,62.36,8.08,111.47-53.37-31.42,38.21-70.32,45.16-94.78,27.11-18.37-13.56-26.57-41.71-10.59-72.68,7.24-14.05,20.6-29.5,37.3-43.23,68.67-56.44,127.18-52.26,160.3-68.53,29.51-14.49,39.34-24.64,57.66-58.69-17.63,24.11-55.31,63.39-88,43.32-18.42-11.32-16.8-43.53,3.41-68.88,18.09-22.68,27.78-24.56,51.94-37.45-43.12,10.35-55,16-83,54.39-9.68,13.27-18.09,27.53-27.17,41.39-19.1,29.15-47.46,62.11-82.27,71.14-61,15.8-79-43.79-49-86.69-16.32,12.85-16.67,19.68-23.48,37.52C474.4,457.52,448.75,476.1,390.73,459Z" transform="translate(-174.68 -167.61)"/><path class="cls-5" d="M248.34,501.24q-14.81,19.46-33,31.29a28.61,28.61,0,0,0-9.88,10.53A253.87,253.87,0,0,0,185,591.76a26.77,26.77,0,0,0,.75,18.7c6.43,15.91,9.07,34.59,8.79,55.41A144.82,144.82,0,0,0,204.65,692c31,37.24,62.3,63.32,98.15,78.07a265.3,265.3,0,0,1,42.7,6,94.14,94.14,0,0,0,24.3-6c33.84-28.78,67.52-47.53,110.43-70.39,10-17.59,18.23-38.7,24.78-62.91,1.07-26.22-.69-49.62-5-70.49-15.64-44.21-41.59-76.81-78.8-96.71A246.05,246.05,0,0,0,390.73,459a429.61,429.61,0,0,1-56.1,3.71A67,67,0,0,0,316,467.83c-11.17,5.12-23.09,8.72-35.13,9.51-8.89,8.57-20.29,16.37-32.55,23.9Z" transform="translate(-174.68 -167.61)"/><path class="cls-6" d="M404.73,642.5l0-.65a37,37,0,0,1-5,4.32c-28.16,20-82.95,45.8-98.58,47.91-20.57,2.79-65.73,1.23-90.13-1-4.25-.39-8.29-5.79-11.34-12a119.51,119.51,0,0,0,5,10.88c31,37.24,62.3,63.32,98.15,78.07a265.3,265.3,0,0,1,42.7,6,94.14,94.14,0,0,0,24.3-6c33.84-28.78,67.52-47.53,110.43-70.39A25.06,25.06,0,0,1,470,699c-15.48-5.08-45.44-27.49-60.83-41.3-1.23-1.1-4.39-8.21-4.45-15.18Z" transform="translate(-174.68 -167.61)"/><path class="cls-7" d="M194.19,651.46c4.48-53.88,61.67-160.48,104-177.08a88.14,88.14,0,0,1-17.28,3c-8.89,8.57-20.29,16.37-32.55,23.9q-14.81,19.46-33,31.29a28.61,28.61,0,0,0-9.88,10.53A253.87,253.87,0,0,0,185,591.76a26.77,26.77,0,0,0,.75,18.7c4.91,12.14,7.61,25.9,8.49,41Z" transform="translate(-174.68 -167.61)"/><path class="cls-8" d="M404.73,642.5c.06,7,3.22,14.08,4.45,15.18C424.57,671.49,454.53,693.9,470,699a25.06,25.06,0,0,0,10.22.74c10-17.59,18.23-38.7,24.78-62.91,1.07-26.22-.69-49.62-5-70.49-5.55-5.84-17.63-12.85-27.55-17.18-4.77-2.09-23.89-6.1-28.49-2.75a27.28,27.28,0,0,0-4.14,4.86c2.29,20.13-14.92,73.25-35.12,91.25Z" transform="translate(-174.68 -167.61)"/><path class="cls-9" d="M304.2,699.65c-.94-3-4.21-5.2-9.62-4.88-22.48,1.79-61.49.33-83.55-1.67-4.25-.39-8.29-5.79-11.34-12a119.51,119.51,0,0,0,5,10.88c31,37.24,62.3,63.32,98.15,78.07,5.41-2.39,13.5-16.43,13.32-20.49-.76-17.1-6.75-33.62-11.92-49.94Z" transform="translate(-174.68 -167.61)"/><path class="cls-10" d="M277.18,509.57c-11.45,14.87-5.24,37.22,18.08,31.25,18.57-4.74,26-16.83,28.32-25.51,1.31-4.9.28-14-3-17.82-5.36-6.25-34.35.36-43.37,12.08Z" transform="translate(-174.68 -167.61)"/><path class="cls-11" d="M369.17,475.18c-8.78.47-20.51,7.57-21.1,11.73-.42,2.95-.12,7.26,3.13,8.11,8.35,2.17,18.66,3.33,27.11-.24,5.51-2.34,10.93-16.44,2.82-18.1-3.88-.79-7.84-1.72-12-1.5Z" transform="translate(-174.68 -167.61)"/><path class="cls-12" d="M432.12,495.81c-9.12-1.92-19.35,1.44-27.22,6.44-4.12,2.61-6.62,9.36-4.71,13.84,3.3,7.75,10.07,15.12,18.11,17.61,5.91,1.84,13-2.21,17.35-6.6A22,22,0,0,0,441.79,510c-.64-5.68-4.07-13-9.67-14.16Z" transform="translate(-174.68 -167.61)"/><path class="cls-13" d="M460.9,573.83a18.28,18.28,0,0,1,14.39,2.51c3,2.06,5.11,6.69,4,10.17a123.33,123.33,0,0,1-18.78,37c-2,2.68-7.21,3.25-10,1.34-6.27-4.36-12.93-10.53-14.09-18.08-1.36-8.85,10.08-29.17,24.42-32.92Z" transform="translate(-174.68 -167.61)"/><path class="cls-14" d="M435.18,650.2c-1.89-.08-4.46,0-5.46,1.61-5.36,8.65-5.6,25.79-.78,34.49,1.95,3.51,7,5.23,11,4.84,10.36-1,24.85-9.11,26.84-20.26,1.95-10.92-23.7-20.35-31.63-20.68Z" transform="translate(-174.68 -167.61)"/><path class="cls-15" d="M269,712c-6.49-1.39-12.16,6.94-9.51,12.81,3.21,7.09,13.53,16.37,25.83,21.22,7.95,3.14,8.95-4,7.53-9.3-1.7-6.33-4.27-12.86-8.82-17.58-3.85-4-9.61-6-15-7.15Z" transform="translate(-174.68 -167.61)"/><path class="cls-16" d="M276.2,510.93c13-8.95,26.54-8.8,31.92-5.58,8.23,4.94,9.57,18.29,3,27.11a18.36,18.36,0,0,1-2.51,2.75,34.1,34.1,0,0,0,15-19.9c1.31-4.9.28-14-3-17.82-5.36-6.25-34.35.36-43.37,12.08-.35.45-.67.9-1,1.36Z" transform="translate(-174.68 -167.61)"/><path class="cls-17" d="M349,484.91c7-4.88,16.38-7.33,24.53-3.12a12,12,0,0,1,4.69,4c2.83,4.45-.3,7.94-3.18,10.09a28.53,28.53,0,0,0,3.26-1.13c5.51-2.34,10.93-16.44,2.82-18.1-3.88-.8-7.84-1.72-12-1.5-7.49.4-17.11,5.62-20.16,9.73Z" transform="translate(-174.68 -167.61)"/><path class="cls-18" d="M266.44,562.92c-6.73,5.46-11.65,13.19-15.23,21.09-3.44,7.59,1.59,20.37,9.77,19.65,12.48-1.11,25.28-4.62,35.8-11.42,7.32-4.72,8.91-8.87,11.55-17.17,1.33-4.15-.36-10.41-4.26-12.35-12.4-6.16-28.64-7.09-37.63.2Z" transform="translate(-174.68 -167.61)"/><path class="cls-19" d="M250.14,590.58c7.59-15.92,27.9-22.68,36.44-20.3,9,2.52,16.9,11,12.82,18.38a19.27,19.27,0,0,1-2.76,3.67l.14-.09c7.32-4.72,8.91-8.87,11.55-17.17,1.33-4.15-.36-10.41-4.26-12.35-12.4-6.16-28.64-7.09-37.63.2-6.73,5.46-11.65,13.19-15.23,21.09a13.92,13.92,0,0,0-1.07,6.57Z" transform="translate(-174.68 -167.61)"/><path class="cls-20" d="M228.6,539.29c-4.68-1-14.89,19.48-21,32.86-11.75,25.66,11.24,12.52,23.81,1.63,5.08-4.39,7.8-11.35,9.17-17.92.74-3.56-1.11-7.46-3.24-10.41a15.29,15.29,0,0,0-8.72-6.16Z" transform="translate(-174.68 -167.61)"/><path class="cls-21" d="M224.48,549.77c12.31-4.3,7.18,15.92,5,20.33A55.87,55.87,0,0,1,222,580.87a92.68,92.68,0,0,0,9.35-7.09c5.08-4.39,7.8-11.35,9.17-17.92.74-3.56-1.11-7.46-3.24-10.41a15.29,15.29,0,0,0-8.72-6.16c-3.2-.67-9,8.68-14.28,18.93,3-3.8,6.48-7.16,10.16-8.45Z" transform="translate(-174.68 -167.61)"/><path class="cls-22" d="M382,549.43c-13.84-1.26-34.31,13-37.07,18.61-5.88,11.9-7.2,55.32,17.13,42.38,10.32-5.49,17.54-16.23,26.51-23.73,8.3-6.93,15.33-11,22.39-16.39,2.63-2,3.61-8.62-1.65-11.83a72.11,72.11,0,0,0-27.31-9Z" transform="translate(-174.68 -167.61)"/><path class="cls-23" d="M383,558.67c8.89,2,13.91,6.88,9,15.58-4.72,8.37-9.66,15-14.57,23.35a146.08,146.08,0,0,1,11.1-10.91c8.3-6.93,15.33-11,22.39-16.39,2.63-2,3.61-8.62-1.65-11.83a72.11,72.11,0,0,0-27.31-9c-13.84-1.26-34.31,13-37.07,18.61l-.26.56c8.29-8.83,22-13.54,38.38-9.93Z" transform="translate(-174.68 -167.61)"/><path class="cls-24" d="M421,502c11,.77,16.25,9.48,13.39,19.61-2.51,8.87-8.74,11.67-15.33,12.31,5.75,1.28,12.42-2.6,16.59-6.81A22,22,0,0,0,441.79,510c-.64-5.68-4.07-13-9.67-14.16-9.12-1.92-19.35,1.44-27.22,6.44-4.12,2.61-6.62,9.36-4.71,13.84.37.87.78,1.74,1.24,2.59-1.37-6.81.65-12.11,9.73-15.38A24,24,0,0,1,421,502Z" transform="translate(-174.68 -167.61)"/><path class="cls-25" d="M476.84,593.65c.53-7.06-2.65-13.72-13.48-12.21-7.83,1.08-23.44,12.44-24.55,21s6,16.47,14.09,18.24c4.25.92,9.7-2.5,13.41-5.65q-2.7,4.37-5.78,8.47c-2,2.68-7.21,3.25-10,1.34-6.27-4.37-12.93-10.53-14.09-18.08-1.36-8.85,10.08-29.17,24.42-32.92a18.28,18.28,0,0,1,14.39,2.51c3,2.06,5.11,6.69,4,10.17q-1.12,3.6-2.47,7.14Z" transform="translate(-174.68 -167.61)"/><path class="cls-26" d="M397.67,623.46c-7.36-1.5-17,13.08-24.67,22.37-6.57,7.93-14,13.35-14.31,13.82-1.92,3.24-3.37,7.75-1.76,11.15,1.49,3.17,5.9,5.61,9.32,4.85,14.78-3.27,29.51-8.35,42.39-16.3,6.49-4,8.11-22.41,3.64-28.41-3.27-4.38-9.25-6.39-14.61-7.48Z" transform="translate(-174.68 -167.61)"/><path class="cls-27" d="M385.49,639.39c7.53-5.1,16.8-3.61,22.79,3.31,3.18,3.68,2.38,12.48-.79,16.06-1.89,2.14-6.31,4.65-10.62,6.87a109.6,109.6,0,0,0,11.77-6.28c6.49-4,8.11-22.41,3.64-28.41-3.27-4.38-9.25-6.39-14.61-7.48-7.36-1.5-17,13.08-24.67,22.37a87.36,87.36,0,0,1-8.78,9c8.24-5,15.21-11.38,21.27-15.49Z" transform="translate(-174.68 -167.61)"/><path class="cls-28" d="M430.25,688c-3-10.59-1.7-23.16,5.9-28.07,5.37-3.47,22.83,1.15,26.13,5.27,4.32,5.4-.07,13.32-4,18.32,4.33-3.38,7.65-7.71,8.53-12.64,1.95-10.92-23.7-20.35-31.63-20.68-1.89-.08-4.46,0-5.46,1.61-5.36,8.65-5.6,25.79-.78,34.49a7.65,7.65,0,0,0,1.31,1.7Z" transform="translate(-174.68 -167.61)"/><path class="cls-29" d="M209.87,653.37c-1.89,3.32-2.26,8.14-.36,11.45,5.33,9.29,25.26,5.95,32.72,1.72,3.43-1.95,5-7.39,3.9-11.17a24.17,24.17,0,0,0-11.4-13.89c-8-4.27-21,5.12-24.86,11.89Z" transform="translate(-174.68 -167.61)"/><path class="cls-30" d="M209.63,661.79c2.21-8.06,13.89-14.19,20.77-14.67,6.3-.44,11.29,3.16,15.79,8.46l-.06-.21a24.17,24.17,0,0,0-11.4-13.89c-8-4.27-21,5.12-24.86,11.89-1.89,3.32-2.26,8.14-.36,11.45a8.13,8.13,0,0,0,.64,1,6.51,6.51,0,0,1-.52-4Z" transform="translate(-174.68 -167.61)"/><path class="cls-31" d="M269,661.66c-10-10.75,15.47-25.29,29.32-22.63a47.64,47.64,0,0,1,20.95,9.6c4.34,3.55,8,8.92,8.54,14.5.86,8.94-21.7,15-28.47,13.35-11.81-2.79-22.6-6.47-30.34-14.82Z" transform="translate(-174.68 -167.61)"/><path class="cls-32" d="M271.54,655.66A40.57,40.57,0,0,1,298,648.94c8.62,1,33.59,10.85,25.52,21.21,2.81-2,4.58-4.39,4.33-7-.54-5.58-4.2-11-8.54-14.5a47.64,47.64,0,0,0-20.95-9.6c-13.85-2.66-39.29,11.88-29.32,22.63q.64.69,1.32,1.35c-1.4-2.85-.37-6.26,1.19-7.35Z" transform="translate(-174.68 -167.61)"/><path class="cls-33" d="M258.81,721.65c2.78-3.17,11.73-.33,18.9,5.32,6,4.72,13,15.23,10.9,18.16-.56.8-2,1-3.27.94,7.92,3.11,8.92-4,7.5-9.31-1.7-6.33-4.27-12.86-8.82-17.58-3.85-4-9.61-6-15-7.15s-10.18,4.36-10.18,9.62Z" transform="translate(-174.68 -167.61)"/><path class="cls-34" d="M338.16,731.58c-10.59-6.65,7.15-24.25,19.14-25.12a40.64,40.64,0,0,1,19.36,3.27c4.36,2,8.56,5.58,10.24,10,2.69,7.17-14.56,17.11-20.48,17.29-10.34.32-20-.33-28.26-5.49Z" transform="translate(-174.68 -167.61)"/><path class="cls-35" d="M338.9,726.08a34.53,34.53,0,0,1,20.29-11.38c7.31-1.1,30.05,1.51,25.7,11.82,1.87-2.27,2.8-4.62,2-6.74-1.68-4.47-5.88-8.08-10.24-10a40.64,40.64,0,0,0-19.36-3.27c-12,.87-29.72,18.47-19.14,25.12l1.38.81c-1.78-2-1.69-5.07-.64-6.31Z" transform="translate(-174.68 -167.61)"/><path class="cls-36" d="M397.27,695.8a6.61,6.61,0,0,0-3.86,4.81c-.72,5.73,8.94,10.75,13.52,11.35,2.11.27,4.56-1.55,5.3-3.55a13,13,0,0,0-.4-9.67c-2.07-4.44-10.71-4.6-14.56-2.94Z" transform="translate(-174.68 -167.61)"/><path class="cls-37" d="M394.44,699.35c3.56-2.75,10.58-1.61,13.69.41,2.86,1.86,3.84,5,4.06,8.76,0,0,0-.07,0-.11a13,13,0,0,0-.4-9.67c-2.07-4.44-10.71-4.6-14.56-2.94a6.61,6.61,0,0,0-3.86,4.81,4.44,4.44,0,0,0,0,.63,3.52,3.52,0,0,1,1.07-1.89Z" transform="translate(-174.68 -167.61)"/><path class="cls-38" d="M476.79,551.12c29.31,40.49,28.94,142-15,144.29.05,5-2.09,7-13.06,9.45-41,9.27-52.05,18.37-83.36,53.41-12.1,13.54-44.16,10.94-49.36-7.39-22.25,18.06-61.64-9.58-87.79-32.87,23.51,23.66,47.79,41,74.61,52.07a265.3,265.3,0,0,1,42.7,6,94.14,94.14,0,0,0,24.3-6c33.84-28.78,67.52-47.53,110.43-70.39,10-17.59,18.23-38.7,24.78-62.91,1.07-26.22-.69-49.62-5-70.49-15.64-44.21-41.59-76.81-78.8-96.71-1.24-.52-2.48-1-3.73-1.53,30.7,18.74,59.17,45.11,59.29,83Z" transform="translate(-174.68 -167.61)"/><path class="cls-39" d="M312.84,560.64c-6.53-7.86-26.22-8.84-40.55-.9,9.19-3.48,21.72-2,31.78,3,3.89,1.94,5.59,8.2,4.26,12.35-2.23,7-3.92,11.06-8.75,15C316.62,578.93,318.7,567.69,312.84,560.64Z" transform="translate(-174.68 -167.61)"/><path class="cls-40" d="M228.6,539.29a15.29,15.29,0,0,1,8.72,6.16c2.13,2.95,4,6.85,3.24,10.41a44,44,0,0,1-3.19,9.77c3.35-5.4,5.61-9.78,5.47-15.28-.23-9.38-8.18-16-12.37-15.76-4,.24-8.59,4.58-13.26,18.3C221.61,545,226,538.74,228.6,539.29Z" transform="translate(-174.68 -167.61)"/><path class="cls-41" d="M325.52,490.12c-5.3-4.08-26.74-1.13-43.57,15,11.8-8.78,34-13,38.6-7.6,3.31,3.85,4.34,12.92,3,17.82a33.57,33.57,0,0,1-9,15.08l.42.27C332.68,509.33,331.37,494.62,325.52,490.12Z" transform="translate(-174.68 -167.61)"/><path class="cls-42" d="M344.9,568c2.76-5.58,23.23-19.87,37.07-18.61,7,.63,16,3.41,23.06,6.84-6.92-5.79-13.59-9.52-20.27-11.33-11.62-3.15-32.68,4.27-40.36,19.64-4,7.92-3.87,17.62-3,28.67l.1,0C340.79,583.59,342.43,573,344.9,568Z" transform="translate(-174.68 -167.61)"/><path class="cls-43" d="M298.35,639a47.64,47.64,0,0,1,20.95,9.6,25.91,25.91,0,0,1,5.88,6.88c-4.82-12.49-16.73-20.63-27-21.57a29.68,29.68,0,0,0-28.95,16.38C274.93,643.08,289.17,637.27,298.35,639Z" transform="translate(-174.68 -167.61)"/><g class="cls-44"><path class="cls-45" d="M234.73,641.48a24.23,24.23,0,0,1,9.68,9.8c-4.92-18.07-22.81-19.3-33.32.35C215.92,645.12,227.37,637.56,234.73,641.48Z" transform="translate(-174.68 -167.61)"/><path class="cls-46" d="M208.6,657c-.15.39-.33.72-.48,1.12h.3A11.06,11.06,0,0,1,208.6,657Z" transform="translate(-174.68 -167.61)"/></g><path class="cls-47" d="M298.17,474.38c-42.31,16.6-99.5,123.2-104,177.08q.41,7,.3,14.41c1.55,5.24,3.25,10.35,5.2,15.26,3.05,6.18,7.09,11.58,11.34,12,24.4,2.21,69.56,3.77,90.13,1,15.63-2.11,70.42-28,98.58-47.91,23.58-16.72,47.72-89.2,38-101.16-30.74-37.94-103.8-72.8-129-72.83a25.28,25.28,0,0,0-5.13.54c-1.82.6-3.65,1.16-5.49,1.66Z" transform="translate(-174.68 -167.61)"/><path class="cls-48" d="M248.34,501.24q-14.81,19.46-33,31.29a28.61,28.61,0,0,0-9.88,10.53A253.87,253.87,0,0,0,185,591.76a26.77,26.77,0,0,0,.75,18.7c6.43,15.91,9.07,34.59,8.79,55.41A144.82,144.82,0,0,0,204.65,692c31,37.24,62.3,63.32,98.15,78.07a265.3,265.3,0,0,1,42.7,6,94.14,94.14,0,0,0,24.3-6c33.84-28.78,67.52-47.53,110.43-70.39,10-17.59,18.23-38.7,24.78-62.91,1.07-26.22-.69-49.62-5-70.49-15.64-44.21-41.59-76.81-78.8-96.71A246.05,246.05,0,0,0,390.73,459a429.61,429.61,0,0,1-56.1,3.71A67,67,0,0,0,316,467.83c-11.17,5.12-23.09,8.72-35.13,9.51-8.89,8.57-20.29,16.37-32.55,23.9Z" transform="translate(-174.68 -167.61)"/><path class="cls-49" d="M248.34,501.24q-14.81,19.46-33,31.29a28.61,28.61,0,0,0-9.88,10.53A253.87,253.87,0,0,0,185,591.76a26.77,26.77,0,0,0,.75,18.7c6.43,15.91,9.07,34.59,8.79,55.41A144.82,144.82,0,0,0,204.65,692c31,37.24,62.3,63.32,98.15,78.07a265.3,265.3,0,0,1,42.7,6,94.14,94.14,0,0,0,24.3-6c33.84-28.78,67.52-47.53,110.43-70.39,10-17.59,18.23-38.7,24.78-62.91,1.07-26.22-.69-49.62-5-70.49-15.64-44.21-41.59-76.81-78.8-96.71A246.05,246.05,0,0,0,390.73,459a429.61,429.61,0,0,1-56.1,3.71A67,67,0,0,0,316,467.83c-11.17,5.12-23.09,8.72-35.13,9.51-8.89,8.57-20.29,16.37-32.55,23.9Z" transform="translate(-174.68 -167.61)"/><path class="cls-50" d="M293.81,480.28c-22.15,15.2-66.07,64.25-81.61,125.22-2.37,9.3,3.13,17.59,15.14,20.87,8.94,2.44,25.4-5.36,42.08-16.63,70-47.27,93.8-52.93,129.24-64.93,11.83-4,17.35-11.8,11.76-17.57-18.46-19.07-93.14-63.06-116.61-47Z" transform="translate(-174.68 -167.61)"/><path class="cls-51" d="M298.17,474.38c-42.31,16.6-99.5,123.2-104,177.08q.41,7,.3,14.41c1.55,5.24,3.25,10.35,5.2,15.26,3.05,6.18,7.09,11.58,11.34,12,24.4,2.21,69.56,3.77,90.13,1,15.63-2.11,70.42-28,98.58-47.91,23.58-16.72,47.72-89.2,38-101.16-30.74-37.94-103.8-72.8-129-72.83a25.28,25.28,0,0,0-5.13.54c-1.82.6-3.65,1.16-5.49,1.66Z" transform="translate(-174.68 -167.61)"/><path class="cls-52" d="M248.34,501.24q-14.81,19.46-33,31.29a28.61,28.61,0,0,0-9.88,10.53A253.87,253.87,0,0,0,185,591.76a26.77,26.77,0,0,0,.75,18.7c6.43,15.91,9.07,34.59,8.79,55.41A144.82,144.82,0,0,0,204.65,692c31,37.24,62.3,63.32,98.15,78.07a265.3,265.3,0,0,1,42.7,6,94.14,94.14,0,0,0,24.3-6c33.84-28.78,67.52-47.53,110.43-70.39,10-17.59,18.23-38.7,24.78-62.91,1.07-26.22-.69-49.62-5-70.49-15.64-44.21-41.59-76.81-78.8-96.71A246.05,246.05,0,0,0,390.73,459a429.61,429.61,0,0,1-56.1,3.71A67,67,0,0,0,316,467.83c-11.17,5.12-23.09,8.72-35.13,9.51-8.89,8.57-20.29,16.37-32.55,23.9Z" transform="translate(-174.68 -167.61)"/></g></g></svg>