<svg xmlns="http://www.w3.org/2000/svg" xmlns:xlink="http://www.w3.org/1999/xlink" viewBox="0 0 658.51 622.36"><defs><style>.cls-1{isolation:isolate;}.cls-10,.cls-11,.cls-12,.cls-13,.cls-14,.cls-15,.cls-16,.cls-17,.cls-18,.cls-19,.cls-2,.cls-20,.cls-21,.cls-22,.cls-23,.cls-24,.cls-25,.cls-26,.cls-27,.cls-28,.cls-29,.cls-3,.cls-30,.cls-31,.cls-32,.cls-33,.cls-34,.cls-35,.cls-4,.cls-5,.cls-6,.cls-7,.cls-8,.cls-9{fill-rule:evenodd;}.cls-2{fill:url(#radial-gradient);}.cls-12,.cls-16,.cls-17,.cls-19,.cls-23,.cls-25,.cls-27,.cls-29,.cls-3,.cls-31,.cls-33,.cls-35,.cls-7{mix-blend-mode:multiply;}.cls-3{fill:url(#New_Gradient_Swatch_76);}.cls-4{fill:url(#radial-gradient-2);}.cls-20,.cls-21,.cls-5,.cls-6,.cls-9{mix-blend-mode:screen;}.cls-5{fill:url(#radial-gradient-3);}.cls-6{fill:url(#radial-gradient-4);}.cls-7{fill:url(#radial-gradient-5);}.cls-8{fill:url(#New_Gradient_Swatch_22);}.cls-9{fill:url(#radial-gradient-6);}.cls-10{fill:url(#radial-gradient-7);}.cls-11{fill:url(#radial-gradient-8);}.cls-12{opacity:0.5;fill:url(#radial-gradient-9);}.cls-13{fill:url(#radial-gradient-10);}.cls-14{fill:url(#New_Gradient_Swatch_3);}.cls-15{fill:url(#radial-gradient-11);}.cls-16{fill:url(#radial-gradient-12);}.cls-17{fill:url(#radial-gradient-13);}.cls-18{fill:url(#radial-gradient-14);}.cls-19{fill:url(#radial-gradient-15);}.cls-20{fill:url(#radial-gradient-16);}.cls-21{fill:url(#radial-gradient-17);}.cls-22{fill:url(#radial-gradient-18);}.cls-23{fill:url(#New_Gradient_Swatch_76-2);}.cls-24{fill:url(#radial-gradient-19);}.cls-25{fill:url(#New_Gradient_Swatch_76-3);}.cls-26{fill:url(#radial-gradient-20);}.cls-27{fill:url(#New_Gradient_Swatch_76-4);}.cls-28{fill:url(#radial-gradient-21);}.cls-29{fill:url(#New_Gradient_Swatch_76-5);}.cls-30{fill:url(#radial-gradient-22);}.cls-31{fill:url(#New_Gradient_Swatch_76-6);}.cls-32{fill:url(#radial-gradient-23);}.cls-33{fill:url(#New_Gradient_Swatch_76-7);}.cls-34{fill:url(#radial-gradient-24);}.cls-35{fill:url(#New_Gradient_Swatch_76-8);}</style><radialGradient id="radial-gradient" cx="323.58" cy="389.21" r="188.35" gradientTransform="matrix(1, -0.08, 0.08, 1, -34.03, 36.52)" gradientUnits="userSpaceOnUse"><stop offset="0" stop-color="#9ecfff"/><stop offset="0.17" stop-color="#bcdeff"/><stop offset="0.39" stop-color="#d9ecff"/><stop offset="0.6" stop-color="#eef7ff"/><stop offset="0.8" stop-color="#fbfdff"/><stop offset="1" stop-color="#fff"/></radialGradient><radialGradient id="New_Gradient_Swatch_76" cx="320.48" cy="438.28" r="202.77" gradientTransform="matrix(1, -0.08, 0.08, 1, -34.03, 36.52)" gradientUnits="userSpaceOnUse"><stop offset="0" stop-color="#aac2e6"/><stop offset="1" stop-color="#fff"/></radialGradient><radialGradient id="radial-gradient-2" cx="428.59" cy="390.04" r="481.83" gradientUnits="userSpaceOnUse"><stop offset="0" stop-color="#009ced"/><stop offset="0.92" stop-color="#4e3bf5"/></radialGradient><radialGradient id="radial-gradient-3" cx="527.44" cy="548.66" r="334.07" gradientUnits="userSpaceOnUse"><stop offset="0.04"/><stop offset="0.84"/><stop offset="0.85" stop-color="#0d1516"/><stop offset="0.9" stop-color="#3e6268"/><stop offset="0.93" stop-color="#659fa9"/><stop offset="0.96" stop-color="#81cbd7"/><stop offset="0.99" stop-color="#93e6f4"/><stop offset="1" stop-color="#99f0ff"/></radialGradient><radialGradient id="radial-gradient-4" cx="372.5" cy="310.01" r="487.74" gradientUnits="userSpaceOnUse"><stop offset="0" stop-color="#1fceff"/><stop offset="1"/></radialGradient><radialGradient id="radial-gradient-5" cx="430.89" cy="411.96" r="458.17" gradientUnits="userSpaceOnUse"><stop offset="0.56" stop-color="#f5f5ff"/><stop offset="0.64" stop-color="#f0eafa"/><stop offset="0.79" stop-color="#e1cced"/><stop offset="0.99" stop-color="#ca9dd9"/><stop offset="1" stop-color="#c899d7"/></radialGradient><radialGradient id="New_Gradient_Swatch_22" cx="425.48" cy="440.32" r="318.76" gradientUnits="userSpaceOnUse"><stop offset="0" stop-color="#91eb00"/><stop offset="1" stop-color="#05a100"/></radialGradient><radialGradient id="radial-gradient-6" cx="475.27" cy="374.62" r="338" gradientUnits="userSpaceOnUse"><stop offset="0" stop-color="#8fe561"/><stop offset="1"/></radialGradient><radialGradient id="radial-gradient-7" cx="458.87" cy="341.94" r="398.97" gradientUnits="userSpaceOnUse"><stop offset="0" stop-color="#94ffe1"/><stop offset="0.18" stop-color="#88f9dd"/><stop offset="0.51" stop-color="#67e9d1"/><stop offset="0.95" stop-color="#33cebd"/><stop offset="1" stop-color="#2dcbbb"/></radialGradient><radialGradient id="radial-gradient-8" cx="333.11" cy="479.64" r="268.64" gradientUnits="userSpaceOnUse"><stop offset="0" stop-color="#dede00"/><stop offset="0.15" stop-color="#d2d200"/><stop offset="0.42" stop-color="#b2b200"/><stop offset="0.47" stop-color="#abab00"/><stop offset="0.51" stop-color="#a5a500"/><stop offset="0.77" stop-color="#7d7d00"/><stop offset="0.91" stop-color="#6e6e00"/></radialGradient><radialGradient id="radial-gradient-9" cx="398.45" cy="535.32" r="121.16" gradientUnits="userSpaceOnUse"><stop offset="0" stop-color="#fff"/><stop offset="1" stop-color="#093"/></radialGradient><radialGradient id="radial-gradient-10" cx="617.8" cy="438.65" r="249.55" gradientUnits="userSpaceOnUse"><stop offset="0" stop-color="#f0ab54"/><stop offset="1" stop-color="#b87126"/></radialGradient><radialGradient id="New_Gradient_Swatch_3" cx="535.55" cy="527.65" r="261.03" gradientUnits="userSpaceOnUse"><stop offset="0" stop-color="#78e05b"/><stop offset="1" stop-color="#0d9c00"/></radialGradient><radialGradient id="radial-gradient-11" cx="338.09" cy="265.85" r="294.45" gradientUnits="userSpaceOnUse"><stop offset="0" stop-color="#fff"/><stop offset="0.17" stop-color="#f9fcff"/><stop offset="0.4" stop-color="#e9f4ff"/><stop offset="0.66" stop-color="#cde6ff"/><stop offset="0.94" stop-color="#a8d4ff"/><stop offset="1" stop-color="#9ecfff"/></radialGradient><radialGradient id="radial-gradient-12" cx="681.47" cy="369.42" r="151.86" gradientUnits="userSpaceOnUse"><stop offset="0" stop-color="#fff"/><stop offset="1" stop-color="#848431"/></radialGradient><radialGradient id="radial-gradient-13" cx="269.05" cy="530.22" r="257.7" xlink:href="#radial-gradient-9"/><radialGradient id="radial-gradient-14" cx="339.29" cy="648.04" r="162.94" xlink:href="#radial-gradient-10"/><radialGradient id="radial-gradient-15" cx="337" cy="650.61" r="157.73" xlink:href="#radial-gradient-12"/><radialGradient id="radial-gradient-16" cx="450.08" cy="350.91" r="195.13" gradientUnits="userSpaceOnUse"><stop offset="0" stop-color="#f2f6ff"/><stop offset="1"/></radialGradient><radialGradient id="radial-gradient-17" cx="332.23" cy="457.48" r="169.06" gradientUnits="userSpaceOnUse"><stop offset="0" stop-color="#c5c55c"/><stop offset="1" stop-color="#000a00"/></radialGradient><radialGradient id="radial-gradient-18" cx="479.84" cy="237.53" r="84.07" gradientTransform="matrix(0.96, -0.27, 0.27, 0.96, -101.77, 141.83)" xlink:href="#radial-gradient"/><radialGradient id="New_Gradient_Swatch_76-2" cx="488.93" cy="289.46" r="119.68" gradientTransform="matrix(0.96, -0.27, 0.27, 0.96, -101.77, 141.83)" xlink:href="#New_Gradient_Swatch_76"/><radialGradient id="radial-gradient-19" cx="501.35" cy="646.05" r="299.84" gradientTransform="translate(205.27 -129.35) rotate(21.04)" xlink:href="#radial-gradient"/><radialGradient id="New_Gradient_Swatch_76-3" cx="521.75" cy="734.83" r="261.84" gradientTransform="translate(205.27 -129.35) rotate(21.04)" xlink:href="#New_Gradient_Swatch_76"/><radialGradient id="radial-gradient-20" cx="273.02" cy="564.87" r="152.64" gradientTransform="translate(-36.58 36.95) rotate(-4.66)" xlink:href="#radial-gradient"/><radialGradient id="New_Gradient_Swatch_76-4" cx="264.38" cy="590.15" r="170.48" gradientTransform="translate(-36.58 36.95) rotate(-4.66)" xlink:href="#New_Gradient_Swatch_76"/><radialGradient id="radial-gradient-21" cx="468.37" cy="412.38" r="212.32" gradientTransform="matrix(0.99, 0.15, -0.15, 0.99, 74.83, -66.33)" xlink:href="#radial-gradient"/><radialGradient id="New_Gradient_Swatch_76-5" cx="490.85" cy="445.14" r="218.25" gradientTransform="matrix(0.99, 0.15, -0.15, 0.99, 74.83, -66.33)" xlink:href="#New_Gradient_Swatch_76"/><radialGradient id="radial-gradient-22" cx="634.34" cy="497.39" r="233.15" gradientTransform="matrix(1, 0, 0, 1, 0, 0)" xlink:href="#radial-gradient"/><radialGradient id="New_Gradient_Swatch_76-6" cx="703.88" cy="534.15" r="321.49" gradientTransform="matrix(1, 0, 0, 1, 0, 0)" xlink:href="#New_Gradient_Swatch_76"/><radialGradient id="radial-gradient-23" cx="777.39" cy="456.84" r="90.09" gradientTransform="matrix(1, 0.06, -0.06, 1, 41.48, -28.81)" xlink:href="#radial-gradient"/><radialGradient id="New_Gradient_Swatch_76-7" cx="765.15" cy="482.99" r="92.63" gradientTransform="matrix(1, 0.06, -0.06, 1, 41.48, -28.81)" xlink:href="#New_Gradient_Swatch_76"/><radialGradient id="radial-gradient-24" cx="604.19" cy="728.11" r="303.5" gradientTransform="matrix(1, 0, 0, 1, 0, 0)" xlink:href="#radial-gradient"/><radialGradient id="New_Gradient_Swatch_76-8" cx="633.41" cy="749.47" r="210.84" gradientTransform="matrix(1, 0, 0, 1, 0, 0)" xlink:href="#New_Gradient_Swatch_76"/></defs><title>Untitled-1</title><g class="cls-1"><g id="Layer_1" data-name="Layer 1"><path class="cls-2" d="M335.18,260a38.91,38.91,0,0,0-13.79,11.87c1.61-6.06.69-14.9-10.59-16.18-31.62-3.58-49.73,36.79-56.65,58.7-13-7.26-34.25-4.71-47,12.44-18.86,25.38-14.29,61.35-4.24,90.06-7.66-.69-13.08,3.44-16.14,10.5-11.19,25.84,6.72,67.82,23.42,74.05,27.5,10.26,155.38-192.94,157.65-227.19,1.34-20.16-18.78-21.24-32.66-14.25Z" transform="translate(-183.29 -196.1)"/><path class="cls-3" d="M205.43,422.28c-24.34-6.4-18.58,51.87-3.87,73a24.14,24.14,0,0,0,8.63,6.18c23.17,8.64,117.6-134.25,148.12-199.94,8.77-35.5-13.36-55.37-42.9-16.76,1.87-7.71-1.26-17.45-4.9-19.37-21.91-11.49-47.81,35.8-62.63,74.21,1.33-6.77,2.49-11.65,4-17.38-57.3-3.57-50.21,71.12-42.64,109.27l-3.84-9.17Z" transform="translate(-183.29 -196.1)"/><path class="cls-4" d="M502.16,224.2c164,0,296.87,132.91,296.87,296.88S666.12,818,502.16,818,205.28,685,205.28,521.08,338.19,224.2,502.16,224.2Z" transform="translate(-183.29 -196.1)"/><path class="cls-5" d="M502.16,224.2c164,0,296.87,132.91,296.87,296.88S666.12,818,502.16,818,205.28,685,205.28,521.08,338.19,224.2,502.16,224.2Z" transform="translate(-183.29 -196.1)"/><path class="cls-6" d="M496,709.33c-4.51,1-8-.46-10.43,2.5-3.35,4.1-3.1,9.65,7.33,9.19,4.93-.21.82,8.11,5,9.6,10.86,3.85,21.15,2.13,28.52-6.29,2.57-2.94,4-4.05,10.55-5.68,5.13-1.26-5.46-4.89,9.85-8,16.81-3.44,4.61-5.48,15.93-15.14,3.32-2.84-8.08-10.56,7-15,11.91-3.54,11.35-2.59,13.08-14.3.93-6.23-1.68-5.66-7.76-6.48-8.46-1.15-8.4,12.09-19,14.85-6.46,1.68-17.63,7-16.49,14.8,1.34,9.2-9.36,16.63-9.61.72-.2-12.14-7.68-11.8-10.42-5.61-1.35,3.06-2,7.41-3.24,10.15-2.74,6-7.53,6.8-10.41,9.72-2.67,2.72-3.83,3.71-9.87,5ZM431.8,251.2a23.25,23.25,0,0,0,3.47-.72c2.38-.61,4.67-1.67,7.11-2,8.85-1.16,17.74-2.38,26.67-2.42,2,0,3.59,1.88,5.55,2.3a34.65,34.65,0,0,0,8.2.6c3.56-.12,7.07-1.56,10.62-1.21a110.45,110.45,0,0,1,22.43,4.46c6.38,2,12,6.09,18.22,8.45,4.12,1.55,8.75,1.52,12.79,3.26,4.38,1.88,8.78,4.14,12.18,7.48s4.88,7.82,7.36,11.7a2,2,0,0,0,.36.36c3,2.62,5.93,5.47,9.17,7.84s7.26,4,10.5,6.52a47.52,47.52,0,0,1,8.08,8.08,57.71,57.71,0,0,1,7.36,11.7c3.25,7.24,5.36,14.95,8,22.44,3.91,11.24,9.55,22.05,11.59,33.78a107.57,107.57,0,0,1,.48,35.71c-4,24.4-8.39,49.26-18.34,71.9-2.91,6.62-13.48,6.23-18.34,11.58s-5.74,13.82-10.13,19.79c-2.06,2.8-6.83,2.85-8.69,5.79-7.67,12.17-12.11,26.14-19.3,38.6-3.15,5.47-6.66,11-11.58,15-8.33,6.68-18.79,10.25-27.51,16.41-4.55,3.22-7.13,9-12.06,11.58-12.39,6.55-26.17,10-39.09,15.44-1.5.63-2.65,1.92-4.1,2.66-7,3.53-14.05,7-21.23,10.13-5.3,2.32-10.42,5.7-16.17,6.28-4.31.43-8.25-2.83-12.55-3.38a37.89,37.89,0,0,0-10.13.48c-3.92.57-8,1-11.58,2.65-5.11,2.3-8.87,7.32-14.23,8.93-2.71.82-6-.42-8.21-2.17-2.61-2-2.65-6.44-5.31-8.44-2-1.53-5-.67-7.48-1.21-5.66-1.23-12-1-16.89-4.1-3.64-2.34-4.78-7.25-6.75-11.1-1.34-2.61-.66-6.65-3.14-8.21s-6.11.68-9.17.49c-2.14-.14-5.41.52-6.27-1.45-1.3-3,2.55-6.59,1.45-9.65-.71-2-3.71-2.59-5.79-2.41-3,.25-5.22,3.79-8.21,3.61s-5.45-2.63-7.72-4.58a60.12,60.12,0,0,1-9.53-10.25,9.12,9.12,0,0,1-1.57-5.07c0-1.94,1.92-3.82,1.33-5.67s-3.44-1.75-4.22-3.38.86-3.42.24-5c-.29-.7-1.55.07-2.29-.12-4-1-8.28-1.42-11.83-3.49a5.3,5.3,0,0,1-2.17-4.71c.15-2.22,3.26-3.83,2.9-6s-2.84-3.1-4.59-4.22c-1.37-.89-3.11-1-4.58-1.69-.15-.07,0-.33,0-.49a16.1,16.1,0,0,1,1-4.22c.86-1.65,2.63-2.7,3.5-4.34a12.43,12.43,0,0,0,1.57-5.19c.05-.93-.32-2.23-1.21-2.53-2.79-.94-5.94-.15-8.8-.85a6.78,6.78,0,0,1-3.62-2.17,8,8,0,0,1-2.17-4.82c0-6.88,2.11-13.64,2.17-20.51a28,28,0,0,0-1.93-9.17c-1.25-3.61-4-6.65-4.83-10.38-.62-2.92,0-6,.73-8.92.79-3.07,2.66-5.76,3.86-8.69,1.13-2.78,2.58-5.49,3.13-8.44s.28-6.28.24-9.41c0-4.91-1.09-9.85-.48-14.72a42.47,42.47,0,0,1,4.1-14c2.12-4.12,5.89-7.16,8.69-10.85a33.37,33.37,0,0,0,3.38-5.07,70.21,70.21,0,0,0,3.38-8.45c1.34-3.89,2-8,3.62-11.82,2.35-5.56,4.5-11.39,8.2-16.16,2.57-3.32,7.1-4.58,10.13-7.48,2.65-2.54,4.6-5.73,6.76-8.69,2.59-3.55,4.3-7.82,7.48-10.86,2.21-2.11,6-2,8.2-4.1s2.34-6.17,4.59-8.44c4.31-4.38,10.35-6.78,14.71-11.1,2.89-2.86,4.6-6.7,6.76-10.14,2.34-3.72,3.72-8.15,6.76-11.34,2.13-2.24,5.28-3.32,8.2-4.34,4.93-1.73,10.28-2.11,15.2-3.86,2.14-.76,3.87-2.4,5.79-3.62,5.07-3.21,10.28-6.21,15.2-9.65,3.38-2.36,6.12-5.6,9.65-7.72a54.67,54.67,0,0,1,11.22-4.83c1.81-.59,3.85-.16,5.67-.72,2-.62,3.66-2.16,5.67-2.78a65.56,65.56,0,0,1,10.38-2.17c2.6-.35,5.25-.06,7.87-.3ZM594,273c-2.55,0-2.06-.13-4.27.74-.32,4.08-1.48,2.74.77,6.56,4.05,6.86-4.62,7.15,1.3,15.14,1.62,2.18,9.06-1.32,9.25,3.17.14,3.31,7.91-1.45,11.14,8.59.33,1,2.14,2.47,3,6.12,2.49,10.51-6.5,3-4.27,11.3.79,2.92,5,1.22,5.32,6.17,0,.44,5.77,4.56,6.53,8,1.51,6.82,8.81,5.94,8.68-3.27,0-3.29,1.41-6.52-.08-11.09-1.73-5.31-2.07-15-6.93-19.16-1.51-1.29-6.86-2.75-6.86-4.82,0-12.9-7.51-6-8.32-15.71-.27-3.26-7.77-3.07-8.1-6.87-.19-2.22-3.7-4.83-6.42-4.83ZM583.77,527.75c-12.64-1.82-4.67,11.8-12.95,18.13-2.67,2-3.9,10.41-6.53,12.08-3.06,2-2.7,13.91,10.43,5.31,8-5.26-.17-6.35,18.41-5.51,9,.4,13.8-6.79,9.49-14.49-4.45-7.91,8-5.42,2.65-15.58-4.07-7.71,6.46-4.13,11.09-19.44,3.49-11.54-5.47-1.15-4.23-14.6.35-3.82-5.65-2-8.74,1.29-10.07,10.74-7.2,3.4-7.44,20-.06,4-5.27,4.82-9.23,8.14-3.36,2.82-1.33,4.89-3,4.66Zm-55.42,76c-14.49-3-15.73,7.67-19.6,10.61-.86.65-.39,5.12-6.46,6.56-3.25.77-10.29,6.19-18.21,6-2.75-.07-21.34,14.81-1.19,14.26,9.91-.28,20.82-10.57,35.41-10.16,5.76.16,17.34-4.45,19.76-10.88,2.6-6.91,14.26-2,12.59-15.66-.57-4.62,4.78-3.36,4.6-10.77,0-2.21.57-7.33-.19-11.05-1.43-7-7.15-6.19-9,2.88-.65,3.24-2,7-6.23,9.77-6,3.84-6.91-.93-9.75,7.79-.3.92-.91.83-1.77.66Zm37.53-129.62c-7.49,1.83-1.74,13.36-8.5,18.1-2.63,1.84,3.79,7-6.36,13.69-4.33,2.85-4.45,14.71-17.43,21.55-4.83,2.54-8.06,5.92-14.14,6.4-6.33.5-4.45,4.37-12.08,5.31-1.07.13-16.09,9.55-16.45,6.09-1-.21-.44-7.24,6-8.46a63.38,63.38,0,0,1,7.82-4.29c14.72-5.29,12.61-17.11,14.9-17.67,4.75-1.16,9.65-12.42,13.82-13.27,2.28-.47,5.81-7.66,3.72-12.2-1.76-3.84,5.13-12.13,10.23-12.17,12-.1.26-10.44,13.13-13.07,3.54-.72,3.53-5.16,5.77-5.83,11.23-3.37,9.88-36.17,17.11-31.51.12.07,9.26,24,2.92,26.92-12.13,5.5,3.79,12.59-8.69,19.48-3.95,2.19-7.83,0-11.76.93Z" transform="translate(-183.29 -196.1)"/><path class="cls-7" d="M594.92,712.6c-15.61.35-13.27-8.29-26.72,6.15-4.2,4.51-8.87,9.8-10.92,11.7a50.24,50.24,0,0,1-9.16,7.24c-3.45,2-7.83,2.1-11.1,4.34-3,2.06-3.9,6.75-7.24,8.21-9.61,4.19-20.76-5.37-29.92-6.28-19-1.87-33,12.86-44.4,15.93-3.2.86-6.51-3.49-9.65-2.41-3.87,1.32-4.74,7.57-8.68,8.68-3.43,1-7.56-.92-10.14-3.38-6.86-6.52-8.61-19.56-19.78-25.09-14.82-7.34-54.62-17.57-64.18-25.58-6.84-5.72-8.48-16.06-15-22.19-3.18-3-9.11-1.16-12.55-3.86-5.22-4.09,2.66-12.37-16.65-11.6S267,689.91,273.06,643.11c.58-4.57,3.23-15.92-5.31-10.13-5.95,4-13.23,16.21-24.13,13-3.52-1-5.19-6-5.31-9.65-.22-6.9,2.53-13.6,4.34-20.26,2.7-9.92,6.84-19.43,9.17-29.44,2.24-9.59-3.9-10.84-8.68-5.79-5.18,5.46-8.83,12.53-15,16.89-6.86,4.87-10.62-9.35-9.65-15,1.08-6.31,4.83-11.93,8.2-17.37,1.6-2.59,2-4.75-1.51-3.5-3.1,1.1-7.35,3-11,4-1.56.42-3.43-.37-2.41-2.9,3.79-9.34,8.55-18.85,9.17-29,.25-4-5.56-6.25-6.76-10.13-.85-2.79,1.46-5.82,1-8.69-.36-2.07-3.38-3.21-3.38-5.31,0-5.74,2.48-11.22,3.38-16.89.63-4,1.51-8,1.21-12.06-.45-5.94-5.51-4.28-6.48-12.28a299.37,299.37,0,0,0-4.6,52.39C205.28,685,338.19,818,502.16,818S799,685,799,521.08c0-125.3-77.61-232.46-187.39-276,1,.5,1.89,1,2.83,1.52,14.79,8.15,8.77,11.54,10.86,14.24,1.62,2.1,4.25,3.2,6.51,4.58,6,3.69,12.67,6.41,18.34,10.62,2,1.45,2.78,4,4.1,6,2.22,3.43,3.77,7.35,6.51,10.38,2,2.15,6,2.21,7.24,4.82,1.47,3,.65,5.8,2.9,8.33,3.16,3.56,11.29.92,16.4,12.42,1.58,3.55-1.49,14.62,1.45,21.24,2.4,5.38,6.26,10,10.14,14.47,5.17,5.91,12.89,9.65,16.89,16.41,3.08,5.21,6.18,11.57,6.51,17.61a15.92,15.92,0,0,1-1.93,8.21c-1.5,2.82-5.94,4.06-6.27,7.24-1.63,15.25,26,50.29,32.09,69.72a166.64,166.64,0,0,1,7.72,50.67c0,4.35-5.29,13.36-8.21,10.14-6.74-7.44-1.15-29.62-9.65-41.26-8.69-11.91-11,10.78-10.61,14.72,2.33,22.18,15.3,26.2,4.34,48.74-1,2.07-7.17,6.93-9.17,5.79-2.75-1.58-1.55-6.52-3.86-8.69-1-.94-3,.35-3.86,1.45-2.87,3.78-6.38,7.81-6.76,12.54-.63,8,3.52,15.67,3.87,23.65.14,3.51-1.4,6.89-2.42,10.26a60.62,60.62,0,0,1-3.62,9.65c-1.29,2.59-3.69,4.56-4.82,7.23-1.32,3.13-1.38,6.66-2.42,9.9-.9,2.81-1.67,5.78-3.37,8.2-2,2.84-5.79,4.21-7.48,7.24-1.9,3.41-.78,8.06-2.9,11.34-1.53,2.36-5.74,2-7.24,4.34-2.07,3.29-.26,8.29-2.65,11.34-1.45,1.86-5.51-.85-7,1-2.42,2.95-.58,8-2.89,11.1-1.47,1.92-4.66,2.55-7,1.93-1.75-.47-1.52-3.42-2.9-4.59-7.86-6.71-7.91-.82-10.37,1.93-2.19,2.45-4.87,2-7,1-4.46-2.14-5.46-11.46-7-15.2-1.26-3.06-6.8-1-8.69,3.13-1.73,3.81-1,8.39-2.41,12.31-.48,1.28-2.72,1.35-3.14,2.65-2.86,8.9,1.2,17.88-10.62,24.85a19,19,0,0,1-9.17,2.42Z" transform="translate(-183.29 -196.1)"/><path class="cls-8" d="M206.22,467.58c-3.11,8.47-10,23.13-10.13,25.09s3.67,11.77,3.86,17.86c.14,4.6-3.4,12-2.9,13.51,5.45,16.84,7.85,34.57,10.14,52.12.62,4.8-2,12.87-1.45,14.47.94,2.78,10.16,20.91,14,31.85,1.67,4.77-.19,10.63,2.41,15,10.78,18,12.81,35.09,19.3,52.6.75,2,11.56,8,16.89,12.55,15.87,13.6,17.48,20.47,28,31.85a168,168,0,0,0,24.37,22.19c6,4.34,13.54,6,19.78,9.9,4.45,2.79,7.52,7.5,12.07,10.13,8.5,4.91,17.67,8.63,26.78,12.31,3.78,1.52,7.86,2.18,11.78,3.27a17.78,17.78,0,0,1-6.51-4.48c-.7-.82-.2-2.26-.84-3.13s-2.44-1-3-2,.73-2.21.24-3.14c-.61-1.17-2.07-1.64-3.13-2.41s-2.51-.95-3-2c-.39-.85.94-1.73.85-2.66a4.83,4.83,0,0,0-1.45-3.13c-1.74-1.49-4.46-1.6-6-3.26a3.37,3.37,0,0,1-.49-3.62c.78-1.42,3.4-1.27,4-2.78.49-1.24-.53-2.76-1.44-3.74s-2.55-1.1-3.74-1.8-3.26-1-3.26-2.3c0-1.09,2.19-.6,3.26-.36,2.43.55,4.51,2.42,7,2.66,1.54.14,2.87-1.16,4.35-1.57s3.15-1.34,4.7-1c1.89.45,3.08,2.41,4.83,3.26a7.69,7.69,0,0,0,2.41.24c3.18.39,6.33,1.35,9.53,1.21,1.46-.07,3.31-.52,4-1.81a5.11,5.11,0,0,0-.48-5,5.69,5.69,0,0,0-4.58-2.17c-2.06,0-3.69,1.89-5.67,2.41a7.71,7.71,0,0,1-4.35.24c-2.59-.87-4.53-3.2-7.12-4.1-1.82-.63-4.28.85-5.79-.36-4.95-4-7.95-10-12.54-14.36a5,5,0,0,0-4-1.44c-2.94.49-5.33,2.75-8.21,3.49-1,.26-2-.58-3-.6-1.78,0-3.58.87-5.31.48a7.42,7.42,0,0,1-4.34-2.65c-.85-1.15-.28-2.87-.73-4.22s-.64-2.9-1.81-3.5c-3.38-1.75-7.57-1.44-11-3.14-.86-.43-.19-2.05-.84-2.77-1.65-1.83-4.09-2.81-5.79-4.59-.37-.37-.61-1.77-.12-1.57,1.8.76,2.94,2.66,4.7,3.5,1,.49,2.36-.13,3.38.37,1.33.64,1.94,2.53,3.38,2.89,2.19.55,4.52-.65,6.75-.36,2.54.32,4.81,2,7.36,2.17.87.07,2.13-.58,2.17-1.45.15-3-2.29-5.88-1.68-8.8a4.07,4.07,0,0,1,4.1-2.9c2.08.31,2.63,3.85,4.7,4.22,2.87.52,5.65-1.72,8.57-1.81,2.29-.07,4.57,2,6.75,1.33,1.2-.39-.48-3.1.61-3.74s2.25,1.37,3.5,1.33,1.88-1.55,3-1.57,2.24,1.37,3.5,1.45a17.86,17.86,0,0,0,5.79-.85,7.82,7.82,0,0,0,3.86-1.81,8.12,8.12,0,0,0,1.93-4.46,4.63,4.63,0,0,0-1-3.26c-1.39-1.77-4-2.5-5.07-4.46-.51-.91,1.07-2,.84-3-.45-2.05-2.39-3.6-2.77-5.67-.18-1,1.31-1.77,1.21-2.77-.16-1.47-1.9-2.51-1.93-4,0-.71,1.94-.4,1.81-1.09-.46-2.35-2.65-4.08-3.26-6.39a2.22,2.22,0,0,1,1-2.3c1.25-.66,3-1.17,4.23-.48,3.25,1.82,5.21,5.42,8.32,7.48a14.16,14.16,0,0,0,6.39,2.29c1.36.13,3.26-.11,3.86-1.32s-1.46-2.62-1.2-4c.21-1.15,2.26-1.38,2.41-2.54.12-.9-2.45-1.4-1.81-2.05.86-.85,2.48.63,3.62.24,2.17-.74,3.69-3,5.91-3.5,1-.23,1.62,1.12,2.53,1.45,1.8.65,3.65,1.61,5.55,1.45,1.6-.14,2.72-1.76,4.23-2.29s3.46.23,4.58-.85.13-2.92.72-4.22c.35-.75,1.28-2.08,1.93-1.57,1,.79,1,2.47.85,3.74-.14,1.53-1.41,2.81-1.57,4.34-.06.55.95.79,1,1.33,0,1.16-1.35,2.33-.85,3.38a8.62,8.62,0,0,0,4.59,4.46,10.35,10.35,0,0,0,6.75-.48c2.14-.78,4.46-2,5.55-4,.85-1.56-1.55-3.89-.48-5.31.92-1.22,3.18.48,4.58-.12s3.38-1.74,3.62-3.38c.3-2-2.33-3.55-2.29-5.55,0-2.4.71-5.18,2.53-6.75,2.92-2.52,7.38-2.5,10.62-4.59.61-.39.26-1.55-.12-2.17s-1.57-.67-2.05-1.33a23.4,23.4,0,0,1-3.62-6.51,2.44,2.44,0,0,1,.72-2.65c1.06-.66,2.66.49,3.74-.12s.78-2.47,1.81-3c1.62-.86,3.84.06,5.43-.84a21.73,21.73,0,0,0,6.39-5.92c.49-.64.19-1.67-.12-2.41s-1.56-1.08-1.68-1.93c-.2-1.34-.18-3.08.84-4,1.71-1.51,4.69-.9,6.39-2.41,1.13-1,.22-3.22,1.21-4.35.74-.83,2.73.26,3.26-.72a15.69,15.69,0,0,0,1.93-8.81,3.89,3.89,0,0,0-3.14-3c-2.43-.37-4.87.78-7.24,1.44-.67.19-1.11,1-1.81,1.09-1.11.18-2.85.76-3.37-.24s1.31-1.93,1.68-3c.28-.8-.15-1.78.25-2.53,1.21-2.26,3.39-3.94,4.46-6.27.67-1.48,1.84-3.78.6-4.83-2.2-1.86-5.57-2-8.44-1.81-1.87.12-3.14,2.17-4.95,2.66-2.5.66-5.53-.65-7.72.72-1.5.93-.59,3.6-1.57,5.07-.51.76-1.89.42-2.53,1.08a4.63,4.63,0,0,0-1.21,2.78c-.17,2.17,2,4.94.48,6.51-1.32,1.39-4.1,0-5.67-1.08S440,592,438.54,591c-1.92-1.26-4.62-2.16-6.75-1.33-3,1.16-5,4.08-6.88,6.64-1.12,1.52-.1,4.86-1.93,5.31-2.58.63-4.84-3.82-7.36-3-3.28,1-5.3,4.6-7,7.6-.71,1.26,1.18,3.24.24,4.35s-3-.08-4.34.48-2.28,2.61-3.86,2.89c-1.29.23-2.31-1.68-3.62-1.56s-1.86,1.72-3,2.17c-2.55,1-5.45.93-8,2.05-1.22.54-1.65,2.27-2.89,2.77s-2.6-.62-3.74-.12c-1.62.71-2.23,3.71-4,3.5-4.11-.49-7.09-5.39-11.22-5.31-2.91.06-3.79,5.1-6.64,5.67-1.67.34-1.95-3.27-3.62-3.62-1.93-.4-3.76,1.21-5.67,1.69-2.77.7-7-.61-7.11-3-.28-4.61,5.76-13.77,15.2-16.77,4.71-1.51,10,1.06,14.83.12A12.4,12.4,0,0,0,378.7,597c1.06-1.42.47-3.68-.24-5.31-1-2.22-4-3.3-4.58-5.67-.37-1.59,1.59-2.86,2.29-4.34s.34-4.47,2.05-4.82,2.61,2.2,3.14,3.74c.27.8-.91,1.46-1.09,2.29-.31,1.5-1,3.21-.36,4.58.46.94,2,.81,3,.85,1.62,0,3.21-.77,4.82-.61,2.08.21,4,2.29,6,1.69a5.88,5.88,0,0,0,3.62-4.58c.4-2.41-1.69-4.68-1.69-7.12a41.46,41.46,0,0,1,1.69-13c.71-2.11,3.47-3,4.35-5.07,1.83-4.28,1.42-9.4,3.62-13.51a54,54,0,0,1,11.09-14c3.15-2.91,7.8-3.78,11.1-6.52,2.43-2,3.13-5.79,5.79-7.48,5-3.13,11.61-3.11,16.41-6.51,3.48-2.46,5.62-6.54,7.48-10.38,1.1-2.27,2.49-5.3,1.21-7.47-.88-1.48-3.71-.09-5.07,1-4.06,3.12-6.58,7.95-10.62,11.1-5.2,4.06-11.23,7-16.89,10.37-3.27,2-7,3.34-9.89,5.8-2.71,2.27-4.14,5.81-6.75,8.2-5.47,5-10.93,10.14-17.38,13.75-4.37,2.45-10.17,1.52-14.47,4.1-2.19,1.32-1.21,5.91-3.62,6.76-3,1.07-6.25-2.76-9.41-2.17-1.92.35-2.81,2.81-3.62,4.58-1.48,3.22-1,7.33-3.14,10.14-1.62,2.11-5.25,1.6-7.24,3.37-3.53,3.17-5.41,7.91-8.92,11.1-2.86,2.6-6.15,5.11-9.9,6a11.12,11.12,0,0,1-8.68-1.44c-2-1.42-1.78-4.68-3.14-6.76-1.88-2.87-3.37-6.6-6.51-8-1.95-.84-4.12,1.35-5.8,2.65-2.65,2.06-3.76,6.35-7,7.24-3.71,1-7.55-2.83-11.34-2.17-2.41.42-2.87,5-5.31,5.07-2.65.1-5.43-2.17-6.52-4.59-1-2.23,1.46-4.8,1.21-7.24s-3.17-4.39-2.65-6.75c1.13-5.13,5.3-9.12,7.24-14,.74-1.88,2.06-4.51.72-6-1.08-1.21-3,1.42-4.58,1.69-3.59.62-7.51,2.38-10.86,1a8.12,8.12,0,0,1-4.59-7.48c.19-2.25,4.45-1.9,5.55-3.86,1.27-2.27-.12-5.37,1-7.73a4.3,4.3,0,0,1,3.62-2.17c2.18,0,4.19,2.61,6.27,1.93,2.54-.83,3.06-4.83,5.55-5.79,3.15-1.21,7,1.06,10.13-.24,1.48-.61,1.6-3,1.45-4.58-.35-3.65-3.46-7-2.89-10.62.31-2,4-1.65,5.06-3.38s-.32-4.3.73-6a20,20,0,0,1,7-6.75c3.54-2.07,8.89-1,11.59-4.11,2.06-2.36-.28-6.31.24-9.41.61-3.71,1.3-7.56,3.13-10.86.69-1.22,3-.56,3.86-1.68,2.37-3.18,2.44-7.9,5.31-10.62,2-1.88,5.24-2.06,8-1.93,2.5.12,4.51,2.65,7,2.65,1.43,0,2-2.87,3.38-2.65,1.91.3,2.41,3.73,4.34,3.86,2.26.16,5.23-1,6-3.14,1.29-3.39-1-7.24-.72-10.85.06-.74,1-1.73,1.69-1.45,2.5,1,4.29,3.29,6.51,4.82,3,2.09,5.75,4.74,9.17,6,1.52.57,3.84.57,4.83-.73,2.91-3.84,3.29-9.14,5.79-13.27,1.89-3.12,4-6.48,7.24-8.2,4.06-2.17,9.72-.28,13.51-2.9,5.22-3.59,8.05-9.8,12.06-14.72,2.43-3,4.28-6.49,7.24-8.92,2.56-2.1,5.79-5.39,8.93-4.35,2.26.76-2.67,4-3.86,6-1.55,2.68-5.81,5.48-4.34,8.2,1.25,2.34,5.27-.9,7.72-1.93,2.2-.93,4.21-5.4,6-3.86s-1.31,4.74-2.9,6.51A56.43,56.43,0,0,1,427.32,424c-2,1.29-5,.59-6.75,2.18-1.92,1.73-1.55,5.16-3.38,7-4.27,4.27-10.18,6.63-14.48,10.86a8.87,8.87,0,0,0-2.89,6.27c0,1.08,2.08-.5,3.13-.72,2-.42,4-1.29,6-1.21s4,2.08,6,1.69c2.58-.49,4.12-4.21,6.75-4.1,1.48.06-.18,3.08-1,4.34-2,3.26-5.24,5.67-7.24,8.93-1.1,1.8-4,5.45-1.93,6,3.25.95,6.68-1.84,9.41-3.86,4.8-3.55,7.65-9.49,12.79-12.54,2.7-1.61-3.81,5.08-5.07,8-.48,1.1-.83,2.74,0,3.62s2.47.61,3.62.24c3.14-1,6.84-1.78,8.93-4.34,4.15-5.11,5.11-12.25,8.92-17.62.81-1.13,4.36-2.09,4.1-.72-1.08,5.77-5.69,10.44-7,16.16-.26,1.14,1.86,2.47,2.89,1.94a58.38,58.38,0,0,0,15-11.1c4.57-4.68,7.29-10.89,11.46-15.93a32.59,32.59,0,0,1,7.24-6.63c1.06-.69,2.58,0,3.74-.49,2.24-.91,3.89-3.25,6.27-3.61,2.59-.41,5.16,2,7.73,1.44a12.13,12.13,0,0,0,6.75-4.34c1.25-1.55.15-4.29,1.45-5.79,2.6-3,7.21-3.86,9.65-7,.75-1-.57-2.76-1.69-3.26a18.79,18.79,0,0,0-9.53-1.68c-2.08.23-3.3,2.77-5.31,3.37-1.61.49-3.63-1.13-5.06-.24-4.18,2.61-6.51,7.63-10.74,10.14-1,.57-2.26-1.19-2.53-2.3a14.29,14.29,0,0,1,.12-7.23,27.83,27.83,0,0,1,4.16-8.51,10.53,10.53,0,0,1,4.34-3.74,75.3,75.3,0,0,1,17.37-5.55,16.65,16.65,0,0,1,8.81,1.33c.17.07.73,6,4.82,4.46,1.83-.68,1.85-3.48,3.14-4.94s3.56-1.71,4.22-3.38a11,11,0,0,0-.12-7c-.14-.5-2-1.06-3.16-1.27-3.15-.54-5.82,2.14-7.33,2.48a2.85,2.85,0,0,1-2.78-1.09c-.35-.54.41-1.35,1-1.69,1.06-.64,10.42-3.41,12.54-4.22,5.45-2.08,10.6-5.11,16.29-6.39,2.05-.47,4.08,1.64,6.15,1.32,1.91-.29,3.05-2.67,5-3a3.06,3.06,0,0,1,3,1.57c1.12,2.19-.28,5.49,1.45,7.23,3.83,3.86,9.87,4.81,14,8.33,2.31,2,2.64,5.61,4.82,7.72,2,1.92,4.61,4.78,7.24,4,1.93-.59.11-4.1-.48-6-1.32-4.33-4.45-8.08-5.19-12.55-.48-2.91,2-5.75,1.69-8.68-.22-2.26-3.61-3.82-3.14-6,.78-3.64,5.23-5.63,6.4-9.17a10.4,10.4,0,0,0-.85-7.6c-.67-1.33-2.49-1.9-4-2.05-2.38-.23-4.72,1-7.12,1-3.87,0-7.78-1.88-11.58-1.09-3.1.65-5.59,3.09-8,5.19-1.51,1.34-1.8,3.86-3.5,4.95-3.39,2.17-7.7,2.5-11.22,4.46-2.47,1.38-4,4.23-6.51,5.43A91.45,91.45,0,0,1,519,362.57,119.69,119.69,0,0,1,498.56,366c-1.19.07-2.33-1-3-1.93a1.78,1.78,0,0,1,.12-2.17c1.57-1.27,4.12-1,5.55-2.42a17.79,17.79,0,0,0,4.22-7.36c.78-2.5,2.58-6.27.49-7.84-2.59-1.94-6.7-.34-9.66,1-2.36,1.05-4,3.45-5.3,5.67-.61,1,0,2.35-.24,3.5-.17.81-.18,2-1,2.29-3,1-6.59-.17-9.53,1.08-5.17,2.21-9.35,6.26-14.24,9.05a102.22,102.22,0,0,1-13,6.52,82.3,82.3,0,0,1-16.16,5.06,7,7,0,0,1-5.31-1.32c-.73-.57.38-1.94,0-2.78s-2.59-1.25-2.29-2.29c1-3.44,4.35-5.81,5.55-9.17a3.82,3.82,0,0,0-.85-4c-.91-.74-2.42,0-3.5.48a74.26,74.26,0,0,0-13,6.88c-2.81,2-4.42,5.34-7.12,7.48a12.76,12.76,0,0,1-4.95,2.05,1,1,0,0,1-1.08-.6c-.17-.89.68-1.78.48-2.66a4.57,4.57,0,0,0-1.69-2.65,3,3,0,0,0-2.9-.6,17.52,17.52,0,0,0-5.3,4.82c-1,1.17-.62,3.35-1.93,4.1-3.52,2-8,1.69-11.59,3.62-1.36.74-1.25,2.95-2.41,4-.51.46-1.83.65-2.05,0-.36-1.07.86-2.13,1-3.25.06-.7-.94-1.52-.49-2.05,2.61-3.09,6.48-5,9.05-8.09a1.63,1.63,0,0,0-.6-2.17,5.9,5.9,0,0,0-4.71-.12A200,200,0,0,0,356,384.65a3.35,3.35,0,0,0-1,3.13c.13.85,2.12,1.19,1.69,1.93-1.48,2.59-4.57,3.91-6.39,6.28-.77,1-.42,2.62-1.21,3.62s-2.54.85-3.13,1.93c-1.77,3.21-2.45,6.9-3.62,10.37-.48,1.4-.48,3-1.33,4.22-1,1.43-2.85,2.06-4,3.38-3.11,3.61-5,8.3-8.69,11.34-1.84,1.54-4.6,1.76-7,1.69-.91,0-1-1.71-1.93-1.93-1.84-.46-3.89.61-5.67,0a1.73,1.73,0,0,1-.73-2.17c2.11-4.17,5.08-7.85,7.72-11.7s5.62-7.28,8-11.22a2,2,0,0,0,0-2.17c-.51-.48-1.48-.14-2.06.24-1.35.88-2.23,2.37-3.49,3.38-.72.57-1.8.64-2.42,1.32s-.49,1.83-1.08,2.54c-3.66,4.35-8,8.12-11.58,12.54-2.47,3-3.58,7.19-6.52,9.77-1.37,1.21-3.78-.05-5.43.73-3.92,1.85-7,5.26-11,7-.65.28-1.58-.87-1.44-1.57.22-1.21,1.78-1.78,2.29-2.9,1-2.26.71-5.19,2.29-7.12.59-.72,1.7,1.63,2.53,1.21a19.86,19.86,0,0,0,6.52-5.79c4.55-5.95,7.88-12.77,12.3-18.82,3.88-5.3,8.64-9.93,12.55-15.2a40,40,0,0,0,4.1-7.24c.17-.37.17-1.23-.24-1.21-2,.12-3.87,1.64-5.91,1.57-.72,0-1.52-1.16-1.21-1.81,3.15-6.49,7.7-12.22,11.1-18.58.6-1.12,1.4-2.59.85-3.74-.41-.83-1.92-.58-2.78-.24a20.42,20.42,0,0,0-6.39,3.86c-5.79,5.39-10.24,12.17-16.29,17.25-2.41,2-6.33,1.65-8.69,3.74-5.26,4.7-8.23,11.64-13.63,16.17A70.34,70.34,0,0,1,265,411c-1.12.47-2.66-.46-3.37-1.45-.54-.76-.09-2,.36-2.78,1.68-3,4.41-5.44,5.91-8.56,1.11-2.31.3-5.41,1.81-7.48,2.22-3.05,6.21-4.38,8.81-7.12A88.71,88.71,0,0,0,287.43,372c.8-1.18,2.62-3,1.57-4-1.22-1.14-3.54-.07-4.94.84-5.7,3.69-10.75,8.29-15.93,12.67-4.56,3.86-9.45,7.46-13.27,12.06-2.16,2.61-1.76,7-4.34,9.17s-7,.69-9.65,2.66c-3.25,2.36-4.52,6.68-7.24,9.65s-6.55,4.62-8.81,7.84c-10.36,14.79-12.63,28.47-18.6,44.69Z" transform="translate(-183.29 -196.1)"/><path class="cls-9" d="M301.55,433.14c-1.37,1.21-3.78-.05-5.43.73-3.92,1.85-7,5.26-11,7-.65.28-1.58-.87-1.44-1.57.22-1.21,1.78-1.78,2.29-2.9,1-2.26.71-5.19,2.29-7.12.59-.72,1.7,1.63,2.53,1.21a19.86,19.86,0,0,0,6.52-5.79c4.55-5.95,7.88-12.77,12.3-18.82,3.88-5.3,8.64-9.93,12.55-15.2a40,40,0,0,0,4.1-7.24c.17-.37.17-1.23-.24-1.21-2,.12-3.87,1.64-5.91,1.57-.72,0-1.52-1.16-1.21-1.81,3.15-6.49,7.7-12.22,11.1-18.58.6-1.12,1.4-2.59.85-3.74-.41-.83-1.92-.58-2.78-.24a20.42,20.42,0,0,0-6.39,3.86c-5.79,5.39-10.24,12.17-16.29,17.25-2.41,2-6.33,1.65-8.69,3.74-5.26,4.7-8.23,11.64-13.63,16.17A70.34,70.34,0,0,1,265,411c-1.12.47-2.66-.46-3.37-1.45-.54-.76-.09-2,.36-2.78,1.68-3,4.41-5.44,5.91-8.56,1.11-2.31.3-5.41,1.81-7.48,2.22-3.05,6.21-4.38,8.81-7.12A88.71,88.71,0,0,0,287.43,372c.8-1.18,2.62-3,1.57-4-1.22-1.14-3.54-.07-4.94.84-5.7,3.69-10.75,8.29-15.93,12.67-2.4,2-4.89,4-7.27,6.06-.34,1.27-.7,2.52-1.12,3.75a70.21,70.21,0,0,1-3.38,8.45,33.37,33.37,0,0,1-3.38,5.07c-2.8,3.69-6.57,6.73-8.69,10.85a42.47,42.47,0,0,0-4.1,14c-.61,4.87.44,9.81.48,14.72,0,3.13.35,6.32-.24,9.41s-2,5.66-3.13,8.44c-1.2,2.93-3.07,5.62-3.86,8.69-.75,2.89-1.35,6-.73,8.92.8,3.73,3.58,6.77,4.83,10.38a28,28,0,0,1,1.93,9.17c-.06,6.87-2.17,13.63-2.17,20.51a8,8,0,0,0,2.17,4.82,6.78,6.78,0,0,0,3.62,2.17c2.86.7,6-.09,8.8.85.89.3,1.26,1.6,1.21,2.53a12.43,12.43,0,0,1-1.57,5.19c-.87,1.64-2.64,2.69-3.5,4.34a16.1,16.1,0,0,0-1,4.22c0,.16-.15.42,0,.49,1.47.69,3.21.8,4.58,1.69,1.75,1.12,4.25,2.17,4.59,4.22s-2.75,3.81-2.9,6a5.3,5.3,0,0,0,2.17,4.71c3.55,2.07,7.85,2.47,11.83,3.49.74.19,2-.58,2.29.12.62,1.53-.95,3.46-.24,5s3.67,1.66,4.22,3.38-1.37,3.73-1.33,5.67a9.12,9.12,0,0,0,1.57,5.07,60.12,60.12,0,0,0,9.53,10.25c2.27,2,4.74,4.4,7.72,4.58s5.23-3.36,8.21-3.61c2.08-.18,5.08.44,5.79,2.41,1.1,3.06-2.75,6.67-1.45,9.65.86,2,4.13,1.31,6.27,1.45,3.06.19,6.58-2.11,9.17-.49s1.8,5.6,3.14,8.21c2,3.85,3.11,8.76,6.75,11.1,4.88,3.13,11.23,2.87,16.89,4.1,2.47.54,5.47-.32,7.48,1.21,2.66,2,2.7,6.39,5.31,8.44,2.23,1.75,5.5,3,8.21,2.17,5.36-1.61,9.12-6.63,14.23-8.93,3.61-1.62,7.66-2.08,11.58-2.65a37.89,37.89,0,0,1,10.13-.48c4.3.55,8.24,3.81,12.55,3.38,5.75-.58,10.87-4,16.17-6.28,7.18-3.15,14.23-6.6,21.23-10.13,1.45-.74,2.6-2,4.1-2.66,6.07-2.54,12.32-4.65,18.53-6.86a3.31,3.31,0,0,1,.55-2.05c.74-.83,2.73.26,3.26-.72a15.69,15.69,0,0,0,1.93-8.81,3.89,3.89,0,0,0-3.14-3c-2.43-.37-4.87.78-7.24,1.44-.67.19-1.11,1-1.81,1.09-1.11.18-2.85.76-3.37-.24s1.31-1.93,1.68-3c.28-.8-.15-1.78.25-2.53,1.21-2.26,3.39-3.94,4.46-6.27.67-1.48,1.84-3.78.6-4.83-2.2-1.86-5.57-2-8.44-1.81-1.87.12-3.14,2.17-4.95,2.66-2.5.66-5.53-.65-7.72.72-1.5.93-.59,3.6-1.57,5.07-.51.76-1.89.42-2.53,1.08a4.63,4.63,0,0,0-1.21,2.78c-.17,2.17,2,4.94.48,6.51-1.32,1.39-4.1,0-5.67-1.08S440,592,438.54,591c-1.92-1.26-4.62-2.16-6.75-1.33-3,1.16-5,4.08-6.88,6.64-1.12,1.52-.1,4.86-1.93,5.31-2.58.63-4.84-3.82-7.36-3-3.28,1-5.3,4.6-7,7.6-.71,1.26,1.18,3.24.24,4.35s-3-.08-4.34.48-2.28,2.61-3.86,2.89c-1.29.23-2.31-1.68-3.62-1.56s-1.86,1.72-3,2.17c-2.55,1-5.45.93-8,2.05-1.22.54-1.65,2.27-2.89,2.77s-2.6-.62-3.74-.12c-1.62.71-2.23,3.71-4,3.5-4.11-.49-7.09-5.39-11.22-5.31-2.91.06-3.79,5.1-6.64,5.67-1.67.34-1.95-3.27-3.62-3.62-1.93-.4-3.76,1.21-5.67,1.69-2.77.7-7-.61-7.11-3-.28-4.61,5.76-13.77,15.2-16.77,4.71-1.51,10,1.06,14.83.12A12.4,12.4,0,0,0,378.7,597c1.06-1.42.47-3.68-.24-5.31-1-2.22-4-3.3-4.58-5.67-.37-1.59,1.59-2.86,2.29-4.34s.34-4.47,2.05-4.82,2.61,2.2,3.14,3.74c.27.8-.91,1.46-1.09,2.29-.31,1.5-1,3.21-.36,4.58.46.94,2,.81,3,.85,1.62,0,3.21-.77,4.82-.61,2.08.21,4,2.29,6,1.69a5.88,5.88,0,0,0,3.62-4.58c.4-2.41-1.69-4.68-1.69-7.12a41.46,41.46,0,0,1,1.69-13c.71-2.11,3.47-3,4.35-5.07,1.83-4.28,1.42-9.4,3.62-13.51a54,54,0,0,1,11.09-14c3.15-2.91,7.8-3.78,11.1-6.52,2.43-2,3.13-5.79,5.79-7.48,5-3.13,11.61-3.11,16.41-6.51,3.48-2.46,5.62-6.54,7.48-10.38,1.1-2.27,2.49-5.3,1.21-7.47-.88-1.48-3.71-.09-5.07,1-4.06,3.12-6.58,7.95-10.62,11.1-5.2,4.06-11.23,7-16.89,10.37-3.27,2-7,3.34-9.89,5.8-2.71,2.27-4.14,5.81-6.75,8.2-5.47,5-10.93,10.14-17.38,13.75-4.37,2.45-10.17,1.52-14.47,4.1-2.19,1.32-1.21,5.91-3.62,6.76-3,1.07-6.25-2.76-9.41-2.17-1.92.35-2.81,2.81-3.62,4.58-1.48,3.22-1,7.33-3.14,10.14-1.62,2.11-5.25,1.6-7.24,3.37-3.53,3.17-5.41,7.91-8.92,11.1-2.86,2.6-6.15,5.11-9.9,6a11.12,11.12,0,0,1-8.68-1.44c-2-1.42-1.78-4.68-3.14-6.76-1.88-2.87-3.37-6.6-6.51-8-1.95-.84-4.12,1.35-5.8,2.65-2.65,2.06-3.76,6.35-7,7.24-3.71,1-7.55-2.83-11.34-2.17-2.41.42-2.87,5-5.31,5.07-2.65.1-5.43-2.17-6.52-4.59-1-2.23,1.46-4.8,1.21-7.24s-3.17-4.39-2.65-6.75c1.13-5.13,5.3-9.12,7.24-14,.74-1.88,2.06-4.51.72-6-1.08-1.21-3,1.42-4.58,1.69-3.59.62-7.51,2.38-10.86,1a8.12,8.12,0,0,1-4.59-7.48c.19-2.25,4.45-1.9,5.55-3.86,1.27-2.27-.12-5.37,1-7.73a4.3,4.3,0,0,1,3.62-2.17c2.18,0,4.19,2.61,6.27,1.93,2.54-.83,3.06-4.83,5.55-5.79,3.15-1.21,7,1.06,10.13-.24,1.48-.61,1.6-3,1.45-4.58-.35-3.65-3.46-7-2.89-10.62.31-2,4-1.65,5.06-3.38s-.32-4.3.73-6a20,20,0,0,1,7-6.75c3.54-2.07,8.89-1,11.59-4.11,2.06-2.36-.28-6.31.24-9.41.61-3.71,1.3-7.56,3.13-10.86.69-1.22,3-.56,3.86-1.68,2.37-3.18,2.44-7.9,5.31-10.62,2-1.88,5.24-2.06,8-1.93,2.5.12,4.51,2.65,7,2.65,1.43,0,2-2.87,3.38-2.65,1.91.3,2.41,3.73,4.34,3.86,2.26.16,5.23-1,6-3.14,1.29-3.39-1-7.24-.72-10.85.06-.74,1-1.73,1.69-1.45,2.5,1,4.29,3.29,6.51,4.82,3,2.09,5.75,4.74,9.17,6,1.52.57,3.84.57,4.83-.73,2.91-3.84,3.29-9.14,5.79-13.27,1.89-3.12,4-6.48,7.24-8.2,4.06-2.17,9.72-.28,13.51-2.9,5.22-3.59,8.05-9.8,12.06-14.72,2.43-3,4.28-6.49,7.24-8.92,2.56-2.1,5.79-5.39,8.93-4.35,2.26.76-2.67,4-3.86,6-1.55,2.68-5.81,5.48-4.34,8.2,1.25,2.34,5.27-.9,7.72-1.93,2.2-.93,4.21-5.4,6-3.86s-1.31,4.74-2.9,6.51A56.43,56.43,0,0,1,427.32,424c-2,1.29-5,.59-6.75,2.18-1.92,1.73-1.55,5.16-3.38,7-4.27,4.27-10.18,6.63-14.48,10.86a8.87,8.87,0,0,0-2.89,6.27c0,1.08,2.08-.5,3.13-.72,2-.42,4-1.29,6-1.21s4,2.08,6,1.69c2.58-.49,4.12-4.21,6.75-4.1,1.48.06-.18,3.08-1,4.34-2,3.26-5.24,5.67-7.24,8.93-1.1,1.8-4,5.45-1.93,6,3.25.95,6.68-1.84,9.41-3.86,4.8-3.55,7.65-9.49,12.79-12.54,2.7-1.61-3.81,5.08-5.07,8-.48,1.1-.83,2.74,0,3.62s2.47.61,3.62.24c3.14-1,6.84-1.78,8.93-4.34,4.15-5.11,5.11-12.25,8.92-17.62.81-1.13,4.36-2.09,4.1-.72-1.08,5.77-5.69,10.44-7,16.16-.26,1.14,1.86,2.47,2.89,1.94a58.38,58.38,0,0,0,15-11.1c4.57-4.68,7.29-10.89,11.46-15.93a32.59,32.59,0,0,1,7.24-6.63c1.06-.69,2.58,0,3.74-.49,2.24-.91,3.89-3.25,6.27-3.61,2.59-.41,5.16,2,7.73,1.44a12.13,12.13,0,0,0,6.75-4.34c1.25-1.55.15-4.29,1.45-5.79,2.6-3,7.21-3.86,9.65-7,.75-1-.57-2.76-1.69-3.26a18.79,18.79,0,0,0-9.53-1.68c-2.08.23-3.3,2.77-5.31,3.37-1.61.49-3.63-1.13-5.06-.24-4.18,2.61-6.51,7.63-10.74,10.14-1,.57-2.26-1.19-2.53-2.3a14.29,14.29,0,0,1,.12-7.23,27.83,27.83,0,0,1,4.16-8.51,10.53,10.53,0,0,1,4.34-3.74,75.3,75.3,0,0,1,17.37-5.55,16.65,16.65,0,0,1,8.81,1.33c.17.07.73,6,4.82,4.46,1.83-.68,1.85-3.48,3.14-4.94s3.56-1.71,4.22-3.38a11,11,0,0,0-.12-7c-.14-.5-2-1.06-3.16-1.27-3.15-.54-5.82,2.14-7.33,2.48a2.85,2.85,0,0,1-2.78-1.09c-.35-.54.41-1.35,1-1.69,1.06-.64,10.42-3.41,12.54-4.22,5.45-2.08,10.6-5.11,16.29-6.39,2.05-.47,4.08,1.64,6.15,1.32,1.91-.29,3.05-2.67,5-3a3.06,3.06,0,0,1,3,1.57c1.12,2.19-.28,5.49,1.45,7.23,3.83,3.86,9.87,4.81,14,8.33,2.31,2,2.64,5.61,4.82,7.72,2,1.92,4.61,4.78,7.24,4,1.93-.59.11-4.1-.48-6-1.32-4.33-4.45-8.08-5.19-12.55-.48-2.91,2-5.75,1.69-8.68-.22-2.26-3.61-3.82-3.14-6,.78-3.64,5.23-5.63,6.4-9.17a10.4,10.4,0,0,0-.85-7.6c-.67-1.33-2.49-1.9-4-2.05-2.38-.23-4.72,1-7.12,1-3.87,0-7.78-1.88-11.58-1.09-3.1.65-5.59,3.09-8,5.19-1.51,1.34-1.8,3.86-3.5,4.95-3.39,2.17-7.7,2.5-11.22,4.46-2.47,1.38-4,4.23-6.51,5.43A91.45,91.45,0,0,1,519,362.57,119.69,119.69,0,0,1,498.56,366c-1.19.07-2.33-1-3-1.93a1.78,1.78,0,0,1,.12-2.17c1.57-1.27,4.12-1,5.55-2.42a17.79,17.79,0,0,0,4.22-7.36c.78-2.5,2.58-6.27.49-7.84-2.59-1.94-6.7-.34-9.66,1-2.36,1.05-4,3.45-5.3,5.67-.61,1,0,2.35-.24,3.5-.17.81-.18,2-1,2.29-3,1-6.59-.17-9.53,1.08-5.17,2.21-9.35,6.26-14.24,9.05a102.22,102.22,0,0,1-13,6.52,82.3,82.3,0,0,1-16.16,5.06,7,7,0,0,1-5.31-1.32c-.73-.57.38-1.94,0-2.78s-2.59-1.25-2.29-2.29c1-3.44,4.35-5.81,5.55-9.17a3.82,3.82,0,0,0-.85-4c-.91-.74-2.42,0-3.5.48a74.26,74.26,0,0,0-13,6.88c-2.81,2-4.42,5.34-7.12,7.48a12.76,12.76,0,0,1-4.95,2.05,1,1,0,0,1-1.08-.6c-.17-.89.68-1.78.48-2.66a4.57,4.57,0,0,0-1.69-2.65,3,3,0,0,0-2.9-.6,17.52,17.52,0,0,0-5.3,4.82c-1,1.17-.62,3.35-1.93,4.1-3.52,2-8,1.69-11.59,3.62-1.36.74-1.25,2.95-2.41,4-.51.46-1.83.65-2.05,0-.36-1.07.86-2.13,1-3.25.06-.7-.94-1.52-.49-2.05,2.61-3.09,6.48-5,9.05-8.09a1.63,1.63,0,0,0-.6-2.17,5.9,5.9,0,0,0-4.71-.12A200,200,0,0,0,356,384.65a3.35,3.35,0,0,0-1,3.13c.13.85,2.12,1.19,1.69,1.93-1.48,2.59-4.57,3.91-6.39,6.28-.77,1-.42,2.62-1.21,3.62s-2.54.85-3.13,1.93c-1.77,3.21-2.45,6.9-3.62,10.37-.48,1.4-.48,3-1.33,4.22-1,1.43-2.85,2.06-4,3.38-3.11,3.61-5,8.3-8.69,11.34-1.84,1.54-4.6,1.76-7,1.69-.91,0-1-1.71-1.93-1.93-1.84-.46-3.89.61-5.67,0a1.73,1.73,0,0,1-.73-2.17c2.11-4.17,5.08-7.85,7.72-11.7s5.62-7.28,8-11.22a2,2,0,0,0,0-2.17c-.51-.48-1.48-.14-2.06.24-1.35.88-2.23,2.37-3.49,3.38-.72.57-1.8.64-2.42,1.32s-.49,1.83-1.08,2.54c-3.66,4.35-8,8.12-11.58,12.54-2.47,3-3.58,7.19-6.52,9.77Z" transform="translate(-183.29 -196.1)"/><path class="cls-10" d="M427.07,392.69c5.15-2.21,9.29-11.32,18.82-8.69,1.67.46,3.14,10.32,13,5.55,7-3.36,12.12-9.69,18.82-13.51,14.16-8.07,18.66-.55,5.8,14-5.49,6.2-11.14,12.26-16.17,18.82a8.82,8.82,0,0,0-2.17,5.07c0,1.91,1.45,3.54,2.17,5.31,1.65,4.07,2.9,3.92-2.17,7.48-3.19,2.23-7,3.48-10.14,5.79-2.7,2-5.51,4.12-7.23,7-2.64,4.4-3.39,9.7-5.55,14.35a28,28,0,0,1-2.17,3.7,7.57,7.57,0,0,0,1.22-1.18c4.15-5.11,5.11-12.25,8.92-17.62.81-1.13,4.36-2.09,4.1-.72-1.08,5.77-5.69,10.44-7,16.16-.26,1.14,1.86,2.47,2.89,1.94a58.38,58.38,0,0,0,15-11.1c4.57-4.68,7.29-10.89,11.46-15.93a32.59,32.59,0,0,1,7.24-6.63c1.06-.69,2.58,0,3.74-.49,2.24-.91,3.89-3.25,6.27-3.61,2.59-.41,5.16,2,7.73,1.44a12.13,12.13,0,0,0,6.75-4.34c1.25-1.55.15-4.29,1.45-5.79,2.6-3,7.21-3.86,9.65-7,.75-1-.57-2.76-1.69-3.26a18.79,18.79,0,0,0-9.53-1.68c-2.08.23-3.3,2.77-5.31,3.37-1.61.49-3.63-1.13-5.06-.24-4.18,2.61-6.51,7.63-10.74,10.14-1,.57-2.26-1.19-2.53-2.3a14.29,14.29,0,0,1,.12-7.23,27.83,27.83,0,0,1,4.16-8.51,10.53,10.53,0,0,1,4.34-3.74,75.3,75.3,0,0,1,17.37-5.55,16.65,16.65,0,0,1,8.81,1.33c.17.07.73,6,4.82,4.46,1.83-.68,1.85-3.48,3.14-4.94s3.56-1.71,4.22-3.38a11,11,0,0,0-.12-7c-.14-.5-2-1.06-3.16-1.27-3.15-.54-5.82,2.14-7.33,2.48a2.85,2.85,0,0,1-2.78-1.09c-.35-.54.41-1.35,1-1.69,1.06-.64,10.42-3.41,12.54-4.22,5.45-2.08,10.6-5.11,16.29-6.39,2.05-.47,4.08,1.64,6.15,1.32,1.91-.29,3.05-2.67,5-3a3.06,3.06,0,0,1,3,1.57c1.12,2.19-.28,5.49,1.45,7.23,3.83,3.86,9.87,4.81,14,8.33,2.31,2,2.64,5.61,4.82,7.72,2,1.92,4.61,4.78,7.24,4,1.93-.59.11-4.1-.48-6-1.32-4.33-4.45-8.08-5.19-12.55-.48-2.91,2-5.75,1.69-8.68-.22-2.26-3.61-3.82-3.14-6,.78-3.64,5.23-5.63,6.4-9.17a10.4,10.4,0,0,0-.85-7.6c-.67-1.33-2.49-1.9-4-2.05-2.38-.23-4.72,1-7.12,1-3.87,0-7.78-1.88-11.58-1.09-3.1.65-5.59,3.09-8,5.19-1.51,1.34-1.8,3.86-3.5,4.95-3.39,2.17-7.7,2.5-11.22,4.46-2.47,1.38-4,4.23-6.51,5.43A91.45,91.45,0,0,1,519,362.57,119.69,119.69,0,0,1,498.56,366c-1.19.07-2.33-1-3-1.93a1.78,1.78,0,0,1,.12-2.17c1.57-1.27,4.12-1,5.55-2.42a17.79,17.79,0,0,0,4.22-7.36c.78-2.5,2.58-6.27.49-7.84-2.59-1.94-6.7-.34-9.66,1-2.36,1.05-4,3.45-5.3,5.67-.61,1,0,2.35-.24,3.5-.17.81-.18,2-1,2.29-3,1-6.59-.17-9.53,1.08-5.17,2.21-9.35,6.26-14.24,9.05a102.22,102.22,0,0,1-13,6.52,82.3,82.3,0,0,1-16.16,5.06,7,7,0,0,1-5.31-1.32c-.73-.57.38-1.94,0-2.78s-2.59-1.25-2.29-2.29c1-3.44,4.35-5.81,5.55-9.17a3.82,3.82,0,0,0-.85-4c-.91-.74-2.42,0-3.5.48a74.26,74.26,0,0,0-13,6.88c-2.81,2-4.42,5.34-7.12,7.48a12.76,12.76,0,0,1-4.95,2.05,1,1,0,0,1-1.08-.6c-.17-.89.68-1.78.48-2.66a4.57,4.57,0,0,0-1.69-2.65,3,3,0,0,0-2.9-.6,17.52,17.52,0,0,0-5.3,4.82c-1,1.17-.62,3.35-1.93,4.1-3.52,2-8,1.69-11.59,3.62-1.36.74-1.25,2.95-2.41,4-.51.46-1.83.65-2.05,0-.36-1.07.86-2.13,1-3.25.06-.7-.94-1.52-.49-2.05,2.61-3.09,6.48-5,9.05-8.09a1.63,1.63,0,0,0-.6-2.17,5.9,5.9,0,0,0-4.71-.12A200,200,0,0,0,356,384.65a3.35,3.35,0,0,0-1,3.13c.13.85,2.12,1.19,1.69,1.93-1.48,2.59-4.57,3.91-6.39,6.28-.77,1-.42,2.62-1.21,3.62s-2.54.85-3.13,1.93c-1.77,3.21-2.45,6.9-3.62,10.37-.48,1.4-.48,3-1.33,4.22-1,1.43-2.85,2.06-4,3.38-3.11,3.61-5,8.3-8.69,11.34a5.8,5.8,0,0,1-1.31.83,11.57,11.57,0,0,0,3.65-1.23c2.05-1.3,3.34-3.54,5.31-4.95.64-.45,1.65-.92,2.29-.48a2.46,2.46,0,0,1,.73,2.53c-5.93,21.61,10.09-2.13,15.56-7.48.61-.59,2,.54,2.53-.12,4.41-5.53,6.74-14.73,10.62-19.42,6.79-8.2-6.55,28.42,8.93,14.6.12-.12,26.46-35.79,18.34-17.86-2.21,4.86,4.33,1,6.27.24,2.92-1.18,4.38-5.19,7.48-5.79,2-.38,3,3.27,5.07,3.38a30.13,30.13,0,0,0,13.27-2.41ZM240.71,418.51c1.33-2,3-4.18,5.3-4.82,1.15-.33,1.23,2.47,2.42,2.65s5.31-3.84,9.17-.48c.91.79.87,2.59.24,3.62-2.17,3.55-6.08,5.83-8.21,9.41-2.79,4.67,2.79,6.5,5.31,4.34,4.22-3.63,6.41-9.14,10.13-13.27,2.46-2.72,4.27-2.08,4.3-.22,0,4-2.65,8.52,0,8.84A4.72,4.72,0,0,0,273,426.9a47.52,47.52,0,0,0,6.51-8.87c2.77-4.9,2.4-13,8.21-14,1.47-.26,2.85,1,4.34,1.2,4.77.68,5.72-8.24,8.68-12.79,2.13-3.27,6.16.54,7.48.73a4.23,4.23,0,0,0,3.14-1c6.17-5.16,3.21-5.18,4.34-9.53a22.69,22.69,0,0,1,2.3-4.95c4-7.33,6.89-12,13-17a2.2,2.2,0,0,0-.18-1.05c-.41-.83-1.92-.58-2.78-.24a20.42,20.42,0,0,0-6.39,3.86c-5.79,5.39-10.24,12.17-16.29,17.25-2.41,2-6.33,1.65-8.69,3.74-5.26,4.7-8.23,11.64-13.63,16.17A70.34,70.34,0,0,1,265,411c-1.12.47-2.66-.46-3.37-1.45-.54-.76-.09-2,.36-2.78,1.68-3,4.41-5.44,5.91-8.56,1.11-2.31.3-5.41,1.81-7.48,2.22-3.05,6.21-4.38,8.81-7.12A88.71,88.71,0,0,0,287.43,372c.8-1.18,2.62-3,1.57-4-1.22-1.14-3.54-.07-4.94.84-5.7,3.69-10.75,8.29-15.93,12.67-4.56,3.86-9.45,7.46-13.27,12.06-2.16,2.61-1.76,7-4.34,9.17s-7,.69-9.65,2.66c-3.25,2.36-4.52,6.68-7.24,9.65s-6.55,4.62-8.81,7.84a81.12,81.12,0,0,0-6.65,11.38,110.51,110.51,0,0,0-4.73,11.64c.79-1.34,1.64-2.7,2.52-4,4.74-7.17,10.46-13.61,13.16-13.24,1.52.2.46,3.07.25,4.58-.32,2.21,1.16,3.91,3.13.48,2.87-5,5-10.43,8.21-15.2Z" transform="translate(-183.29 -196.1)"/><path class="cls-11" d="M269.28,537.2c1.27-2.27-.12-5.37,1-7.73a4.3,4.3,0,0,1,3.62-2.17c2.18,0,4.19,2.61,6.27,1.93,2.54-.83,3.06-4.83,5.55-5.79,3.15-1.21,7,1.06,10.13-.24,1.48-.61,1.6-3,1.45-4.58-.35-3.65-3.46-7-2.89-10.62.31-2,4-1.65,5.06-3.38s-.32-4.3.73-6a20,20,0,0,1,7-6.75c3.54-2.07,8.89-1,11.59-4.11,2.06-2.36-.28-6.31.24-9.41.61-3.71,1.3-7.56,3.13-10.86.69-1.22,3-.56,3.86-1.68,2.37-3.18,2.44-7.9,5.31-10.62a5.93,5.93,0,0,1,1.5-1,9.71,9.71,0,0,0-4.21,1.66c-1.68,1.44-.93,6.39-4.23,6.64-.91.06-5.07-2.65-6.87.24-1.33,2.12,1.12,6.64.72,8.08-.24.86-1.77.77-2.17,1.57-.54,1.08.41,6.29-4.22,8.2-2.51,1-8.5-3.24-10.5,2.54-.93,2.68,2.37,8.49-1.69,10-1.24.46-2.83.37-3.74,1.33s0,2.84-1,3.62c-15,11.81-27.2,1.68-41.5,14.35-6.4,5.67-6,10.82.54,10.08,2.87-.33,5.47-1.08,6.7,1.5.82,1.73-.31,4-1.45,5.55-3.2,4.3-17.31,10-18.94,15.69-1.4,4.85,7.95,2.88,7.6,5.3-.19,1.32-11.46,14.73-1,19.79,5.09,2.46,11.52-3.19,16.89-1.45,2.32.75-.06,5,1,7.24,1.15,2.49,4.47,3.67,5.31,6.27.6,1.9-1.81,3.84-1.45,5.79.5,2.69,4.47,4.58,3.86,7.24-1.48,6.49-14.33,19.4-9.29,25.89,3.5,4.51,15.93-5.75,23.59-12.31,14.8-12.68,4,9.1,14.65,1.38,4.71-3.39,7.95-8.45,12.07-12.54,5.76-5.73,6.81,2.82,15.92-1,3-1.24,5.36-3.59,8.08-5.31,8.62-5.44,8.54-.5,5.58,2.64-3.76,4,1.53,6.9,3.23,2.61,1-2.56,2.25-7,3.62-11,2.55-7.41,6.58-12.43,10-7.83.95,1.28,2.7,1.71,4-.77.82-1.57,2.09-6.95,3.34-11.09,2.16-7.18,3.77-6.47,3-.23a28.32,28.32,0,0,0-.41,6.41c.51,4.13,3.12,4.64,5,.53,1.74-3.87,3.6-10.85,5-15a14.78,14.78,0,0,1,6.55-7.83c2.6-1.31,2.83.28,2.75,1.48,0,.83.17,1.55,1,1.77,4.74,1.32,20.68-19.87,23.27-24.13a34.32,34.32,0,0,1,4.22-6c2.07-2.19,9.82-5.91,12.67-7.24,4-1.85,8.26-3,12.06-5.19a26.56,26.56,0,0,0,6.64-5.55c1.76-2,2.71-4.6,4.22-6.81,1.72-2.54,4.54-5.73,5.77-3.45a3.68,3.68,0,0,0-.4-1c-.88-1.48-3.71-.09-5.07,1-4.06,3.12-6.58,7.95-10.62,11.1-5.2,4.06-11.23,7-16.89,10.37-3.27,2-7,3.34-9.89,5.8-2.71,2.27-4.14,5.81-6.75,8.2-5.47,5-10.93,10.14-17.38,13.75-4.37,2.45-10.17,1.52-14.47,4.1-2.19,1.32-1.21,5.91-3.62,6.76-3,1.07-6.25-2.76-9.41-2.17-1.92.35-2.81,2.81-3.62,4.58-1.48,3.22-1,7.33-3.14,10.14-1.62,2.11-5.25,1.6-7.24,3.37-3.53,3.17-5.41,7.91-8.92,11.1-2.86,2.6-6.15,5.11-9.9,6a11.12,11.12,0,0,1-8.68-1.44c-2-1.42-1.78-4.68-3.14-6.76-1.88-2.87-3.37-6.6-6.51-8-1.95-.84-4.12,1.35-5.8,2.65-2.65,2.06-3.76,6.35-7,7.24-3.71,1-7.55-2.83-11.34-2.17-2.41.42-2.87,5-5.31,5.07-2.65.1-5.43-2.17-6.52-4.59-1-2.23,1.46-4.8,1.21-7.24s-3.17-4.39-2.65-6.75c1.13-5.13,5.3-9.12,7.24-14,.74-1.88,2.06-4.51.72-6-1.08-1.21-3,1.42-4.58,1.69-3.59.62-7.51,2.38-10.86,1a8.12,8.12,0,0,1-4.59-7.48c.19-2.25,4.45-1.9,5.55-3.86Zm7-46.1a8.38,8.38,0,0,0-8.18-.94c-.84.44-1.28,1.92-2.05,2.49-1.5,1.12-6.13,2.06-9.45,4.57a10.6,10.6,0,0,0-3.54,3.66c-.93,2,0,2.34.75,2.29,4.77-.35,9.28-2.53,14-3.36a64.54,64.54,0,0,1,8.65-.73c4.87-.08,4-4.64-.18-8Z" transform="translate(-183.29 -196.1)"/><path class="cls-12" d="M424.91,596.31c-1.12,1.52-.1,4.86-1.93,5.31-2.58.63-4.84-3.82-7.36-3-3.28,1-5.3,4.6-7,7.6-.71,1.26,1.18,3.24.24,4.35s-3-.08-4.34.48-2.28,2.61-3.86,2.89c-1.29.23-2.31-1.68-3.62-1.56s-1.86,1.72-3,2.17c-2.55,1-5.45.93-8,2.05-1.22.54-1.65,2.27-2.89,2.77s-2.6-.62-3.74-.12c-1.62.71-2.23,3.71-4,3.5-4.11-.49-7.09-5.39-11.22-5.31-2.91.06-3.79,5.1-6.64,5.67-1.67.34-1.95-3.27-3.62-3.62-1.93-.4-3.76,1.21-5.67,1.69-2.77.7-7-.61-7.11-3-.13-2,1-5,3.07-7.84-.41.39-.81.8-1.18,1.23-2,2.32-7.94,14.7-2.41,14.54,1.79-.06,4.54-2.94,6.88-1.69,1,.53,1,2.4,2.05,2.65,1.88.43,3.42-3.09,5.43-.12s1.24,5.88,7.11,7c6.24,1.19,6.54-3.51,9.17-5.07.8-.47,1.89.52,2.78.24,1.73-.55,4.16-6.67,9.65-5.55,1.46.3,2.43,2.73,3.86,2.3s1.45-4.08,4.07-5.69c2.44-1.51,4.18.74,5.7.38,1-.24,1.23-1.14,2.23-1.39s1.58.2,2.72.18c2.18,0,4.23-1.75,6.39-1.45s5,8.46,11.46,3.5c3.66-2.79,1.7-9.1,3.38-13.39,1.19-3,4.55-2.69,4.58-.36a13.93,13.93,0,0,1-.84,4.14c-.44,1.56-1.2,3.71,1.39,3.52a2.44,2.44,0,0,0,2.11-1.39c.91-2.1.87-4.52,1.37-6.76.41-1.82,1.17-3.55,3.43-3.35a1.25,1.25,0,0,1,1.23,1.06,8.37,8.37,0,0,1-.48,2.9.73.73,0,0,0,1.2.72,7.74,7.74,0,0,0,1.81-1.93c3.1-4.22,2.73-5.43,6.53-5.66,2.17-.14,6.24-1.21,7.11-3.5.65-1.73-1.69-4.24-1.93-5.92s1.16-1.32,2-1c.63.22,1.34.37,1.71,0,1.45-1.52,2.05-5.59,4-6.28,1.5-.51,1,2.31,3,1.31,2.66-1.29,2.22-3,3.69-4.44,1.93-1.95,4.41-1.84,6.78-1.44-2.19-1.67-5.43-1.78-8.19-1.61-1.87.12-3.14,2.17-4.95,2.66-2.5.66-5.53-.65-7.72.72-1.5.93-.59,3.6-1.57,5.07-.51.76-1.89.42-2.53,1.08a4.63,4.63,0,0,0-1.21,2.78c-.17,2.17,2,4.94.48,6.51-1.32,1.39-4.1,0-5.67-1.08S440,592,438.54,591c-1.92-1.26-4.62-2.16-6.75-1.33-3,1.16-5,4.08-6.88,6.64Z" transform="translate(-183.29 -196.1)"/><path class="cls-13" d="M689.5,300.6c-3.8-2.06-7-5.09-10.26-8s-5.52-6.53-8.92-9.05a13.07,13.07,0,0,0-6.4-2.29,2,2,0,0,0-1.81,1.45,3,3,0,0,0,.85,2.53c3.79,4,8,7.56,12.18,11.22,3.19,2.82,7,5,9.77,8.2,1.43,1.65,1.44,4.15,2.54,6a8,8,0,0,0,2.53,2.66c2.75,1.8,6.08,2.69,8.69,4.7a8.46,8.46,0,0,1,2.89,4.23c.17.57-.79,1.48-1.33,1.2-2.4-1.26-3.94-3.78-6.27-5.19-.9-.54-2.47-1.3-3.13-.48-.8,1,0,2.56.48,3.74s1.63,1.69,1.93,2.78c.19.68-.92,1.41-.6,2.05a160.23,160.23,0,0,0,8.8,14.72c1.22,1.92,3.08,3.46,4,5.55a2.37,2.37,0,0,1-.48,2.53c-.77.66-2.21,1.11-3,.48-2.07-1.61-2.7-4.56-4.58-6.39a11.15,11.15,0,0,0-4.82-2.78c-1.37-.36-3.23-.63-4.23.37a8.26,8.26,0,0,0-2,5.91c0,1.39,2,2.13,2.29,3.5s-.82,2.71-.72,4.1c.19,2.58,1.39,5,1.57,7.6.14,2-.49,4-.6,6-.29,5-.66,10-.61,15,0,2.15,1.18,4.27.85,6.39-.38,2.42-1.69,4.91-1.81,7.36-.21,4.19.47,7.45.3,11.64-.08,2.05-1,3.74-1.09,5.79-.09,2.6,1,4.83,1.15,7.42.16,2.44-1,4.81-1.21,7.24a20,20,0,0,0,.24,3.62c.28,2.82,1.32,5.63,1,8.45-.32,2.5-2,4.65-2.9,7a55.71,55.71,0,0,0-2.65,6.76c-.46,1.8.1,3.79-.48,5.55-.5,1.48-1.72,3.14-1.69,4.7.06,4.06,2,6.93,1.93,11-.08,3.64-1.89,7.06-3.38,10.38-2.74,6.1-7.48,10.34-10.13,15.44a6,6,0,0,0-.73,4.1c.17.64,1.27.52,1.93.48,3.93-.2,10.08-3.05,11.83-5.79,2.39-3.75,1-9.88,2.17-13,.39-1.05,2.3-.45,3.13-1.2a20.72,20.72,0,0,0,4.35-5.55,8.26,8.26,0,0,0,1.2-4.83c-.44-3.27-2.76-6.12-3.13-9.41a41.4,41.4,0,0,1,.72-11.58c.34-2,.81-4.25,2.17-5.79.75-.85,2.35,0,3.38-.48a5.27,5.27,0,0,0,2.65-2.42c.81-1.87.36-4.09,1-6,.29-.93.71-2.44,1.69-2.41,1.16,0,2.19,1.39,2.41,2.53.39,2-1.13,4.05-.72,6,.25,1.22,1.77,1.77,2.53,2.77a3.51,3.51,0,0,1,.84,1.69c.15,1.48-.52,3-.24,4.46.18.94.66,2.12,1.57,2.42,1.07.34,2.77.16,3.26-.85,1.42-2.91.84-6.44,1.81-9.53.46-1.48,2.06-2.47,2.41-4a15.43,15.43,0,0,0,.24-7.36c-.71-2.68-3.11-4.65-4.1-7.24-2.16-5.68,2.32-6,3.26-11.34a12,12,0,0,0-.49-6.15c-1.06-2.93-3.92-5.07-4.7-8.08-.61-2.35.44-4.84.72-7.24.2-1.7.69-3.36.73-5.07,0-2.26-.65-4.5-.48-6.76.12-1.66,1.07-3.17,1.32-4.82s-.19-3.09.12-4.59c.08-.37.76-.92,1-.6a10.79,10.79,0,0,1,1.69,4.71c.25,2.64-.31,5.31-.49,8-.18,2.89-.69,5.78-.6,8.68.22,6.89.37,5.61,4.83,9.29.94.78,5.47,5.38,6.87,2.3,1.64-3.6,1.29-7.81,1.93-11.71.25-1.48,1.06-3,.73-4.46-.47-2-2.4-3.54-3-5.55-.3-1,.6-2,.36-3-.43-1.8-1.9-3.25-2.29-5.06-.43-2,.06-4.11-.12-6.15-.1-1.11-.85-2.16-.72-3.26,0-.51.77-1.25,1.2-1a5.57,5.57,0,0,1,1.93,3c.85,2.53.84,5.31,1.69,7.84.37,1.1,1.65,1.77,1.93,2.9.63,2.54-.18,5.37.73,7.84.61,1.68,2.69,2.44,3.62,4,.68,1.14.41,2.71,1.08,3.86.85,1.45,2.66,2.22,3.38,3.74.86,1.82.33,4.1,1.21,5.91,1.39,2.89,5-.44,4.58-2.29C742,401,740,400.25,739,397.78c-.4-.94-.12-2.85-.48-3.8-.71-1.86-2.64-3-3.5-4.83a3.86,3.86,0,0,1-.15-3.17c.41-.93,1.55-1.07,1.9-2a19.53,19.53,0,0,0,.72-2.95,6.79,6.79,0,0,1,.91-1.75c.72-1.24.31-3.09,1.33-4.1.53-.53,1.78,0,2.17.6.76,1.26,0,3.16.84,4.34,1.16,1.56,3.44,1.9,4.83,3.26,1.63,1.6,2.52,3.84,4.1,5.49,2,2.12,3.78.89,5.07,6.63.4,1.81-.8,3.83-.13,5.55.79,2,3.07,3,4.23,4.83.42.65,0,1.63.36,2.29,1.29,2.14,3.41,3.71,4.58,5.91a15.12,15.12,0,0,1,1.33,5.19c.14,1-.68,2.19-.24,3.14,1.16,2.51,3.72,4.22,4.82,6.75.77,1.75-.08,3.9.61,5.67a3.06,3.06,0,0,0,2.41,2.05,2.42,2.42,0,0,0,2.17-1.93,18.71,18.71,0,0,0-.72-8c-.64-2.14-2.57-3.71-3.38-5.79-2.26-5.83-3.44-12.05-5.79-17.85-1.77-4.37-4.37-8.36-6.51-12.55-1.23-2.4-2.24-4.92-3.62-7.24-.88-1.48-2.42-2.54-3.14-4.1-.88-1.92-2.1-4.1-1.57-6.15.29-1.13,1.91,1.43,2.53,2.41,1.5,2.35,2.13,5.2,3.75,7.48,1.36,1.92,3.76,3,5.06,4.95,1.1,1.66.95,3.93,1.93,5.67,1.38,2.45,3.52,4.4,5.07,6.75,2.07,3.13,3.95,6.38,5.79,9.65s3.4,6.46,5.1,9.68c-3.52-11.23-7.39-26.8-12.58-37.06-.63-1.24-17.74-32.7-18.34-33.3s-6.76-4.79-9.65-7.72c-2.54-2.58-4.14-6-6.51-8.69-2-2.27-4.61-3.93-6.52-6.27-1.66-2-3.42-6.57-4.1-6.75-3.44-.92-17.28-7.66-20-9.9-2.57-2.09-3.54-5.85-6.28-7.72-2.22-1.51-5.48-.59-7.84-1.87ZM667.2,516.69c-6.21-4.71-6,8.38-8.69,10.78-2.5,2.19-4.17,7.15-4.54,10.22-.82,6.85-.68,7.79-3.48,14.29-.67,1.56-1.82,4.94.77,4.94,6.74,0,7.22-23.14,10.66-22.92,2.79.18,8-3.61,6.15-7.51-1.09-2.33-3.37-4-.57-6.21,1.35-1.07-.13-3.46-.3-3.59Z" transform="translate(-183.29 -196.1)"/><path class="cls-14" d="M670.9,657.36c-3.06-.29-2.65-2.7-2.65-5.34,0-2.42,12-14.09,13.86-18.43.68-1.59,4.83-8.15,7.29-6.25.85.66,1.66,3.74,4.52-.71,1.64-2.57.13-7.28,7.13-14.33,1.48-1.49,6.17-1.8,4.86,4.48-1.16,5.57,6.91-.14,7.34,10,0,.81-1.38,1.31-1.44,2.17-.17,2.39-7.25-.4-7.25,4.18,0,3.65,5.15,5.09.24,8.94-2.51,2,7.94,6.28,8.57,10.17,0,.11.68,1.58.72,1.8.17.93-.12,2.06.49,2.78.4.48,1.63,8,5.62-.64.95-2,5-5.95,6.83-3.09,1,1.47,2.53.4,2.26,5.81-.14,3,5.62,7.77,2.57,11.05-1.45,1.55-5.69,5.08-6.15,5.93-.62,1.11-1.08,6.2-4.5,5.45-.13,0-1.5-3.66-2.63-.28a6.12,6.12,0,0,0,0,.62,30.67,30.67,0,0,0-.85,4c-.21,3.91-2.77,9.41-7.16,9.41-3.93,0-3.21,2.33-5.74,6.54-1.61,2.7-6.37,15-10.87,13.75-1-.26,1.36-4-1.4-4-2.47,0-4.08,3.32-5.2,5.22C686,718.87,693,715.35,691,721a19,19,0,0,1-2.45,3.94,14.18,14.18,0,0,1-2.66,2.29c-2.47,1.59-10.83,4.25-12.17,6-.75,1-1.09-.85-2.7,3.43-1,2.57-13.82,1-10.55,4.61,1.27,1.41,6.26-2.18,5.89,2.27-.26,3.09-13.76-2.91-12.23,3.74,1,4.44-6.38.39-9.07,6-.63,1.33-5.26,3.82-8,3.19-1.16-.27-9.79,4.2-11.09,5.8-3.35,4.09-6.17.15-1.68-3.51,6.76-5.51.53-3.55,5.2-7.68.51-.45,13.75-8.71,6.36-8a48.23,48.23,0,0,0-6.36,2.7c-.77.55-5.46,1.78-5.46.44,0-5.49,4.1-1.3,4.1-7.16,0-2,12.83-8.12,2.63-6.36-3.44.59-2.34-1.36-6.19,3.15-.69.8-6.78,2.1-9,3.6-.88.58-1.92,1.18-3.2,1.95a52.54,52.54,0,0,1-8.2,4.46c-4.21,1.59-11.35,8.25-17.49,9.39-2.19.4-5.49,3.06-10.07,3.63-9.47,1.18-4.15-3.15-9.24-2.78-1.83.14,2,2.09-1.45,4.52s-8.56,3.26-12.54,4.21c-3.73.89-12.4,1.94-16.11,1.09-1.53-.35-5.74.15-6.81,1.17-7,6.64-10.17,8.54-20.31,5.51-2.85-.85-16.77,2-12.16-4.62,1.59-2.27,26.85-3.06,31.66-6.05,2.74-1.7,12.39,1.32,12.39-5,0-8.43-.85-4.81,5.62-9.06,6.66-4.37,1.48-6.58,7.5-8.45,7-2.16,5.13-.85,10.85-6.11,2.94-2.7,4.07-4.14,7.41-6.89s5-.72,9.88-1.94a6.87,6.87,0,0,0,2-1.33c2.89-2,6.52-9.79,4.49-12.94-1.1-1.71,2.79-4-.15-6.72-3.55-3.26,5.11-10.43,6.55-12.5,3.11-4.48,11.08-10,9.38-15.25-.56-1.7-6.66,7-7.44,4.86-1.38-3.74-9.89.82-2-13.87,4.43-8.25,4.14-3,7.22-5,.46-.29.33-2.32,1.48-3,1.57-1,2.32-2.88,3.26-4.47.41-.69,3.3-7.93,4.14-8,2-.06,2.43,4.29.69,6.64-2.41,3.23-5.67,10.78-4.49,14.69.59,2-1.36,3.88,1,5.24.38.23,2.28,3.69,4.07.67,1-1.66-1.36-5,4.65-5,2.85,0,4.82-6.34,8.92-8.92,5.36-3.37,1.35,7,4.49,2.68.24-.34,3.56-2.65,4.16.31.24,1.19,1.31,1.3,1.21,4.21,0,1.74,4.27-.43,5.55-2.71,1.08-1.92,9.53-10.08,9.53-2.61,0,3.25-2.49,4.06.33,8,.23.31-1.35,3.42,3.18,1.14,0,0,5.43-6.52,5.66-1,0,.64-1.06,2.92,2.41,1,3.64-1.95,1.45-5.39,6.14-8.8a24.34,24.34,0,0,0,5-4.54c5.87-6.15-1-4.66-2.45-.14-.18.6-.42.27-1.33.18Zm-45.48,15.86c-2.17-2.72-4.34,3.1-4.34,5.75,0,3.51.47,6.39-1.63,9.21-3.3,4.47,4,13.67-2.09,15.84-1.72.61-2.68,7.45-5.51,9.62-1,.78-5.65,7-7.78,8.4-1.91,1.27,1.71,2.05-.9,4-1.39,1.06-13.91,11-6.06,10.62,5-.23,9.3-4.51,13.86-7.06,1.84-1,2.46-2.81,6.78-4.55,1.29-.52,5.83-4.09,6,.39.06,1.65,5.41,4.2,5.55-2.16.09-3.55,6.88.48,8.36-5.35.5-2,9.51-.74,6.91-6.17-1.38-2.87,6-1.68.88-4.54-2.5-1.39-4.67,1.87-6.81-4.08-.78-2.18-3.43-2.43-4.17,1-.89,4.1.31,8.48-6.14,9.38-3.45.48-2-7.64-.12-9.81,1.59-1.86-4.44-6.75-1.07-12,1.7-2.65-3-3.94-.68-10.79a7.92,7.92,0,0,0-1-7.68Zm41.23,19.43c-.46,5.09.9,9.83,6.3,12.72,3.06,1.65,10.27-1,9.75-3.08-.21-.83-3.11.54-6.41-.29-2.51-.64-3.86-3.1-3.59-6.77.49-6.52,2.26-9.31,3.4-10.68,1.34-1.61,5.35-4.14,4.09-.83-.59,1.58-10.5,24.88,14.19,6.53,7.43-5.52,14.78-13.65,11.37-22.64-5-13.3-36.88.6-39.1,25Zm20-22.19c-4.43,3.74-8.34,9.2-3.72,8.93.83,0,11-10.65,12.53-3.4.65,3.12-4.52,8.31-7.74,9.58-.62.24-5.94,2.75-3.47,3.8,4.81,2,18.32-9.86,19.27-17.6.46-3.72-2.76-5.12-6-5.35-4.17-.3-7.74,1.37-10.91,4Zm-66.3-47.18c-2.37-3.39-6-.51-5.57-7.06.24-4,1.65-1.68,1-10.34-.88-11.27,12-2.14,16.12-18.49.75-3,2.4.94,3.93-8.93.48-3.12,8.75-9.26,9.89-14.82.39-1.93,7.31-5.5.16,8.71-.83,1.63-4.74,11.34-3.36,13.11,1.1,1.4,1,6.31-2.53,8.14-4.88,2.49-7.05,10.87-8.93,15.92-3.06,8.25-1.73,12.9-9.23,19.85-.39.36-8.69,16.57-7.5,4.68.37-3.68,8.66-7.06,6.05-10.77Z" transform="translate(-183.29 -196.1)"/><path class="cls-15" d="M465,226.49c2.65-.66,31.76-7.1,32.29-6.85,6.95,3.3,11.52,1.88,14.95.63,7.62,2.69,23.64,3,27.54,3.74s24,5.19,30.16,8c-2.79-.4-12.94-3.14-16.37.4-3.06,3.16-6.85,1.89-7.25,2.05-4.16,1.65-.69,4.24,2.56,4.5,2.85.23,6.35,0,7.34.71,11.5,8,24.11,4.71,26.32,7,4.58,4.75,16,4,16.44,5.89,1.77,6.81-8.27.65-10.11,4.18-1.71,3.29-4.81,1.18-9.63,0-12-2.93-9.26,4.46-1.93,4.79,5.25.23,11,6.37,7.88,6.25s-2.22,3.53-5.79,3.38c-20.62-.89,4,5.76,5.37,8,5.87,9.89-10.6.65-10.88.63-9-.65-2.3,6.29-2.1,6.44,1.69,1.26,14.71,4.66,15.09,6.37,1.74,7.89-11.95-.57-13.76-.48-8.74.41-2.62,7,.69,8.42,3.49,1.54,10.74,8.65,10.79,8.67,4.05,1.34,2.76-1.29,2.76-2.86,0-8.1,19.06,1.8,20.77,3.46,11.17,10.85-17.34-2.67-14,4.73,5,11-9.9,10.62-10.68,5.35-1-6.63-9.28-11.37-15.58-11.37-5.41,0-6-2.06-6.3-4.13-1-7.06-10.68-4.92-10,.08a18,18,0,0,0,2.87,6.37c1.83,2.83,2,4.44.85,6.86-1.81,3.86-5.78-2.78-7.64-4.62-5.28-5.24-4.74-9.11-4.38-12,.63-5-1.23-7.8-8.82-6.57-2.61.42-4.18-1.85-5.07-2.65-3.65-3.3-9.11-5.85-10.65,0-.61,2.31,1.39,18.17-3,19.08-8.76,1.79-3.14-10.12-4.51-11.64-3.21-3.59-.26-10.16-2.06-12-5.06-5.12-5.17,9.07-9.5,10.28-9,2.49-1.83-5.52-1.82-5.69.77-11.83-11.12-1.75-11.19-1.75-6.7.27-10.51,12.94-15.86,8.28-4.86-4.25,5-5.85,3.2-9.59-2.39-4.93-10.73,2.75-15.12,1-1.61-.64,2.64-10.88-11.08-.7-8.17,6.06-8-1.56-7-2.39,3.23-2.76-1.75-2.47-5.68-1.08-8.09,2.86-16.37,11.48-21.56,15.75-3.41,2.81-6.32,2.77-5.26-.13,1-2.73,3.29-5.6,1.26-6.81-3.79-2.25-13.92,3.58-16.74.56s-1.13-5,1.83-6.18c1.83-.74,14.75-3.95,17.52-4.5,10-1.95,24.85-3.24,25.15-7.26.53-7.23-27.9,4.91-32.4,3.64-6.08-1.72-14.54,8.05-19.68,3.53-5.37-4.72,4.28-7.81,4.68-8.38,5.58-7.83,31.36-4.26,36.94-11.46,6.05-7.82-6.43-4.12-9.05-5.95-8.06-5.64,16.23-5.83,17-6.52,8.31-7.27-6.47-2.85-8.52-2.87-5.56-.05-32.68,11.09-32.68,4.82s16.42-4.71,24-8.9c4.4-2.45,13-1.45,18.28-1.45,21.85,0,7.45-4.24,6.91-5.07-4.27-6.57,5.17-3.25,7.08-5,2.57-2.42,17.7-1.13,21.48-.51,1.72.29,6.1.74,5.81-1.46-.12-.89-2.52,0-1-1.82s-4.74-4.19-11.12-3.23Zm-83.52,62.32c-11.54-5.09-11.44,8.05-18.81,7.54-5.42-.38-10.16,6.55-13.4,10.43-4.3,5.17-2.41,5.71,1.82,3.68,6.28-3,11.13-9.25,19.27-7.84,6.86,1.18,0-7.5,9.91-7,5.21.24,7.47-4,1.21-6.78Zm-40.67,25c-4,2.75-1.69-1.15-4.11,3.3-1.31,2.41-4.55-.54-5.42,3.75-.28,1.39-5.9,4.53-7.12,6.37-.84,1.28-11.15,10.37-2.48,7.13,1.43-.53,3.66-5.39,8.68-7.36,1.58-.62,7.07-4.77,7.07-6.4,0-4.94,1.47-1.25,4.8-4.34,1.05-1-1-2.73-1.42-2.45Z" transform="translate(-183.29 -196.1)"/><path class="cls-16" d="M768.76,382.82c-.63-1.24-17.74-32.7-18.34-33.3s-6.76-4.79-9.65-7.72c-2.54-2.58-4.14-6-6.51-8.69-2-2.27-4.61-3.93-6.52-6.27-1.66-2-3.42-6.57-4.1-6.75a40.86,40.86,0,0,1-4.7-1.84c-5.46-2.42-13.33-6.43-15.32-8.06-2.57-2.09-3.54-5.85-6.28-7.72-2.22-1.51-5.48-.59-7.84-1.87-3.8-2.06-7-5.09-10.26-8s-5.52-6.53-8.92-9.05a13.07,13.07,0,0,0-6.4-2.29,2,2,0,0,0-1.81,1.45,3,3,0,0,0,.85,2.53c3.79,4,8,7.56,12.18,11.22,3.19,2.82,7,5,9.77,8.2,1.43,1.65,1.44,4.15,2.54,6a8,8,0,0,0,2.53,2.66c2.75,1.8,6.08,2.69,8.69,4.7a8.46,8.46,0,0,1,2.89,4.23c.17.57-.79,1.48-1.33,1.2-2.4-1.26-3.94-3.78-6.27-5.19-.9-.54-2.47-1.3-3.13-.48-.8,1,0,2.56.48,3.74s1.63,1.69,1.93,2.78c.19.68-.92,1.41-.6,2.05a160.23,160.23,0,0,0,8.8,14.72c1.22,1.92,3.08,3.46,4,5.55a2.37,2.37,0,0,1-.48,2.53c-.77.66-2.21,1.11-3,.48-2.07-1.61-2.7-4.56-4.58-6.39a11.15,11.15,0,0,0-4.82-2.78,6.66,6.66,0,0,0-3.22-.2c2.41,4.92,6,9.24,9.62,13.36,5.17,5.91,12.89,9.65,16.89,16.41,3.08,5.21,6.18,11.57,6.51,17.61a15.92,15.92,0,0,1-1.93,8.21c-1.34,2.53-5,3.79-6,6.31.69.6,1.69,1.28,3.15,2.48.94.78,5.47,5.38,6.87,2.3,1.64-3.6,1.29-7.81,1.93-11.71.25-1.48,1.06-3,.73-4.46-.47-2-2.4-3.54-3-5.55-.3-1,.6-2,.36-3-.43-1.8-1.9-3.25-2.29-5.06-.43-2,.06-4.11-.12-6.15-.1-1.11-.85-2.16-.72-3.26,0-.51.77-1.25,1.2-1a5.57,5.57,0,0,1,1.93,3c.85,2.53.84,5.31,1.69,7.84.37,1.1,1.65,1.77,1.93,2.9.63,2.54-.18,5.37.73,7.84.61,1.68,2.69,2.44,3.62,4,.68,1.14.41,2.71,1.08,3.86.85,1.45,2.66,2.22,3.38,3.74.86,1.82.33,4.1,1.21,5.91,1.39,2.89,5-.44,4.58-2.29C742,401,740,400.25,739,397.78c-.4-.94-.12-2.85-.48-3.8-.71-1.86-2.64-3-3.5-4.83a3.86,3.86,0,0,1-.15-3.17c.41-.93,1.55-1.07,1.9-2a19.53,19.53,0,0,0,.72-2.95,6.79,6.79,0,0,1,.91-1.75c.72-1.24.31-3.09,1.33-4.1.53-.53,1.78,0,2.17.6.76,1.26,0,3.16.84,4.34,1.16,1.56,3.44,1.9,4.83,3.26,1.63,1.6,2.52,3.84,4.1,5.49,2,2.12,3.78.89,5.07,6.63.4,1.81-.8,3.83-.13,5.55.79,2,3.07,3,4.23,4.83.42.65,0,1.63.36,2.29,1.29,2.14,3.41,3.71,4.58,5.91a15.12,15.12,0,0,1,1.33,5.19c.14,1-.68,2.19-.24,3.14,1.16,2.51,3.72,4.22,4.82,6.75.77,1.75-.08,3.9.61,5.67a3.06,3.06,0,0,0,2.41,2.05,2.42,2.42,0,0,0,2.17-1.93,18.71,18.71,0,0,0-.72-8c-.64-2.14-2.57-3.71-3.38-5.79-2.26-5.83-3.44-12.05-5.79-17.85-1.77-4.37-4.37-8.36-6.51-12.55-1.23-2.4-2.24-4.92-3.62-7.24-.88-1.48-2.42-2.54-3.14-4.1-.88-1.92-2.1-4.1-1.57-6.15.29-1.13,1.91,1.43,2.53,2.41,1.5,2.35,2.13,5.2,3.75,7.48,1.36,1.92,3.76,3,5.06,4.95,1.1,1.66.95,3.93,1.93,5.67,1.38,2.45,3.52,4.4,5.07,6.75,2.07,3.13,3.95,6.38,5.79,9.65s3.4,6.46,5.1,9.68c-3.52-11.23-7.39-26.8-12.58-37.06Z" transform="translate(-183.29 -196.1)"/><path class="cls-17" d="M298.87,674.46c-19.36.78-31.85,15.45-25.81-31.35.58-4.57,3.23-15.92-5.31-10.13-5.95,4-13.23,16.21-24.13,13-3.52-1-5.19-6-5.31-9.65-.22-6.9,2.53-13.6,4.34-20.26,2.7-9.92,6.84-19.43,9.17-29.44,2.24-9.59-3.9-10.84-8.68-5.79-5.18,5.46-8.83,12.53-15,16.89-6.86,4.87-10.62-9.35-9.65-15,1.08-6.31,4.83-11.93,8.2-17.37,1.6-2.59,2-4.75-1.51-3.5-3.1,1.1-7.35,3-11,4-1.56.42-3.43-.37-2.41-2.9,3.79-9.34,8.55-18.85,9.17-29,.25-4-5.56-6.25-6.76-10.13-.85-2.79,1.46-5.82,1-8.69-.36-2.07-3.38-3.21-3.38-5.31,0-5.74,2.48-11.22,3.38-16.89.63-4,1.51-8,1.21-12.06-.64-8.56-10.88-1.34-4.61-30-1.73,5.32-3.39,10.8-5.53,16.61-3.11,8.47-10,23.13-10.13,25.09s3.67,11.77,3.86,17.86c.14,4.6-3.4,12-2.9,13.51,5.45,16.84,7.85,34.57,10.14,52.12.62,4.8-2,12.87-1.45,14.47.94,2.78,10.16,20.91,14,31.85,1.67,4.77-.19,10.63,2.41,15,10.78,18,12.81,35.09,19.3,52.6.75,2,11.56,8,16.89,12.55,15.87,13.6,17.48,20.47,28,31.85a168,168,0,0,0,24.37,22.19c6,4.34,13.54,6,19.78,9.9,4.45,2.79,7.52,7.5,12.07,10.13,8.5,4.91,17.67,8.63,26.78,12.31,3.78,1.52,7.86,2.18,11.78,3.27a17.78,17.78,0,0,1-6.51-4.48c-.7-.82-.2-2.26-.84-3.13s-2.44-1-3-2,.73-2.21.24-3.14c-.61-1.17-2.07-1.64-3.13-2.41s-2.51-.95-3-2c-.39-.85.94-1.73.85-2.66a4.83,4.83,0,0,0-1.45-3.13c-1.74-1.49-4.46-1.6-6-3.26a3.37,3.37,0,0,1-.49-3.62c.78-1.42,3.4-1.27,4-2.78.49-1.24-.53-2.76-1.44-3.74s-2.55-1.1-3.74-1.8-3.26-1-3.26-2.3c0-1.09,2.19-.6,3.26-.36,2.43.55,4.51,2.42,7,2.66,1.54.14,2.87-1.16,4.35-1.57s3.15-1.34,4.7-1c1.89.45,3.08,2.41,4.83,3.26a7.69,7.69,0,0,0,2.41.24c3.18.39,6.33,1.35,9.53,1.21,1.46-.07,3.31-.52,4-1.81a5.11,5.11,0,0,0-.48-5,5.69,5.69,0,0,0-4.58-2.17c-2.06,0-3.69,1.89-5.67,2.41a7.71,7.71,0,0,1-4.35.24c-2.59-.87-4.53-3.2-7.12-4.1-1.82-.63-4.28.85-5.79-.36-4.95-4-7.95-10-12.54-14.36a5,5,0,0,0-4-1.44c-2.94.49-5.33,2.75-8.21,3.49-1,.26-2-.58-3-.6-1.78,0-3.58.87-5.31.48a7.42,7.42,0,0,1-4.34-2.65c-.85-1.15-.28-2.87-.73-4.22s-.64-2.9-1.81-3.5c-3.38-1.75-7.57-1.44-11-3.14-.86-.43-.19-2.05-.84-2.77-1.65-1.83-4.09-2.81-5.79-4.59-.37-.37-.61-1.77-.12-1.57,1.8.76,2.94,2.66,4.7,3.5,1,.49,2.36-.13,3.38.37,1.33.64,1.94,2.53,3.38,2.89,2.19.55,4.52-.65,6.75-.36,2.54.32,4.81,2,7.36,2.17.87.07,2.13-.58,2.17-1.45.15-3-2.29-5.88-1.68-8.8a4.07,4.07,0,0,1,4.1-2.9l.23,0c-3.26-5.4-5.42-11.79-10-16.1-3.18-3-9.11-1.16-12.55-3.86-5.22-4.09,2.66-12.37-16.65-11.6Z" transform="translate(-183.29 -196.1)"/><path class="cls-18" d="M348.79,729.62c-2.94.49-5.33,2.75-8.21,3.49-1,.26-2-.58-3-.6-1.78,0-3.58.87-5.31.48a7.42,7.42,0,0,1-4.34-2.65c-.85-1.15-.28-2.87-.73-4.22s-.64-2.9-1.81-3.5c-3.38-1.75-7.57-1.44-11-3.14-.86-.43-.19-2.05-.84-2.77-1.65-1.83-4.09-2.81-5.79-4.59-.37-.37-.61-1.77-.12-1.57,1.8.76,2.94,2.66,4.7,3.5,1,.49,2.36-.13,3.38.37,1.33.64,1.94,2.53,3.38,2.89,2.19.55,4.52-.65,6.75-.36,2.54.32,4.81,2,7.36,2.17.87.07,2.13-.58,2.17-1.45.15-3-2.29-5.88-1.68-8.8a4.07,4.07,0,0,1,4.1-2.9c2.08.31,2.63,3.85,4.7,4.22,2.87.52,5.65-1.72,8.57-1.81,2.29-.07,4.57,2,6.75,1.33,1.2-.39-.48-3.1.61-3.74s2.25,1.37,3.5,1.33,1.88-1.55,3-1.57,2.24,1.37,3.5,1.45a17.86,17.86,0,0,0,5.79-.85,7.82,7.82,0,0,0,3.86-1.81,8.12,8.12,0,0,0,1.93-4.46,4.63,4.63,0,0,0-1-3.26c-1.39-1.77-4-2.5-5.07-4.46-.51-.91,1.07-2,.84-3-.45-2.05-2.39-3.6-2.77-5.67-.18-1,1.31-1.77,1.21-2.77-.16-1.47-1.9-2.51-1.93-4,0-.71,1.94-.4,1.81-1.09-.46-2.35-2.65-4.08-3.26-6.39a2.22,2.22,0,0,1,1-2.3l.13-.06a3.47,3.47,0,0,0-2.55,2.1c-.43,1.44,1.43,4.68-.24,6-1,.82-4.8-.26-4.22,3.26.22,1.4,1.34,2.71,1.08,4.1-.17.93-1.73,1-2.17,1.81-.59,1.13.17,2.84-.72,3.74-1.67,1.7-4.55,1.75-6.28,3.38a3.11,3.11,0,0,0-.48,3c.67,2.22,2.37,4,3.26,6.15.73,1.79-1.35,2.19-2.66,2.05-1.94-.2-7.15-2.62-8.68-1.33-3,2.52-3.56,6.89-8.33,2.66-2.22-2-3.58.66-5.55-.24-5.8-2.66-14-7.19-15.58-5.43-.87,1,4.15,9.83-3.12,6.87-4.05-1.64-7.7-4.13-11.58-6.15-19.21-10-7.21,1.73-2.65,8.81a1.73,1.73,0,0,1-.48,2.05c-1,.74-2.73.1-3.62,1a2.16,2.16,0,0,0,0,2.54c2.91,4.19,6.81,7.63,9.89,11.7a10.1,10.1,0,0,1,1.69,3.62c.1.42-.05,1.19-.48,1.2-2.53.08-5.18-2.58-6.64-2.65-.86,0-3.05,3.07-4.58,2.78s-2.67-2.14-4.23-2.78c-1.24-.51-2.66-.36-4-.6l-.08,0c-1.51-.26-3.17-.18-4.5-1a35.21,35.21,0,0,1-6.88-5.67c-2-2-3.25-4.54-5.31-6.39a36.67,36.67,0,0,0-4.86-3.52c8.78,9,11.5,15.22,19.87,24.28a168,168,0,0,0,24.37,22.19c6,4.34,13.54,6,19.78,9.9,4.45,2.79,7.52,7.5,12.07,10.13,8.5,4.91,17.67,8.63,26.78,12.31,3.77,1.52,7.85,2.18,11.77,3.26a17.52,17.52,0,0,1-6.5-4.47c-.7-.82-.2-2.26-.84-3.13s-2.44-1-3-2,.73-2.21.24-3.14c-.61-1.17-2.07-1.64-3.13-2.41s-2.51-.95-3-2c-.39-.85.94-1.73.85-2.66a4.83,4.83,0,0,0-1.45-3.13c-1.74-1.49-4.46-1.6-6-3.26a3.37,3.37,0,0,1-.49-3.62c.78-1.42,3.4-1.27,4-2.78.49-1.24-.53-2.76-1.44-3.74s-2.55-1.1-3.74-1.8-3.26-1-3.26-2.3c0-1.09,2.19-.6,3.26-.36,2.43.55,4.51,2.42,7,2.66,1.54.14,2.87-1.16,4.35-1.57s3.15-1.34,4.7-1c1.89.45,3.08,2.41,4.83,3.26a7.69,7.69,0,0,0,2.41.24c3.18.39,6.33,1.35,9.53,1.21,1.46-.07,3.31-.52,4-1.81a5.11,5.11,0,0,0-.48-5,5.69,5.69,0,0,0-4.58-2.17c-2.06,0-3.69,1.89-5.67,2.41a7.71,7.71,0,0,1-4.35.24c-2.59-.87-4.53-3.2-7.12-4.1-1.82-.63-4.28.85-5.79-.36-4.95-4-7.95-10-12.54-14.36a5,5,0,0,0-4-1.44Z" transform="translate(-183.29 -196.1)"/><path class="cls-19" d="M348.79,729.62c-2.94.49-5.33,2.75-8.21,3.49-1,.26-2-.58-3-.6-1.78,0-3.58.87-5.31.48a7.42,7.42,0,0,1-4.34-2.65c-.85-1.15-.28-2.87-.73-4.22s-.64-2.9-1.81-3.5c-3.38-1.75-7.57-1.44-11-3.14-.86-.43-.19-2.05-.84-2.77-1.65-1.83-4.09-2.81-5.79-4.59-.37-.37-.61-1.77-.12-1.57,1.8.76,2.94,2.66,4.7,3.5,1,.49,2.36-.13,3.38.37,1.33.64,1.94,2.53,3.38,2.89,2.19.55,4.52-.65,6.75-.36,2.54.32,4.81,2,7.36,2.17.87.07,2.13-.58,2.17-1.45.15-3-2.29-5.88-1.68-8.8a4.07,4.07,0,0,1,4.1-2.9l.23,0c-.52-.86-1-1.75-1.48-2.64-1,.26-2,.93-3.11.41-5.8-2.66-14-7.19-15.58-5.43-.87,1,4.15,9.83-3.12,6.87-4.05-1.64-7.7-4.13-11.58-6.15-19.21-10-7.21,1.73-2.65,8.81a1.73,1.73,0,0,1-.48,2.05c-1,.74-2.73.1-3.62,1a2.16,2.16,0,0,0,0,2.54c2.91,4.19,6.81,7.63,9.89,11.7a10.1,10.1,0,0,1,1.69,3.62c.1.42-.05,1.19-.48,1.2-2.53.08-5.18-2.58-6.64-2.65-.86,0-3.05,3.07-4.58,2.78s-2.67-2.14-4.23-2.78c-1.24-.51-2.66-.36-4-.6l-.08,0c-1.51-.26-3.17-.18-4.5-1a35.21,35.21,0,0,1-6.88-5.67c-2-2-3.25-4.54-5.31-6.39a36.67,36.67,0,0,0-4.86-3.52c8.78,9,11.5,15.22,19.87,24.28a168,168,0,0,0,24.37,22.19c6,4.34,13.54,6,19.78,9.9,4.45,2.79,7.52,7.5,12.07,10.13,8.5,4.91,17.67,8.63,26.78,12.31,3.77,1.52,7.85,2.18,11.77,3.26a17.52,17.52,0,0,1-6.5-4.47c-.7-.82-.2-2.26-.84-3.13s-2.44-1-3-2,.73-2.21.24-3.14c-.61-1.17-2.07-1.64-3.13-2.41s-2.51-.95-3-2c-.39-.85.94-1.73.85-2.66a4.83,4.83,0,0,0-1.45-3.13c-1.74-1.49-4.46-1.6-6-3.26a3.37,3.37,0,0,1-.49-3.62c.78-1.42,3.4-1.27,4-2.78.49-1.24-.53-2.76-1.44-3.74s-2.55-1.1-3.74-1.8-3.26-1-3.26-2.3c0-1.09,2.19-.6,3.26-.36,2.43.55,4.51,2.42,7,2.66,1.54.14,2.87-1.16,4.35-1.57s3.15-1.34,4.7-1c1.89.45,3.08,2.41,4.83,3.26a7.69,7.69,0,0,0,2.41.24c3.18.39,6.33,1.35,9.53,1.21,1.46-.07,3.31-.52,4-1.81a5.11,5.11,0,0,0-.48-5,5.69,5.69,0,0,0-4.58-2.17c-2.06,0-3.69,1.89-5.67,2.41a7.71,7.71,0,0,1-4.35.24c-2.59-.87-4.53-3.2-7.12-4.1-1.82-.63-4.28.85-5.79-.36-4.95-4-7.95-10-12.54-14.36a5,5,0,0,0-4-1.44Z" transform="translate(-183.29 -196.1)"/><path class="cls-20" d="M337.47,320.61c0-4.94,1.47-1.25,4.8-4.34,1.05-1-1-2.73-1.42-2.45-4,2.75-1.69-1.15-4.11,3.3-1.31,2.41-4.55-.54-5.42,3.75-.28,1.39-5.9,4.53-7.12,6.37-.84,1.28-11.15,10.37-2.48,7.13,1.43-.53,3.66-5.39,8.68-7.36,1.58-.62,7.07-4.77,7.07-6.4Zm13.66-10.15c6.28-3,11.13-9.25,19.27-7.84,6.86,1.18,0-7.5,9.91-7,5.21.24,7.47-4,1.21-6.78-11.54-5.09-11.44,8.05-18.81,7.54-5.42-.38-10.16,6.55-13.4,10.43-4.3,5.17-2.41,5.71,1.82,3.68Zm41.72-15.36c2.82,3,12.95-2.81,16.74-.56,2,1.21-.26,4.08-1.26,6.81-1.06,2.9,1.85,2.94,5.26.13,5.19-4.27,13.47-12.89,21.56-15.75,3.93-1.39,8.91-1.68,5.68,1.08-1,.83-1.14,8.45,7,2.39,13.72-10.18,9.47.06,11.08.7,4.39,1.75,12.73-5.93,15.12-1,1.81,3.74-8.06,5.34-3.2,9.59,5.35,4.66,9.16-8,15.86-8.28.07,0,12-10.08,11.19,1.75,0,.17-7.15,8.18,1.82,5.69,4.33-1.21,4.44-15.4,9.5-10.28,1.8,1.83-1.15,8.4,2.06,12,1.37,1.52-4.25,13.43,4.51,11.64,4.43-.91,2.43-16.77,3-19.08,1.54-5.89,7-3.34,10.65,0,.89.8,2.46,3.07,5.07,2.65,7.59-1.23,9.45,1.59,8.82,6.57-.36,2.87-.9,6.74,4.38,12,1.86,1.84,5.83,8.48,7.64,4.62,1.13-2.42,1-4-.85-6.86a18,18,0,0,1-2.87-6.37c-.72-5,9-7.14,10-.08.28,2.07.89,4.13,6.3,4.13,6.3,0,14.6,4.74,15.58,11.37.78,5.27,15.69,5.65,10.68-5.35-1.16-2.55,1.46-2.62,4.94-2.05a72,72,0,0,0-4.63-6.58c-.71-.91-1.45-1.79-2.23-2.64-2.82-.3-4.88.42-4.88,3.08,0,1.57,1.29,4.2-2.76,2.86,0,0-7.3-7.13-10.79-8.67-3.31-1.46-9.43-8-.69-8.42,1.1-.05,6.6,3.06,10.35,3.72-2.52-1.51-5.2-2.79-7.58-4.53-3.24-2.37-6.12-5.22-9.17-7.84a2,2,0,0,1-.36-.36c-2.48-3.88-4.07-8.47-7.36-11.7s-7.8-5.6-12.18-7.48c-4-1.74-8.67-1.71-12.79-3.26-6.26-2.36-11.84-6.42-18.22-8.45a110.45,110.45,0,0,0-22.43-4.46c-3.55-.35-7.06,1.09-10.62,1.21a34.65,34.65,0,0,1-8.2-.6c-2-.42-3.55-2.3-5.55-2.3-8.93,0-17.82,1.26-26.67,2.42A32.56,32.56,0,0,0,436.8,250a14,14,0,0,1-1.95,2c-.78.69-25.07.88-17,6.52,2.62,1.83,15.1-1.87,9.05,5.95-5.58,7.2-31.36,3.63-36.94,11.46-.4.57-10.05,3.66-4.68,8.38,5.14,4.52,13.6-5.25,19.68-3.53,4.5,1.27,32.93-10.87,32.4-3.64-.3,4-15.19,5.31-25.15,7.26-2.77.55-15.69,3.76-17.52,4.5-3,1.18-4.74,3.07-1.83,6.18Z" transform="translate(-183.29 -196.1)"/><path class="cls-21" d="M313.2,571.7c-1.95-.84-4.12,1.35-5.8,2.65-2.65,2.06-3.76,6.35-7,7.24-3.71,1-7.55-2.83-11.34-2.17-2.41.42-2.87,5-5.31,5.07-2.65.1-5.43-2.17-6.52-4.59-1-2.23,1.46-4.8,1.21-7.24s-3.17-4.39-2.65-6.75c1.13-5.13,5.3-9.12,7.24-14,.74-1.88,2.06-4.51.72-6-1.08-1.21-3,1.42-4.58,1.69-3.59.62-7.51,2.38-10.86,1a8.12,8.12,0,0,1-4.59-7.48c.19-2.25,4.45-1.9,5.55-3.86,1.27-2.27-.12-5.37,1-7.73a4.3,4.3,0,0,1,3.62-2.17c2.18,0,4.19,2.61,6.27,1.93,2.54-.83,3.06-4.83,5.55-5.79,3.15-1.21,7,1.06,10.13-.24,1.48-.61,1.6-3,1.45-4.58-.35-3.65-3.46-7-2.89-10.62.31-2,4-1.65,5.06-3.38s-.32-4.3.73-6a20,20,0,0,1,7-6.75c3.54-2.07,8.89-1,11.59-4.11,2.06-2.36-.28-6.31.24-9.41.61-3.71,1.3-7.56,3.13-10.86.69-1.22,3-.56,3.86-1.68,2.37-3.18,2.44-7.9,5.31-10.62a5.93,5.93,0,0,1,1.5-1,9.71,9.71,0,0,0-4.21,1.66c-1.68,1.44-.93,6.39-4.23,6.64-.91.06-5.07-2.65-6.87.24-1.33,2.12,1.12,6.64.72,8.08-.24.86-1.77.77-2.17,1.57-.54,1.08.41,6.29-4.22,8.2-2.51,1-8.5-3.24-10.5,2.54-.93,2.68,2.37,8.49-1.69,10-1.24.46-2.83.37-3.74,1.33s0,2.84-1,3.62c-15,11.81-27.2,1.68-41.5,14.35-6.4,5.67-6,10.82.54,10.08,2.87-.33,5.47-1.08,6.7,1.5.82,1.73-.31,4-1.45,5.55-1.28,1.72-4.29,3.66-7.55,5.73,0,.08-.08.17-.13.25-.87,1.64-2.64,2.69-3.5,4.34a16.1,16.1,0,0,0-1,4.22c0,.16-.15.42,0,.49,1.47.69,3.21.8,4.58,1.69,1.75,1.12,4.25,2.17,4.59,4.22s-2.75,3.81-2.9,6a5.3,5.3,0,0,0,2.17,4.71c3.55,2.07,7.85,2.47,11.83,3.49.74.19,2-.58,2.29.12.62,1.53-.95,3.46-.24,5s3.67,1.66,4.22,3.38-1.37,3.73-1.33,5.67a9.12,9.12,0,0,0,1.57,5.07,60.12,60.12,0,0,0,9.53,10.25c2.27,2,4.74,4.4,7.72,4.58s5.23-3.36,8.21-3.61c2.08-.18,5.08.44,5.79,2.41,1.1,3.06-2.75,6.67-1.45,9.65a2,2,0,0,0,.64.8c3.28-3.13,6-6.94,9.21-10.15,5.76-5.73,6.81,2.82,15.92-1,3-1.24,5.36-3.59,8.08-5.31,8.62-5.44,8.54-.5,5.58,2.64-3.76,4,1.53,6.9,3.23,2.61,1-2.56,2.25-7,3.62-11,2.55-7.41,6.58-12.43,10-7.83.95,1.28,2.7,1.71,4-.77.82-1.57,2.09-6.95,3.34-11.09,2.16-7.18,3.77-6.47,3-.23a28.32,28.32,0,0,0-.41,6.41c.51,4.13,3.12,4.64,5,.53,1.74-3.87,3.6-10.85,5-15a14.78,14.78,0,0,1,6.55-7.83c2.6-1.31,2.83.28,2.75,1.48,0,.83.17,1.55,1,1.77,4.74,1.32,20.68-19.87,23.27-24.13a34.32,34.32,0,0,1,4.22-6c2.07-2.19,9.82-5.91,12.67-7.24,4-1.85,8.26-3,12.06-5.19a26.56,26.56,0,0,0,6.64-5.55c1.76-2,2.71-4.6,4.22-6.81,1.72-2.54,4.54-5.73,5.77-3.45a3.68,3.68,0,0,0-.4-1c-.88-1.48-3.71-.09-5.07,1-4.06,3.12-6.58,7.95-10.62,11.1-5.2,4.06-11.23,7-16.89,10.37-3.27,2-7,3.34-9.89,5.8-2.71,2.27-4.14,5.81-6.75,8.2-5.47,5-10.93,10.14-17.38,13.75-4.37,2.45-10.17,1.52-14.47,4.1-2.19,1.32-1.21,5.91-3.62,6.76-3,1.07-6.25-2.76-9.41-2.17-1.92.35-2.81,2.81-3.62,4.58-1.48,3.22-1,7.33-3.14,10.14-1.62,2.11-5.25,1.6-7.24,3.37-3.53,3.17-5.41,7.91-8.92,11.1-2.86,2.6-6.15,5.11-9.9,6a11.12,11.12,0,0,1-8.68-1.44c-2-1.42-1.78-4.68-3.14-6.76-1.88-2.87-3.37-6.6-6.51-8Zm-45.42-71.89a64.54,64.54,0,0,1,8.65-.73c4.87-.08,4-4.64-.18-8a8.38,8.38,0,0,0-8.18-.94c-.84.44-1.28,1.92-2.05,2.49-1.5,1.12-6.13,2.06-9.45,4.57a10.6,10.6,0,0,0-3.54,3.66c-.93,2,0,2.34.75,2.29,4.77-.35,9.28-2.53,14-3.36Z" transform="translate(-183.29 -196.1)"/><path class="cls-22" d="M382.2,235.26C389.48,234,407.44,225,418,222c11.09-3.12,15.82-3.06,27.52-3.43,3.61-.12,5.17-1.78,5.46-3.92,1.55-11.39-25.37-26.07-40.14-14.06-12-6.17-27.41-7.38-36.61,5.88-7.12,10.26-12.26,32.2,8,28.8Z" transform="translate(-183.29 -196.1)"/><path class="cls-23" d="M381.38,212.83c-9,5.55-11.74,19.55-2.54,22.77a25.16,25.16,0,0,0,3.36-.34C389.48,234,407.44,225,418,222c10.2-2.87,15-3.05,24.83-3.35,10.14-6.66-12.33-16-20-15.2-8,.88-9.75,8-9.27,12.22-8.67-4.81-21.93-9.1-32.13-2.83Z" transform="translate(-183.29 -196.1)"/><path class="cls-24" d="M291.79,663.58C282.47,652.25,267,625.68,272,595.2c4.43-27.1,24.22-26.45,31.65-23-.82-21.57,6.24-44.54,22.1-58.73,20.56-18.39,38.49,1.95,31.73,17.82-25.7,60.35-42.81,98.79-14.58,166.8,20.73,50,62.35,92.39,106.53,115-44.71,16.23-101.78-4.74-141.32-52.26C295,745,286,719.86,299.66,711.8c-8.34-2.66-19.73-14.23-21.9-27.24-1.44-8.66,2.42-18.83,14-21Z" transform="translate(-183.29 -196.1)"/><path class="cls-25" d="M346.6,557.22c1-23.47-13.52-32.8-28-13-11.24,15.4-11.21,38.59-6,50.68-45.16-14.27-33.4,50.66-10.8,76.6C269.07,678.72,289.37,711,312.32,713c-28,34,37.63,97.56,103.87,105.46A93.41,93.41,0,0,0,449.45,813c-44.18-22.58-85.8-65-106.53-115-24-57.76-15.24-94.2,3.68-140.84Z" transform="translate(-183.29 -196.1)"/><path class="cls-26" d="M232.6,614.13c6.82-16.47-1.62-38,15.25-106.1,3.07-12.41,8.59-24.4,12.35-36.32.82-2.58,2.34-7-5.31-6.14-9,1.07-23.73,16.84-28,24.3-8.22,14.45-5.66,24.19.84,35.06-22.89,7.55-40.3,24.91-38.83,51,1.92,34.2,37.95,52,43.67,38.23Z" transform="translate(-183.29 -196.1)"/><path class="cls-27" d="M215,581.87C190.09,594,188.72,568,194.86,549.74a46.22,46.22,0,0,0-5.93,26.16c1.92,34.2,37.95,52,43.67,38.23,6.82-16.47-1.62-38,15.25-106.1,3.07-12.41,8.59-24.4,12.35-36.32.82-2.58,2.34-7-5.31-6.14-4.95.59-11.59,5.58-17.28,11.2,7.83-6.35,12.9-8.25,13.37-6.69.81,2.7-5.87,14.86-9.24,31.06-2.38,11.46,1.36,26.35-11.19,25.1,11.22,20.69,6.54,44.88-15.52,55.63Z" transform="translate(-183.29 -196.1)"/><path class="cls-28" d="M327.91,416.18c3-14.21,15.36-27.3,27.72-35.11-8.46-4.66-24.93-20.85-3.2-49,21-27.18,64-44.25,74.74-15.33,6.79-7.47,14.74-12.94,24.55-11.06,4.15.79,7.6,4.31,9.36,8.57,4.61-16,27-41.41,57.66-37.68,40.17,4.88,47.61,42.18,6.17,57-28,10-53.61,8.73-85.59,23-33.8,15.05-49.25,25-69.52,55.27-3.91,5.84-6.7,12.41-10.89,18-16.5,22.23-36.37,11.64-31-13.66Z" transform="translate(-183.29 -196.1)"/><path class="cls-29" d="M370.08,393.62c-.31,11.3-14.56,33.34-24.18,39.61-7.53,4.91-15.08,4.79-18.62-5.07,2.2,16,18.06,20,31.63,1.68,4.19-5.64,7-12.21,10.89-18,20.27-30.31,35.72-40.22,69.52-55.27,32-14.24,57.54-13,85.59-23,41.44-14.8,34-52.1-6.17-57-1-.13-2-.22-3-.28,34.81,7.13,34.48,31.37,17,45.73-13,10.68-34.37,17.94-54.51,15.28-7.43-1-13.51-4.57-18-13.53-4.71,22.09-30.51,23.31-33.67-1.84.82,40-38.53,66.5-66.73,59.69,7.82,2.47,10.44,6.8,10.3,12Z" transform="translate(-183.29 -196.1)"/><path class="cls-30" d="M776.71,404.29c23.18-44.94-31.47-90.51-62.26-54.91-9-22.14-52.34-29.51-68.36-8a34.7,34.7,0,0,0-5.36,29.83c-13.13-8.16-26.34.38-28.47,19.88C568.83,380.59,505.51,404,481.53,460.42c-20.8,48.95,2.68,84.91,39.62,81.49,37.16-3.43,44.6-47.86,60.56-74.69,9.56-16.08,23.84-37.26,42.48-24.43,7,4.83,21.48,15.84,36.34,4.81,16.69-12.39,28.68-36.24,53.57-52.65,26-17.11,54.36-20.9,62.61,9.34Z" transform="translate(-183.29 -196.1)"/><path class="cls-31" d="M609.34,410.05c-29.35,13.08-38.44,46.63-55.08,71.82-30.54,46.25-80.22,53.58-78-6-10.28,40.83,12,69.06,44.87,66,37.16-3.43,44.6-47.86,60.56-74.69,9.56-16.08,23.84-37.26,42.48-24.43,7,4.83,21.48,15.84,36.34,4.81,16.69-12.39,28.68-36.24,53.57-52.65,26-17.11,54.36-20.9,62.61,9.34,13.11-25.4,1.34-51-16.92-62,6.28,7.55,12.85,18.53,2.18,25.3s-36.4-3.58-47-11.42c-.69,35.15-34.07,42.07-60.94,26.54,6.72,4.42,12.19,9.3,15.67,14.5,12.93,19.27-7.15,33.45-22.61,28.76-4.71-1.43-8.71-5.1-11.52-11.64-4.52-10.49-15.92-8.85-26.26-4.24Z" transform="translate(-183.29 -196.1)"/><path class="cls-32" d="M814.31,419.44c-2.22-2.5-5.61-5.13-8.91-4.61-2.85.44-5.11,3.95-5.3,6.82-.62,9,15.15,35.38,11.22,65.73-1,7.51-3.41,12.93-1.58,14.23,1.54,1.09,6.55-.73,14-7.1,13.7-11.64,25.43-31.11,12.26-44.7a39.74,39.74,0,0,0-16.62-10.54c1.38-7.09.51-13.49-5.11-19.83Z" transform="translate(-183.29 -196.1)"/><path class="cls-33" d="M832.19,463.47c-1.34-10.67-11.7-18.81-21.54-20.27,2.07-9.34-4.89-21-9.79-16.14,3,11.89,13.77,34.7,10.46,60.32-1,7.51-3.41,12.93-1.58,14.23,1,.71,3.5.18,7.19-2.05,10.55-9.11,16.79-23.91,15.26-36.09Z" transform="translate(-183.29 -196.1)"/><path class="cls-34" d="M621.92,792.69c-90.78,67.58-170.8-63.58-104.13-89-17.72-58.47,23.39-128.82,67-118.69,10.16,2.36,20.09,11.45,21.53,29.41,10.53-38.26,66.74-70,73.4-29.44,30-54.4,102-50.82,81.24,36-8.79,36.85-21.31,57.55-38.68,77.38-31.36,35.82-97.25,28.39-44.47-33,3.3-3.84,10.94-13.49,18.06-23.84,14.76-21.45,17.87-48.58-14.83-35.66-8.73,3.45-21.43,14.24-28,17.53-16.63,8.33-25.31,7.43-41.17,17.15C568.11,667.34,582.09,687.72,585,712c1.92,16.13-2.74,21.86-8.76,25.76-16.12,10.47-27.73,25.85-15,45.62,10.77,16.75,40.85,20.42,60.7,9.33Z" transform="translate(-183.29 -196.1)"/><path class="cls-35" d="M561.22,783.36c-12.73-19.77-1.12-35.15,15-45.62,6-3.9,10.68-9.63,8.76-25.76-2.89-24.26-16.87-44.64,26.89-71.45,15.86-9.72,24.54-8.82,41.17-17.15,6.58-3.29,19.28-14.08,28-17.53,32.7-12.92,29.59,14.21,14.83,35.66-7.12,10.35-14.76,20-18.06,23.84-38.52,44.81-13.83,60.87,14.51,52.36a45.09,45.09,0,0,0,20.86-12.94c29.75-31.84,50-94.78,16.66-119.74-13.4-10-33.9-8.16-54.57,17.7,8.35-45.39-60.5-9.31-71.69,33.79-1.39-52.94-46.28-31.91-56,10.77-5.71,25.16-1.18,49.59,7.69,70.33-16.26-2.22-28.7,4.92-33.21,17.15C506.5,777,570.7,822.59,621.92,792.69c-19.85,11.09-49.93,7.42-60.7-9.33Z" transform="translate(-183.29 -196.1)"/></g></g></svg>