<?xml version="1.0" encoding="utf-8"?>
<!-- Generator: Adobe Illustrator 23.1.0, SVG Export Plug-In . SVG Version: 6.00 Build 0)  -->
<svg version="1.1" id="Layer_1" xmlns="http://www.w3.org/2000/svg" xmlns:xlink="http://www.w3.org/1999/xlink" x="0px" y="0px"
	 viewBox="0 0 204 204" style="enable-background:new 0 0 204 204;" xml:space="preserve">
<style type="text/css">
	.st0{fill:url(#SVGID_1_);}
	.st1{fill:#FFFFFF;}
</style>
<linearGradient id="SVGID_1_" gradientUnits="userSpaceOnUse" x1="-12.4729" y1="103.4204" x2="228.0859" y2="102.5369" gradientTransform="matrix(1 0 0 -1 0 205)">
	<stop  offset="0" style="stop-color:#788BDD"/>
	<stop  offset="1" style="stop-color:#4A2FBD"/>
</linearGradient>
<path class="st0" d="M187.6,69.9c5.5-2,11.6,0.7,13.1,6.3c5.5,21.2,4.1,43.8-4.3,64.3c-9.7,23.8-28,43-51.3,53.9
	c-23.3,10.9-49.7,12.6-74.2,4.8c-24.5-7.8-45.1-24.5-57.7-46.9C0.6,130-3.2,103.7,2.7,78.7c5.9-25,20.9-46.8,42.2-61.2
	S92.1-2.7,117.4,1.2c21.9,3.3,42,13.7,57.4,29.4c4.1,4.2,3.3,10.8-1.3,14.5c-4.6,3.6-11.1,2.8-15.3-1.2c-12-11.6-27.3-19.2-44-21.8
	C94.1,18.9,73.6,23.6,56.7,35C39.8,46.4,27.9,63.7,23.2,83.5c-4.7,19.8-1.7,40.7,8.4,58.4c10,17.7,26.4,31,45.8,37.2
	c19.4,6.2,40.4,4.8,58.9-3.8c18.4-8.6,33-23.9,40.7-42.7c6.4-15.6,7.7-32.7,3.9-48.9C179.5,78,182.2,71.9,187.6,69.9z"/>
<path class="st1" d="M66.1,99.2c0,4.6,3.2,8.4,8,8.4c0.6,0,1-0.1,1.3-0.2l-5.4,7.7h7.6l5.5-8.8c1.4-2.3,2.3-4.9,2.3-7.2
	c0-5.3-4.1-9.2-9.6-9.2C70.3,89.8,66.1,93.8,66.1,99.2z M72.4,98.9c0-1.8,1.5-3.2,3.3-3.2s3.3,1.4,3.3,3.3s-1.4,3.2-3.3,3.2
	S72.4,100.7,72.4,98.9z M94.4,104.9c0.5-0.9,1.6-1.5,2.9-1.5c1.8,0,3.2,1.3,3.2,3.1s-1.3,3.2-3.2,3.2c-1.9,0-3-1.3-3.1-2.4h-6.3
	c0.1,5,3.8,8.3,9.5,8.3c5.4,0,9.5-4,9.5-9.4c0-4.5-3.2-8.2-7.9-8.2c-1.5,0-2.9,0.4-4.1,1.2l0.5-3.2h9.8v-5.6H90.4l-1.8,13.4
	L94.4,104.9z M121.4,96c0-3.4-2.8-6.1-6.3-6.1c-3.6,0-6.3,2.7-6.3,6.1s2.8,6.1,6.3,6.1C118.6,102.1,121.4,99.4,121.4,96z M117.1,96
	c0,1.3-0.9,2.1-2.1,2.1c-1.2,0-2.1-0.9-2.1-2.1s0.9-2.1,2.1-2.1C116.2,93.9,117.1,94.8,117.1,96z M134.9,90.3h-5.5L111,115h5.5
	L134.9,90.3z M124.5,109.2c0,3.4,2.8,6.1,6.3,6.1c3.6,0,6.3-2.7,6.3-6.1c0-3.4-2.8-6.1-6.3-6.1C127.3,103.2,124.5,105.8,124.5,109.2
	z M128.7,109.2c0-1.3,0.9-2.1,2.1-2.1s2.1,0.9,2.1,2.1c0,1.3-0.9,2.1-2.1,2.1S128.7,110.5,128.7,109.2z"/>
</svg>
