<?xml version="1.0" encoding="utf-8"?>
<!-- Generator: Adobe Illustrator 23.1.0, SVG Export Plug-In . SVG Version: 6.00 Build 0)  -->
<svg version="1.1" id="Layer_1" xmlns="http://www.w3.org/2000/svg" xmlns:xlink="http://www.w3.org/1999/xlink" x="0px" y="0px"
	 viewBox="0 0 204 204" style="enable-background:new 0 0 204 204;" xml:space="preserve">
<style type="text/css">
	.st0{fill:url(#SVGID_1_);}
	.st1{fill:#FFFFFF;}
</style>
<linearGradient id="SVGID_1_" gradientUnits="userSpaceOnUse" x1="-2.305850e-04" y1="102" x2="204.0002" y2="102">
	<stop  offset="0" style="stop-color:#788BDD"/>
	<stop  offset="1" style="stop-color:#4A2FBD"/>
</linearGradient>
<path class="st0" d="M187.6,69.9c5.5-2,11.6,0.7,13.1,6.3c5.5,21.2,4.1,43.8-4.3,64.3c-9.7,23.8-28,43-51.3,53.9
	c-23.3,10.9-49.7,12.6-74.2,4.8c-24.5-7.8-45.1-24.5-57.7-46.9C0.6,130-3.2,103.7,2.7,78.7c5.9-25,20.9-46.8,42.2-61.2
	S92.1-2.7,117.4,1.2c21.9,3.3,42,13.7,57.4,29.4c4.1,4.2,3.3,10.8-1.3,14.5c-4.6,3.6-11.1,2.8-15.3-1.2c-12-11.6-27.3-19.2-44-21.8
	C94.1,18.9,73.6,23.6,56.7,35C39.8,46.4,27.9,63.7,23.2,83.5c-4.7,19.8-1.7,40.7,8.4,58.4c10,17.7,26.4,31,45.8,37.2
	c19.4,6.2,40.4,4.8,58.9-3.8c18.4-8.6,33-23.9,40.7-42.7c6.4-15.6,7.7-32.7,3.9-48.9C179.5,78,182.2,71.9,187.6,69.9z"/>
<path class="st1" d="M75.7,89.8c-4.6,0-8.5,2.8-8.5,7.2c0,2.1,1.1,3.7,2.8,4.7c-1.9,1-3.9,3-3.9,5.9c0,5,4.6,8,9.6,8
	c5,0,9.6-3,9.6-8c0-2.9-2-4.9-3.9-5.9c1.7-1,2.8-2.6,2.8-4.7C84.2,92.6,80.3,89.8,75.7,89.8z M78.8,107.2c0,1.7-1.3,2.9-3.1,2.9
	s-3.1-1.2-3.1-2.9c0-1.6,1.3-2.9,3.1-2.9S78.8,105.6,78.8,107.2z M75.7,95.1c1.4,0,2.6,1,2.6,2.4s-1.1,2.4-2.6,2.4
	c-1.5,0-2.6-1-2.6-2.4S74.2,95.1,75.7,95.1z M109.5,102.7c0-6.8-3.9-12.9-10.9-12.9c-7.1,0-11,6-11,12.9s3.9,12.9,11,12.9
	C105.6,115.5,109.5,109.5,109.5,102.7z M102.8,102.7c0,3.3-1.3,6.6-4.2,6.6c-3,0-4.3-3.3-4.3-6.6s1.3-6.6,4.3-6.6
	C101.5,96,102.8,99.3,102.8,102.7z M124.4,96c0-3.4-2.8-6.1-6.3-6.1c-3.6,0-6.3,2.7-6.3,6.1s2.8,6.1,6.3,6.1
	C121.6,102.1,124.4,99.4,124.4,96z M120.1,96c0,1.3-0.9,2.1-2.1,2.1c-1.2,0-2.1-0.9-2.1-2.1s0.9-2.1,2.1-2.1
	C119.2,93.9,120.1,94.8,120.1,96z M137.9,90.3h-5.5L114,115h5.5L137.9,90.3z M127.5,109.2c0,3.4,2.8,6.1,6.3,6.1s6.3-2.7,6.3-6.1
	c0-3.4-2.8-6.1-6.3-6.1S127.5,105.8,127.5,109.2z M131.8,109.2c0-1.3,0.9-2.1,2.1-2.1s2.1,0.9,2.1,2.1c0,1.3-0.9,2.1-2.1,2.1
	S131.8,110.5,131.8,109.2z"/>
</svg>
