<?xml version="1.0" encoding="utf-8"?>
<!-- Generator: Adobe Illustrator 23.1.0, SVG Export Plug-In . SVG Version: 6.00 Build 0)  -->
<svg version="1.1" id="Layer_1" xmlns="http://www.w3.org/2000/svg" xmlns:xlink="http://www.w3.org/1999/xlink" x="0px" y="0px"
	 viewBox="0 0 155 41" style="enable-background:new 0 0 155 41;" xml:space="preserve">
<style type="text/css">
	.st0{fill:#FFFFFF;}
</style>
<g>
	<g>
		<path class="st0" d="M0.8,18.7L20.1,8.5v5.6l-13.8,7l13.8,7.2v5.6L0.8,23.6V18.7z"/>
		<path class="st0" d="M27.2,3.5h11.5c8.4,0,13.9,5.8,13.9,14.6c0,8.8-5.3,15.4-14.2,15.4H27.2V3.5z M33.5,28.2h4.7
			c5.5,0,8-4.3,8-10.1c0-4.9-2.3-9.4-8-9.4h-4.7V28.2z"/>
		<path class="st0" d="M62.6,23.5c0,2.8,1.4,5.6,4.4,5.6c2.5,0,3.2-1,3.8-2.4h6c-0.8,2.8-3.1,7.3-10,7.3c-7.2,0-10.3-5.6-10.3-11.5
			c0-7.1,3.5-12.1,10.5-12.1c7.5,0,10,5.6,10,11.2c0,0.8,0,1.3-0.1,1.9H62.6z M71,19.7c0-2.6-1.1-4.8-4-4.8c-2.9,0-4,2.1-4.3,4.8H71
			z"/>
		<path class="st0" d="M85.6,10.9c2.1,7.6,3.8,14.3,4.2,17h0c0.6-3.7,2.7-10.5,4.6-17h6l-7.7,22.5h-6.3l-7.4-22.5H85.6z"/>
		<path class="st0" d="M113.2,35.7L124.8,3h5l-11.6,32.7H113.2z"/>
		<path class="st0" d="M154.3,23.7L135,33.8v-5.6l13.8-7L135,14.1V8.5l19.2,10.3V23.7z"/>
	</g>
</g>
</svg>
