<?xml version="1.0" encoding="utf-8"?>
<!-- Generator: Adobe Illustrator 23.1.0, SVG Export Plug-In . SVG Version: 6.00 Build 0)  -->
<svg version="1.1" id="Layer_1" xmlns="http://www.w3.org/2000/svg" xmlns:xlink="http://www.w3.org/1999/xlink" x="0px" y="0px"
	 viewBox="0 0 742.1 618.1" style="enable-background:new 0 0 742.1 618.1;" xml:space="preserve">
<style type="text/css">
	.st0{fill:url(#SVGID_1_);}
	.st1{fill:url(#SVGID_2_);}
	.st2{fill:url(#SVGID_3_);}
	.st3{fill:url(#SVGID_4_);}
	.st4{fill:url(#SVGID_5_);}
	.st5{opacity:0.43;fill:#CB707C;}
	.st6{fill:#211738;}
	.st7{fill:#41377A;}
	.st8{opacity:0.33;fill:#C44F4F;}
	.st9{fill:#0D0B17;}
	.st10{fill-rule:evenodd;clip-rule:evenodd;fill:#A9BBFD;}
</style>
<title>Untitled-2</title>
<g>
	<g>
		<g>
			
				<linearGradient id="SVGID_1_" gradientUnits="userSpaceOnUse" x1="373.0181" y1="673.8557" x2="520.4402" y2="154.4344" gradientTransform="matrix(-1 0 0 1 917.4153 0)">
				<stop  offset="0" style="stop-color:#211738"/>
				<stop  offset="0.304" style="stop-color:#271741"/>
				<stop  offset="0.8064" style="stop-color:#37165A"/>
				<stop  offset="1" style="stop-color:#3E1666"/>
			</linearGradient>
			<path class="st0" d="M267.2,255.5c0.1,1.9,0.2,3.8,0.3,5.7c1.7,31.1,7.2,56.3,17.7,63.5c7.7,5.3,15.2,9.6,22.2,13
				c0.3,0.2,0.4,0.3,0.4,0.3c3.7,1.9,7.3,3.4,10.7,4.9c15.5,6.4,26.7,8.3,29.4,8.7c0.4,0,0.6,0,0.6,0l-0.3,13.3l0,0.3l-1.2,56.8
				l-1,50.2l5.3,63.4l0.3,3.4l0.8,9.9v0.1l0.3,3c0,0,1.7,0.6,4,1.3c0.6,0.2,1.2,0.3,1.9,0.5c0.4,0.1,0.8,0.2,1.2,0.3
				c0.6,0.1,1.2,0.2,1.8,0.3c0.1,0,0.1,0,0.2,0c0.6,0.1,1.2,0.1,1.7,0.2h2.6c0.3,0,0.6,0,0.9-0.1c0,0,0.1,0,0.1,0
				c0.4,0,0.7-0.1,1.1-0.2c0.7-0.2,1.4-0.4,1.9-0.8c0.3-0.2,0.6-0.3,0.8-0.6c0.1-0.1,0.3-0.3,0.4-0.5c0.1-0.2,0.3-0.4,0.4-0.6
				c0-0.1,0.1-0.2,0.1-0.3c0.2-0.3,0.3-0.7,0.4-1.2c0.1-0.5,0.2-1,0.2-1.6c0-2.2-0.8-5-2.6-8.8c-0.4-0.9-1-2-1.6-3.1
				c-0.3-0.5-0.5-0.9-0.8-1.4c-3.1-5.9-5.6-12.8-7.7-19.8c-0.9-3-1.6-6.1-2.3-9.1c-1-4.2-1.8-8.4-2.5-12.4c-0.3-1.8-0.6-3.5-0.8-5.1
				c-0.2-0.9-0.3-1.9-0.4-2.7c-0.3-1.8-0.5-3.5-0.6-5.1c-0.2-1.7-0.3-3.2-0.5-4.7c-0.1-1.5-0.3-2.8-0.3-4.1
				c-0.1-0.6-0.1-1.1-0.1-1.6c-0.1-1.1-0.2-2.1-0.2-2.9c-0.2-3-0.3-4.8-0.3-4.8l23.7-95l-3.4-16c0,0,62.6,42.9,114.1,21.6
				c6.2-2.6,12.4-6.1,18.1-10.7c10.8-8.7,15.8,12.8,18,33.7c1.8,16.7,1.9,33.1,1.9,33.1l29.1,62.9l-5.8,39.6l-2.3,15.6l-0.1,1.1
				l-1,6.9l0,0.4l5.1-0.4l3.1-0.2l12.1-0.9l0.3-22.8l0.6-47.8c0,0,5.8-8,2.9-15.4c-2.8-7.4-10.2-0.3-18.3-17.1
				c-8.1-16.7,25.5-151.6,25.5-151.6l-1-2.6l-1.4-3.4l-10.6-26.6c0.5,0.4,5.4,4.2,11.3,9.6c0.7,0.6,1.4,1.2,2.2,2
				c1.4,1.3,2.9,2.8,4.3,4.3c0.7,0.7,1.5,1.5,2.2,2.3c2.2,2.3,4.3,4.7,6.2,7.1c0.7,0.9,1.4,1.9,2,2.8c2,2.9,3.7,5.8,4.6,8.5
				c5.7,15.8,13.7,43.4,13.7,43.4l5.6-10.2l-16.2-33.5c0,0-2.5-3.5-6-8.5c-0.6-0.9-1.3-1.8-1.9-2.7c-8.9-12.5-22.5-31-26.3-32.9
				c-5.7-2.8-29.9-103.8-57.4-106.1c-5.8-0.5-11.1,2-16,6.2c-18.1,15.6-28.9,55.5-28.9,55.5s-11.1-11.4-24.2-22.9
				c-2.2-2-4.5-4-6.8-5.9c-11-9.2-22.3-17.3-28.6-17.9c-0.6-0.1-1.1-0.1-1.7-0.1h-1.5c-0.4,0-0.8,0-1.2,0.1
				c-4.4,0.5-8.6,2.5-12.4,5.4c-17.2,13-27.6,44.6-27.6,44.6s-5.2,2.2-13,3.6c-0.2,0-0.4,0.1-0.6,0.1c-8.7,1.5-20.6,1.7-31.9-3.6
				c-5-2.4-6.3-8.5-5.7-16.7c0-0.3,0-0.6,0-0.9c0.5-5.7,1.7-12.4,3.2-19.5c0.3-1,0.4-2,0.6-3c3.2-14.7,7-31.1,6.8-45.2
				c-0.1-11.4-3-21.3-10.9-27.5c-0.7-0.6-1.4-1.1-2.2-1.5c-8.1-5.2-15.4,2.5-21.3,17.8c-1,2.6-1.9,5.3-2.9,8.4
				c-0.2,0.6-0.4,1.2-0.6,1.8c-1.7,5.6-3.2,11.9-4.6,18.7c-0.1,0.7-0.3,1.5-0.5,2.3c-0.2,0.8-0.3,1.7-0.5,2.5
				C268.7,185.6,266,223.2,267.2,255.5z"/>
			
				<linearGradient id="SVGID_2_" gradientUnits="userSpaceOnUse" x1="350.5657" y1="672.538" x2="500.8706" y2="142.9599" gradientTransform="matrix(-1 0 0 1 917.4153 0)">
				<stop  offset="0" style="stop-color:#211738"/>
				<stop  offset="0.304" style="stop-color:#271741"/>
				<stop  offset="0.8064" style="stop-color:#37165A"/>
				<stop  offset="1" style="stop-color:#3E1666"/>
			</linearGradient>
			<path class="st1" d="M482.7,539.1l1.6-0.1h0l13.1-0.9l1-4.9l12.8-61.2c0,0,4.6-0.3,4.3-5.7c-0.3-5.4-9.8-18.8-10.1-23.1
				c-0.1-2.8,9.7-28.3,16.8-46.4c4-10.3,7.3-18.2,7.3-18.2l-11.7-35.9v-0.1l-31.6,8.9c0,0,0,0.8,0,2.2c-0.1,3.7-0.2,11.4-0.1,20.3
				c0,2.1,0,4.1,0,6.2c0.2,14.8,0.8,30.4,2.5,33c3.4,5.2,11.7,60.9,11.7,60.9l-16.2,59.5L482.7,539.1z"/>
			
				<linearGradient id="SVGID_3_" gradientUnits="userSpaceOnUse" x1="476.6284" y1="686.5621" x2="620.0025" y2="181.4032" gradientTransform="matrix(-1 0 0 1 917.4153 0)">
				<stop  offset="0" style="stop-color:#211738"/>
				<stop  offset="0.304" style="stop-color:#271741"/>
				<stop  offset="0.8064" style="stop-color:#37165A"/>
				<stop  offset="1" style="stop-color:#3E1666"/>
			</linearGradient>
			<path class="st2" d="M232.5,121.3c0.9,0.3,3.4,0,6.3-0.7c0.2-0.1,0.4-0.1,0.7-0.2c1.3-0.3,2.8-0.7,4.2-1.2h0
				c3.3-1.1,6.5-2.4,8.1-3.7c0.1,0,0.1,0,0.2-0.1c0.2-0.1,0.3-0.3,0.4-0.4c0,0,0,0,0,0c0.6-0.6,1.3-0.4,2.3,0.3
				c3.4,2.4,9.3,10.5,15,14.3c0.1,0,0.2,0.1,0.3,0.2c0.2,0.1,0.3,0.3,0.5,0.3c0,0,0.1,0,0.1,0c2,1.2,3.9,1.9,5.7,1.5
				c1.2-0.2,2.6-0.7,4-1.2c8.2-3.4,17.2-12,17.2-12l0.5,0.4l13,9.5l4.5,3.4l2.1,1.7l0.4,0.3c0,0,5.8-25.9,5.3-32.7
				c-0.1-2-1.6-5-3.7-8.2c-0.8-1.2-1.8-2.5-2.8-3.7c-2.2-2.7-4.8-5.3-7.4-7.4c-1-0.8-2.1-1.5-3.1-2.2c0,0,0,0,0,0
				c-0.4-0.2-0.7-0.4-1.1-0.6c-0.6-0.3-1.1-0.6-1.7-0.8c-1.3-0.5-2.5-0.7-3.7-0.6c-8.1,0.6-29.4,11.9-29.4,11.9l-12,0.5l-3,0.1
				L242,90.4c0,0-6.8,9.3-9.6,16.3C229.6,113.8,230,120.5,232.5,121.3z"/>
			
				<linearGradient id="SVGID_4_" gradientUnits="userSpaceOnUse" x1="430.818" y1="691.7054" x2="578.7818" y2="170.3756" gradientTransform="matrix(-1 0 0 1 917.4153 0)">
				<stop  offset="0" style="stop-color:#211738"/>
				<stop  offset="0.304" style="stop-color:#271741"/>
				<stop  offset="0.8064" style="stop-color:#37165A"/>
				<stop  offset="1" style="stop-color:#3E1666"/>
			</linearGradient>
			<path class="st3" d="M299.6,86.2l13.9,7.4l3.9,2.1c0,0,0.9-1.1,2.3-2.8c2.2-2.8,5.5-7.2,7.2-11c0,0,0,0,0-0.2
				c0.4-0.9,0.7-1.7,0.9-2.4c1.2-5.9-20.7-4.3-21.3-2.3c-0.2,0.4-0.6,1.2-1.2,2c-0.2,0.3-0.4,0.6-0.7,1c-0.3,0.4-0.6,0.8-0.9,1.2
				C301.7,83.6,299.6,86.2,299.6,86.2z"/>
		</g>
		
			<linearGradient id="SVGID_5_" gradientUnits="userSpaceOnUse" x1="510.7377" y1="727.0757" x2="661.8106" y2="194.7915" gradientTransform="matrix(-1 0 0 1 917.4153 0)">
			<stop  offset="0" style="stop-color:#211738"/>
			<stop  offset="0.304" style="stop-color:#271741"/>
			<stop  offset="0.8064" style="stop-color:#37165A"/>
			<stop  offset="1" style="stop-color:#3E1666"/>
		</linearGradient>
		<path class="st4" d="M290.4,511.9v1.4c0,10.5,0.6,18.4,2.2,20.1c1.8,1.9,4.5,2.8,7.5,3h0.1c0,0,0,0,0,0c1.1,0.1,2.2,0,3.3,0
			c0.1,0,0.3,0,0.4,0c5.6-0.5,10.8-2.6,11.3-3.8c0.8-2.2-10.7-19-10.9-24.4c-0.2-5.4-5.9-56-3.4-61.5c2.5-5.6,42.3-61.1,43.1-70.4
			c0.4-4.2,2.1-14.5,3.9-24.6c2.2-12.7,4.5-25.1,4.5-25.1l-29.9,1.2l-4,15.2l-0.3,1.4l0,0.2l-23.9,91.5
			C294.2,435.9,290.4,483.1,290.4,511.9z"/>
		<path class="st5" d="M346,472.2l5.3,63.4l0.3,3.4l0.8,9.9v0.1l0.3,3c0,0,1.7,0.6,4,1.3c0.6,0.2,1.2,0.3,1.9,0.5
			c0.4,0.1,0.8,0.2,1.2,0.3c0.6,0.1,1.2,0.2,1.8,0.3c0.1,0,0.1,0,0.2,0c0.6,0.1,1.2,0.1,1.7,0.2h2.6c0.3,0,0.6,0,0.9-0.1
			c0,0,0.1,0,0.1,0c0.4,0,0.7-0.1,1.1-0.2c0.7-0.1,1.4-0.4,1.9-0.8c0.3-0.2,0.6-0.3,0.8-0.6c0.1-0.1,0.3-0.3,0.4-0.5
			c0.1-0.2,0.3-0.4,0.4-0.6c0-0.1,0.1-0.2,0.1-0.3c0.2-0.3,0.3-0.7,0.4-1.2c0.1-0.5,0.2-1,0.2-1.6c0-2.2-0.8-5-2.6-8.8
			c-0.4-0.9-1-2-1.6-3.1c-0.3-0.5-0.5-0.9-0.8-1.4c-3.1-5.9-5.6-12.8-7.7-19.8c-0.9-3-1.6-6.1-2.3-9.1c-1-4.2-1.8-8.4-2.5-12.4
			c-0.3-1.8-0.6-3.5-0.8-5.1c-0.2-0.9-0.3-1.9-0.4-2.7c-0.3-1.8-0.5-3.5-0.6-5.1c-0.2-1.7-0.3-3.2-0.5-4.7c-0.1-1.5-0.3-2.8-0.3-4.1
			c-0.1-0.6-0.1-1.1-0.1-1.6c-0.1-1.1-0.2-2.1-0.2-2.9c-0.2-3-0.3-4.8-0.3-4.8l23.7-95l-3.4-16c0,0,62.6,42.9,114.1,21.6
			c0,2.1,0,4.1,0,6.2c0.2,14.8,0.8,30.4,2.5,33c3.4,5.2,11.7,60.9,11.7,60.9l-16.2,59.5l-1.5,5.8l1.6-0.1h0l13.1-0.9l1-4.9
			l12.8-61.2c0,0,4.6-0.3,4.3-5.7c-0.3-5.4-9.8-18.8-10.1-23.1c-0.1-2.8,9.7-28.3,16.8-46.4c1.8,16.7,1.9,33.1,1.9,33.1l29.1,62.9
			l-5.8,39.6l-2.3,15.6l-0.1,1.1l-1,6.9l0,0.4l5.1-0.4l3.1-0.2l12.1-0.9l0.3-22.8l0.6-47.8c0,0,5.8-8,2.9-15.4
			c-2.8-7.4-10.2-0.3-18.3-17.1c-8.1-16.7,25.5-151.6,25.5-151.6l-1-2.6l-1.4-3.4l-10.6-26.6c0.5,0.4,5.4,4.2,11.3,9.6
			c0.7,0.6,1.4,1.3,2.2,2c1.4,1.3,2.9,2.8,4.3,4.3c0.7,0.7,1.5,1.5,2.2,2.3c2.2,2.3,4.3,4.7,6.2,7.1c0.7,0.9,1.4,1.9,2,2.8
			c2,2.9,3.7,5.8,4.6,8.5c5.7,15.8,13.7,43.4,13.7,43.4l5.6-10.2l-16.2-33.5c0,0-2.5-3.5-6-8.5c-0.6-0.9-1.3-1.8-1.9-2.7
			c-8.9-12.5-22.5-31-26.3-32.9c-5.7-2.8-29.9-103.8-57.4-106.1c-5.8-0.5-11.1,2-16,6.2c-18.1,15.6-28.9,55.5-28.9,55.5
			s-11.1-11.4-24.2-22.9c-2.2-2-4.5-4-6.8-5.9c-11-9.2-22.3-17.3-28.6-17.9c-0.6-0.1-1.1-0.1-1.7-0.1h-1.5c-0.4,0-0.8,0-1.2,0.1
			l0.1,7.8c4.8,1.2,13.6,7.9,23.8,16.4c1.8,1.4,3.5,2.9,5.3,4.5c4.9,4.1,9.9,8.5,14.8,12.8l0,0c15.5,13.5,30.3,26.2,36.4,27.7
			c12.8,3.1,39.6-52.4,53.7-42.1c11.3,8.4,26.6,72.2,32.2,98.9c0.3,1.4,0.6,2.7,0.8,3.8c0.9,4.2,1.3,7,1.3,7.7
			c0.2,4.5-29.5,10.2-39,23.3c-4.4,6.1-6.7,9.9-9.6,13c-3.3,3.4-7.3,5.7-15.8,9c-3,1.1-8.6,1.8-15.8,2
			c-31.5,1.1-93.8-5.4-100.7-11.1c-8.4-6.9-22-28.2-22-28.2s2.8,48,2.2,55.3c-0.4,4.2-9.7,29-17.6,49.4c-0.4,1-0.8,2.1-1.2,3.1
			L346,472.2z"/>
		<path class="st5" d="M243.7,119.2c3.3-1.1,6.5-2.4,8.1-3.7c0.1,0,0.1,0,0.2-0.1l0.4-0.6c0,0,0,0,0,0.1c0,0,0,0,0,0
			c0.6-0.6,1.3-0.4,2.3,0.3c3.4,2.4,9.3,10.5,15,14.3c0.1,0,0.2,0.1,0.3,0.2c0.2,0.1,0.3,0.3,0.5,0.3c0,0,0.1,0,0.1,0
			c2,1.2,3.9,1.9,5.7,1.5c1.2-0.2,2.6-0.7,4-1.2c8.2-3.4,17.2-12,17.2-12l0.5,0.4c3.1-2.5,5.1-4.2,5.1-4.2s6.5,3.4,7.6,7.9
			c0.2,0.9,0.3,2.9,0.3,5.8c0,11.5-1.5,35.8-3.7,49c-0.2,1-0.3,2.1-0.6,3c0,0.2-0.1,0.3-0.1,0.5c-1.1,5.3-3,15-4,25.5
			c-0.1,0.8-0.1,1.5-0.2,2.3c-1.3,17.6,0.3,36.7,13.2,40c14.8,3.9,33.1-7.6,43-18.6c0.2-0.2,0.4-0.4,0.6-0.6c0,0,0,0,0,0
			c3.9-4.4,6.4-8.7,6.8-11.8c1.1-9.1,14.9-31.3,21.6-39.1c1.4-1.5,2.4-2.5,3.1-2.8c3.6-1,7.3,0.6,7.3,0.6l1-7.9
			c-0.4,0-0.8,0-1.2,0.1c-4.4,0.5-8.6,2.5-12.4,5.4c-17.2,13-27.6,44.6-27.6,44.6s-5.2,2.2-13,3.6c-0.2,0-0.4,0.1-0.6,0.1
			c-8.7,1.5-20.6,1.7-31.9-3.6c-5-2.4-6.3-8.5-5.7-16.7c0-0.3,0-0.6,0-0.9c0.5-5.7,1.7-12.4,3.2-19.5c0.3-1,0.4-2,0.6-3
			c3.2-14.7,7-31.1,6.8-45.2l0.4,0.3c0,0,5.8-25.9,5.3-32.7c-0.1-2-1.6-5-3.7-8.2c2.2-2.8,5.5-7.2,7.2-11c0,0,0,0,0-0.2
			c0.4-0.9,0.7-1.7,0.9-2.4c1.2-5.9-20.7-4.3-21.3-2.3c-0.2,0.4-0.6,1.2-1.2,2c-0.6-0.3-1.1-0.6-1.7-0.8l0.1,1.5l0,1.5l0.1,1.9
			c0,0,2.6-0.6,5.7-1.2c4.8-0.9,10.9-1.9,11.4-1.3c0.5,0.5-1.6,4.9-4,8.7c-1.1,1.8-2.4,3.5-3.4,4.4c-0.4,0.4-0.8,0.7-1.1,0.8
			c-2.7,1-11.9-2.2-11.8-0.4c0,1.8,6.6,7,7.6,9.7c0.2,0.4-0.4,1.2-1.5,2.3c-4,4-15,11.6-23.4,16.2c-4.3,2.4-8,3.9-9.6,3.7
			c-4.3-0.5-13.3-8.7-17.9-12.2c0,0,0,0,0,0c-0.2-0.1-0.4-0.3-0.6-0.4c-0.2-0.2-0.4-0.3-0.6-0.4c-0.6-0.4-1.1-0.7-1.3-0.6
			c-0.2,0-0.5,0.1-0.9,0.3c-2,1.1-6,4.5-7.7,6.1c0,0,0,0-0.1,0C244,118.9,243.8,119.1,243.7,119.2z"/>
	</g>
	<path class="st6" d="M370.4,38.3c5.2,2.1,12.5,2.4,12.5,2.4s-0.9,9-1.1,13.6c0,0.7,0,1.3,0,1.8c0.1,2.2,4.8,8.7,8.7,13.3
		c2.3,2.7,4.3,4.6,4.9,4.6c1.7-0.1,20.8-4.7,21.1-6.8c0.1-0.6-0.3-2.9-1-5.7c-0.5-2-1-4.3-1.6-6.5c-1.5-5.5-3-10.8-3-10.8
		s9.6-5.1,10.4-8.5c0.7-3.4-10.2-9.9-8.6-11.2c0.8-0.6,2.4-1.9,3.3-3.3c0,0,0,0,0,0c1-1.6,1.1-3.4-1.9-4.9
		c-5.2-2.5-13.9-4.9-20.2-4.2c-0.6,0.1-1.2,0.2-1.8,0.3c-6.4,1.5-4.5,4.9-4.5,4.9s-17.4,4.1-21.7,13.3
		C364,34.5,366.7,36.8,370.4,38.3z"/>
	<path class="st6" d="M377.8,145.4c0,0.7,0,1.5,0,2.2c0.1,0.8,0.2,1.6,0.3,2.4c1,8.3,4.6,17.7,7.5,24c0.8,1.8,1.5,3.4,2.2,4.6
		c0.9,1.8,1.5,2.8,1.5,2.8l27.4,14.9l5.9,3.2v0l19.5,10.6l0,0l25,13.6c0,0,16.9-39.2,23.8-63.9c2.2-7.7,3.4-13.9,2.8-17.1
		c-2.4-13.6-53-78.8-62.2-82.1c0,0-9.4-3.4-17.7-5.6c-2-0.5-3.9-0.9-5.6-1.2c-1.5-0.3-3-0.4-4.1-0.3c-3.5,0.1-9.1,7.4-13.6,16l0,0.1
		c-4.7,9.3-11.3,52.9-9.7,57.5c1.1,3.1,6.3,4.5,12.5,4.8c0.9,0,1.8,0.1,2.7,0.1c0.5,0,0.9,0,1.3,0c0.9,0,1.9,0,2.9,0
		c-1.2,0.2-2.4,0.4-3.5,0.7c-0.7,0.1-1.3,0.3-1.9,0.4C385.8,135.3,377.9,139,377.8,145.4z"/>
	<polygon class="st7" points="400.8,39.1 385.3,37.9 381.8,54.4 404.1,53.5 	"/>
	<path class="st8" d="M368.8,33.1c1,2.7,15.9,8,15.9,8s10.2-1.6,16.4-0.6h0c2.2,0.3,3.8,1,4.3,2.2c1.3,2.9,2.7,7.7,2.7,11.3
		c0,1.9-0.3,3.4-1.2,4c-2.6,1.9-12.7,10.2-13.2,10.5c0.5-0.2,13.1-4.9,21.7-6.9c3.2-0.7,5.8-1,7.1-0.6c4.6,1.6,32.8,26,32.8,27.8
		c0,1.8-0.4,11.8-2.1,16.4s-36.6,14.2-36.6,14.2s37-4.2,41.7-1.6s17,15.7,18,19.3c1,3.6-52-7.1-52-7.1l-5.4,0.2l-0.7,0h-0.9
		l-1.4,0.1c-3.5,0.2-9.5,0.6-15.8,1.7c-1.2,0.2-2.4,0.4-3.5,0.7c-0.7,0.1-1.3,0.3-1.9,0.4c-8.9,2.2-16.7,5.9-16.9,12.2
		c0,0.7,0,1.5,0,2.2c0.1,0.8,0.2,1.6,0.3,2.4c1,8.3,4.6,17.7,7.5,24c0.8,1.8,1.5,3.4,2.2,4.6c0.9,1.8,1.5,2.8,1.5,2.8l27.4,14.9
		c1.7-1.1,3.4-2.3,5.3-3.4c3-2,6.1-4.2,9-6.3c7.6-5.6,14.3-11.1,15.9-14.7c4.2-9.3,3.5-25.6,3.4-27.4c-0.1-1.9-44.8-8.3-44.8-8.3
		l17.1-3.4c0,0,53.7,5.2,54,12.4c0.3,7.2-21.1,39-21.1,39l-17.7,8.2l-10.5,4.9l-4.6,2.2l19.5,10.6l0,0l25,13.6
		c0,0,16.9-39.2,23.8-63.9c2.2-7.7,3.4-13.9,2.8-17.1c-2.4-13.6-53-78.8-62.2-82.1c0,0-9.4-3.4-17.7-5.6c-1.5-5.5-3-10.8-3-10.8
		s9.6-5.1,10.4-8.5c0.7-3.4-10.2-9.9-8.6-11.2c0.8-0.6,2.4-1.9,3.3-3.3c0,0,0,0,0,0c1-1.6,1.1-3.4-1.9-4.9
		c-5.2-2.5-13.9-4.9-20.2-4.2c0.5,0.1,1.6,0.3,3.1,0.7c4.9,1.3,13.9,3.8,14,5.8c0,2.6-17.4,3.4-18.9,3.5c1.7,0.6,24.7,8.2,24.8,10.8
		c0.1,2.7-6.2,3.9-8.9,4c-2.7,0.1-14.7-4.9-21-4.6C380.6,32.6,367.8,30.3,368.8,33.1z"/>
	<polygon class="st9" points="251.7,116.7 254.7,116.1 254.8,115.3 255.1,113.2 255.1,113 258.2,91.5 258.5,89.8 258.9,87 
		255.8,87.6 255.4,89.9 255.2,91.5 252.3,112.4 252,114.4 251.8,115.5 	"/>
	<path class="st9" d="M251.9,117.1c0.7,1.5,3.2,6.2,6.9,12.7c4,6.7,9.4,15.3,15.9,23.5c9.1,11.5,20.2,22.5,32,27.1
		c1.1,0.4,2.2,0.8,3.4,1.2c4.3,1.2,8.7,1.6,13.1,0.8c17.6-3.2,38.2-17.9,54.8-32.3c7.1-6.1,13.4-12.2,18.6-17.3
		c0.2-0.3,0.4-0.5,0.6-0.7c5.3-5.4,9.2-9.6,10.9-11.5c-1.8,1.8-6.2,6.1-12.3,11.5c-0.4,0.3-0.8,0.8-1.2,1.1
		c-4.8,4.3-10.5,9.3-16.9,14.4c-17.3,14.1-38.6,28.7-55.1,31.7c-3.9,0.7-7.9,0.4-11.9-0.7c-1.1-0.3-2.3-0.7-3.4-1.2
		c-11.5-4.6-22.8-15.3-32.1-26.5c-6.2-7.4-11.5-15-15.5-21.1C255.5,123.4,252.7,118.6,251.9,117.1z"/>
	<g>
		<path class="st6" d="M169.9,290.7C169.9,290.7,170,290.7,169.9,290.7c1.2,0.5,2.4,0.9,3.6,1.3c0,0,0.1,0,0.1,0
			c5,1.4,10.2,1.8,10.2,1.8s0,0,0,0.1c0,0,0,0.1-0.1,0.3c0,0.1,0,0.2,0,0.3c-0.1,0.9-0.3,2.6-0.6,4.6c-0.2,2-0.5,4.2-0.7,6.3
			c-0.2,2.3-0.4,4.3-0.4,5.5c0,1.9,3.1,6.8,6.3,11.3c3.4,4.7,7.1,9,8.1,9c0.7,0,4.4-0.7,8.7-1.6c3.1-0.7,6.5-1.6,9.3-2.5
			c2.8-0.9,4.9-1.8,5.5-2.5c0.1-0.1,0.1-0.2,0.2-0.3c0.4-2.4-5.5-25.6-5.5-25.6s10.8-5.3,11.8-9.1c0.9-3.8-11-11.3-9.1-12.7
			c1.2-1,4.5-3.3,4.5-5.7c0,0,0,0,0,0c0-1.1-0.7-2.3-2.7-3.3c-5.8-3.1-15.6-6-22.6-5.3l-1.5,0.2c-7.1,1.5-5.2,5.3-5.2,5.3
			s-19.4,4-24.5,14C163.1,286.2,165.9,289,169.9,290.7z"/>
		<path class="st6" d="M136.5,592.1l36.7,1.4c0,0,6.5-54.5,5.9-61.5c-0.6-7,11.2-49.2,11.2-49.2s0.1,0.5,0.3,1.5
			c1.2,7.4,6.1,38.7,6.6,42.9c0.7,4.8,50.8,64.5,59.1,69.1c8.2,4.6,58.4,5.9,48.4,2.5c-9.9-3.4-39-44.7-39.6-49.4
			c-0.6-4.7-8.6-49.1-8.8-65.5c0-4.2-1.1-14.4-2.7-27.5c-2.1-16.8-5.1-38.3-8.1-57.9c-3.9-25.1-7.8-47-9.8-52
			c-2.9-7.1-10.3-16-15.8-22c-3.5-3.8-6.2-6.5-6.2-6.5l-0.6,0.1l-24.4,3.1l-0.3,0.9l-0.7,1.8l0,0.2l-12,29.5l-4.4,81.3
			c0,0-1.3,10.5-3,24.4l0,0.1c-3.4,27.2-8.3,67.6-8.3,69.2c0,2.3,6.3,52.6,6.3,52.6s-18.1,1.9-19.8,1.9
			C144.7,583.2,137.5,591,136.5,592.1L136.5,592.1z"/>
		<polygon class="st7" points="231.8,369.5 232.4,372.5 240.9,415.8 241,415.9 249,456.5 253.5,456.4 265.3,456.3 263,442 
			263,441.9 261.6,433 245.4,398.5 232.4,370.8 		"/>
		<path class="st7" d="M182.4,305.4c0.4,2.8,18.1,3,22,2.9c3.9,0-3-11.7-3-11.7l-17.6-2.8c0,0,0,0.1-0.1,0.3c0,0.1,0,0.2-0.1,0.3
			C183.2,296.6,182,303.2,182.4,305.4z"/>
		<path class="st8" d="M213.1,318.2c0.1,1.5,0.2,2.5,0.2,2.8c0,1-17.5,4.1-20.4,3.1c-2.9-0.9-3.9,2,4,3.9c2.5,0.6,5.4,1.1,8.3,1.5
			c3.1,0.4,6,0.8,8.4,1.2c2.4,0.3,4.1,0.7,4.8,1c2,0.9,12.8,14.5,13.9,17.5c0.4,1.2,0.4,10.6,0.3,21.7v1.7
			c-0.2,15.7-0.7,34-0.7,36.2c0.1,3.9-22,47.1-24.8,48.1c-2.9,1-9.7,3-9.7,3l15.6-0.2l28.2-43.9v0.1l8,55.2l-12.2,49l-17-43.8
			c0.3,1.6,10.3,52.8,13.3,60.4c3,7.7,24.1,36,24.7,36.9c-1.2-0.9-49.1-37.7-53-42.5c-3.9-4.9-14.1-48.7-14.1-48.7v1.9
			c1.2,7.4,6.1,38.7,6.6,42.9c0.7,4.8,50.8,64.5,59.1,69.1c8.2,4.6,58.4,5.9,48.4,2.5c-9.9-3.4-39-44.7-39.6-49.4
			c-0.6-4.7-8.6-49.1-8.8-65.5c0-4.2-1.1-14.4-2.7-27.5l11.8-0.1L263,442l0-0.1l-1.4-8.9l-16.1-34.4c-3.9-25.1-7.8-47-9.8-52
			c-2.9-7.1-10.3-16-15.8-22c0.1-0.1,0.1-0.2,0.2-0.3c0.4-2.4-5.5-25.6-5.5-25.6s10.8-5.3,11.8-9.1c0.9-3.8-11-11.3-9.1-12.7
			c1.2-1,4.5-3.3,4.5-5.7c0,0,0,0,0,0c0-1.1-0.7-2.3-2.7-3.3c-5.8-3.1-15.6-6-22.6-5.3c0.2,0,1.9,0.4,4.2,1c0,0,0.1,0,0.1,0
			c6.2,1.5,17,4.4,17,6.5c0,2.8-25.4-0.6-26.3-0.7c0.9,0.4,29.4,13.4,29.4,17.3c0,3.9-11.6,6-15.6,6c-3.3,0.1-26.7-1.4-33.4-1.8
			c-0.6-0.1-1.1-0.1-1.4-0.1c0.3,0,0.9,0.1,1.6,0.2c8.2,1.1,38.3,5.2,39.2,8.5C211.9,302.5,212.8,313.1,213.1,318.2z"/>
	</g>
	<path class="st10" d="M244.4,118.5c-1.7,0.8-3.4,1.4-4.9,1.9c1.3-0.3,2.8-0.7,4.2-1.2h0c3.3-1.1,6.5-2.4,8.1-3.7l-0.2,1.2l3.1-0.6
		l0.1-0.8c3.4,2.4,9.3,10.5,15,14.3c-3.1-2.6-11.3-12.6-14.1-16c0,0,0,0,0,0c-0.3-0.3-0.4-0.5-0.6-0.6c-0.2-0.3-0.3-0.4-0.3-0.4
		s-0.1,0.1-0.3,0.2c-0.4,0.3-1.3,0.9-2.5,1.6C250.1,115.6,247.3,117.2,244.4,118.5C244.5,118.5,244.5,118.5,244.4,118.5z"/>
	<path class="st10" d="M232.5,121.3c0.9,0.3,3.4,0,6.3-0.7c-3.2,0.7-5.8,0.2-6.4-2.8c-1.8-9.1,10.3-26.1,10.3-26.1l12.5-0.2l3,0
		l13.2-1c0,0,27.6-11.3,29.2-11.5c0.8,0,1.9,0.2,3,0.6c0.3,0.1,0.6,0.2,0.9,0.3c0.8,0.3,1.4,0.5,1.4,0.5s0.2-0.3,0.4-0.8
		c0,0,0,0,0,0c0.5-0.8,1.1-2.2,1.9-2.8c2.8-2,14-1.3,17.7,0.3c2.1,0.9,1.2,3.8,1,4.6c0.4-0.9,0.7-1.7,0.9-2.4
		c1.2-5.9-20.7-4.3-21.3-2.3c-0.2,0.4-0.6,1.2-1.2,2c-0.6-0.3-1.1-0.6-1.7-0.8c-1.3-0.5-2.5-0.7-3.7-0.6
		c-8.1,0.6-29.4,11.9-29.4,11.9l-12,0.5l0.4-2.8l-3.1,0.6l-0.3,2.3L242,90.4c0,0-6.8,9.3-9.6,16.3
		C229.6,113.8,230,120.5,232.5,121.3z"/>
	<path class="st10" d="M370.4,38.3L370.4,38.3c-1.5-0.9-4.2-3.1-3.8-6.6c0.3-2.7,5.4-6.9,8.7-9.1c3.5-2.2,14.1-5,14.1-5
		s-0.9-1.3-0.3-2.8c0.4-1.2,3.7-2,7.7-2c1,0,2.2,0,3.2,0.1c5.3,0.4,14.4,4.6,15.3,5.4c0.9,0.8,0.5,2.5,0.5,2.8
		c1-1.6,1.1-3.4-1.9-4.9c-5.2-2.5-13.9-4.9-20.2-4.2c-0.6,0.1-1.2,0.2-1.8,0.3c-6.4,1.5-4.5,4.9-4.5,4.9s-17.4,4.1-21.7,13.3
		C364,34.5,366.7,36.8,370.4,38.3z"/>
	<path class="st10" d="M380.7,127.1c1.1,3.1,6.3,4.5,12.5,4.8c0,0-10.7,0-11.4-9.7c-0.6-8,8.1-50.1,8.6-52.6
		C385.7,78.8,379.2,122.5,380.7,127.1z"/>
	<path class="st10" d="M267.2,255.5c0.1,1.9,0.2,3.8,0.3,5.7c1.7,31.1,7.2,56.3,17.7,63.5c7.7,5.3,15.2,9.6,22.2,13
		c-2.6-1.8-14.2-7.5-21.5-15.6c-8-8.9-9.9-13.9-14.8-50.3s3.2-116,3.2-116C268.7,185.6,266,223.2,267.2,255.5z"/>
	<path class="st10" d="M169.9,290.7C169.9,290.7,170,290.7,169.9,290.7c1.2,0.5,2.4,0.9,3.6,1.3c-0.2-0.1-0.8-0.5-1.5-1
		c0,0-0.1,0-0.2-0.1c-2.4-1.6-6.1-2.8-6.2-5.5c0-1.8,3.4-6.3,7.2-9.2c3.8-2.8,18.6-7.6,18.6-7.6s-0.9-1.9,1.9-4.3
		c1.3-1.1,4.8-1.4,8.1-1c0,0,4.2,0.6,9.6,1.8c6.7,1.6,10.6,5.6,10.8,6c0-1.1-0.7-2.3-2.7-3.3c-5.8-3.1-15.6-6-22.6-5.3l-1.5,0.2
		c-7.1,1.5-5.2,5.3-5.2,5.3s-19.4,4-24.5,14C163.1,286.2,165.9,289,169.9,290.7z"/>
</g>
</svg>
